<svg width="61" height="76" viewBox="0 0 61 76" fill="none" xmlns="http://www.w3.org/2000/svg">
<circle cx="31" cy="28" r="28" fill="url(#paint0_linear_42_141)"/>
<path d="M34.0301 18.2277C32.7319 16.9289 31.1421 15.9591 29.3933 15.3992C27.6444 14.8393 25.787 14.7053 23.9759 15.0086C22.1588 15.3106 20.4407 16.0438 18.9654 17.1466C17.49 18.2494 16.3006 19.6899 15.4966 21.3471C14.6927 23.0044 14.2977 24.8302 14.3448 26.6715C14.3919 28.5129 14.8797 30.3161 15.7673 31.9301C15.792 31.9958 15.792 32.0683 15.7673 32.134L14.6621 35.9432C14.5898 36.1755 14.5826 36.4232 14.6413 36.6593C14.6999 36.8954 14.8222 37.1109 14.9948 37.2824C15.1673 37.4538 15.3836 37.5747 15.6201 37.6318C15.8566 37.689 16.1042 37.6802 16.336 37.6064L20.1237 36.469C20.1932 36.4445 20.2689 36.4445 20.3384 36.469C22.0297 37.4187 23.9354 37.921 25.8751 37.9283C26.7079 37.9265 27.5384 37.8403 28.3538 37.6708C30.3765 37.2252 32.242 36.2437 33.7549 34.8292C35.2678 33.4147 36.3724 31.6193 36.9528 29.6311C37.5333 27.6429 37.5682 25.5352 37.054 23.5289C36.5397 21.5226 35.4953 19.6916 34.0301 18.2277ZM21.5831 28.2175C21.3178 28.2175 21.0585 28.1388 20.8379 27.9914C20.6173 27.8441 20.4454 27.6346 20.3439 27.3895C20.2424 27.1444 20.2158 26.8747 20.2676 26.6146C20.3193 26.3544 20.4471 26.1154 20.6346 25.9278C20.8222 25.7402 21.0612 25.6125 21.3214 25.5607C21.5816 25.509 21.8513 25.5355 22.0963 25.637C22.3414 25.7386 22.5509 25.9105 22.6983 26.1311C22.8457 26.3516 22.9243 26.6109 22.9243 26.8762C22.9243 27.2319 22.783 27.5731 22.5315 27.8246C22.2799 28.0762 21.9388 28.2175 21.5831 28.2175ZM25.8751 28.2175C25.6098 28.2175 25.3505 28.1388 25.13 27.9914C24.9094 27.8441 24.7375 27.6346 24.636 27.3895C24.5344 27.1444 24.5079 26.8747 24.5596 26.6146C24.6114 26.3544 24.7391 26.1154 24.9267 25.9278C25.1143 25.7402 25.3533 25.6125 25.6135 25.5607C25.8736 25.509 26.1433 25.5355 26.3884 25.637C26.6335 25.7386 26.843 25.9105 26.9904 26.1311C27.1377 26.3516 27.2164 26.6109 27.2164 26.8762C27.2164 27.2319 27.0751 27.5731 26.8235 27.8246C26.572 28.0762 26.2309 28.2175 25.8751 28.2175ZM30.1672 28.2175C29.9019 28.2175 29.6426 28.1388 29.422 27.9914C29.2015 27.8441 29.0295 27.6346 28.928 27.3895C28.8265 27.1444 28.7999 26.8747 28.8517 26.6146C28.9034 26.3544 29.0312 26.1154 29.2188 25.9278C29.4064 25.7402 29.6453 25.6125 29.9055 25.5607C30.1657 25.509 30.4354 25.5355 30.6805 25.637C30.9256 25.7386 31.135 25.9105 31.2824 26.1311C31.4298 26.3516 31.5085 26.6109 31.5085 26.8762C31.5085 27.2319 31.3672 27.5731 31.1156 27.8246C30.8641 28.0762 30.5229 28.2175 30.1672 28.2175Z" fill="#B3D4FF"/>
<path d="M27.0587 21.4753C28.3569 20.1765 29.9466 19.2067 31.6955 18.6468C33.4444 18.0868 35.3017 17.9529 37.1129 18.2562C38.9299 18.5582 40.6481 19.2913 42.1234 20.3942C43.5987 21.497 44.7882 22.9374 45.5921 24.5947C46.396 26.2519 46.791 28.0777 46.7439 29.9191C46.6968 31.7605 46.209 33.5637 45.3214 35.1777C45.2967 35.2434 45.2967 35.3159 45.3214 35.3816L46.4267 39.1908C46.4989 39.4231 46.5061 39.6707 46.4475 39.9068C46.3888 40.1429 46.2666 40.3584 46.094 40.5299C45.9214 40.7014 45.7051 40.8223 45.4687 40.8794C45.2322 40.9365 44.9846 40.9277 44.7528 40.854L40.965 39.7166C40.8956 39.692 40.8198 39.692 40.7504 39.7166C39.0591 40.6663 37.1533 41.1686 35.2136 41.1759C34.3808 41.1741 33.5503 41.0878 32.7349 40.9183C30.7123 40.4727 28.8467 39.4913 27.3338 38.0767C25.8209 36.6622 24.7163 34.8668 24.1359 32.8786C23.5555 30.8905 23.5206 28.7828 24.0348 26.7765C24.549 24.7702 25.5935 22.9391 27.0587 21.4753ZM39.5057 31.4651C39.771 31.4651 40.0303 31.3864 40.2509 31.239C40.4714 31.0916 40.6433 30.8821 40.7449 30.6371C40.8464 30.392 40.8729 30.1223 40.8212 29.8621C40.7694 29.6019 40.6417 29.3629 40.4541 29.1754C40.2665 28.9878 40.0275 28.86 39.7674 28.8083C39.5072 28.7565 39.2375 28.7831 38.9924 28.8846C38.7473 28.9861 38.5378 29.158 38.3905 29.3786C38.2431 29.5992 38.1644 29.8585 38.1644 30.1238C38.1644 30.4795 38.3057 30.8207 38.5573 31.0722C38.8088 31.3237 39.15 31.4651 39.5057 31.4651ZM35.2136 31.4651C35.4789 31.4651 35.7382 31.3864 35.9588 31.239C36.1794 31.0916 36.3513 30.8821 36.4528 30.6371C36.5543 30.392 36.5809 30.1223 36.5291 29.8621C36.4774 29.6019 36.3496 29.3629 36.162 29.1754C35.9745 28.9878 35.7355 28.86 35.4753 28.8083C35.2151 28.7565 34.9454 28.7831 34.7003 28.8846C34.4553 28.9861 34.2458 29.158 34.0984 29.3786C33.951 29.5992 33.8723 29.8585 33.8723 30.1238C33.8723 30.4795 34.0137 30.8207 34.2652 31.0722C34.5167 31.3237 34.8579 31.4651 35.2136 31.4651ZM30.9215 31.4651C31.1868 31.4651 31.4461 31.3864 31.6667 31.239C31.8873 31.0916 32.0592 30.8821 32.1607 30.6371C32.2622 30.392 32.2888 30.1223 32.237 29.8621C32.1853 29.6019 32.0576 29.3629 31.87 29.1754C31.6824 28.9878 31.4434 28.86 31.1832 28.8083C30.923 28.7565 30.6534 28.7831 30.4083 28.8846C30.1632 28.9861 29.9537 29.158 29.8063 29.3786C29.6589 29.5992 29.5803 29.8585 29.5803 30.1238C29.5803 30.4795 29.7216 30.8207 29.9731 31.0722C30.2247 31.3237 30.5658 31.4651 30.9215 31.4651Z" fill="white"/>
<rect y="56" width="61" height="20" rx="10" fill="url(#paint1_linear_42_141)"/>
<rect x="0.5" y="56.5" width="60" height="19" rx="9.5" stroke="#DFE1E6" stroke-opacity="0.4"/>
<path d="M15.5781 68.0283V69H12.0088V68.0283H15.5781ZM12.3506 61.8906V69H11.125V61.8906H12.3506ZM17.668 63.7168V69H16.4863V63.7168H17.668ZM16.4082 62.3301C16.4082 62.151 16.4668 62.0029 16.584 61.8857C16.7044 61.7653 16.8704 61.7051 17.082 61.7051C17.2904 61.7051 17.4548 61.7653 17.5752 61.8857C17.6956 62.0029 17.7559 62.151 17.7559 62.3301C17.7559 62.5059 17.6956 62.6523 17.5752 62.7695C17.4548 62.8867 17.2904 62.9453 17.082 62.9453C16.8704 62.9453 16.7044 62.8867 16.584 62.7695C16.4668 62.6523 16.4082 62.5059 16.4082 62.3301ZM20.6758 68.0674L21.9697 63.7168H23.1904L21.3545 69H20.5928L20.6758 68.0674ZM19.6846 63.7168L21.0029 68.0869L21.0664 69H20.3047L18.459 63.7168H19.6846ZM26.1787 69.0977C25.7881 69.0977 25.4349 69.0342 25.1191 68.9072C24.8066 68.777 24.5397 68.5964 24.3184 68.3652C24.1003 68.1341 23.9326 67.8623 23.8154 67.5498C23.6982 67.2373 23.6396 66.9004 23.6396 66.5391V66.3438C23.6396 65.9303 23.6999 65.556 23.8203 65.2207C23.9408 64.8854 24.1084 64.599 24.3232 64.3613C24.5381 64.1204 24.792 63.9365 25.085 63.8096C25.3779 63.6826 25.6953 63.6191 26.0371 63.6191C26.4147 63.6191 26.7451 63.6826 27.0283 63.8096C27.3115 63.9365 27.5459 64.1156 27.7314 64.3467C27.9202 64.5745 28.0602 64.8464 28.1514 65.1621C28.2458 65.4779 28.293 65.8262 28.293 66.207V66.71H24.2109V65.8652H27.1309V65.7725C27.1243 65.5609 27.082 65.3623 27.0039 65.1768C26.929 64.9912 26.8135 64.8415 26.6572 64.7275C26.501 64.6136 26.2926 64.5566 26.0322 64.5566C25.8369 64.5566 25.6628 64.599 25.5098 64.6836C25.36 64.765 25.2347 64.8838 25.1338 65.04C25.0329 65.1963 24.9548 65.3851 24.8994 65.6064C24.8473 65.8245 24.8213 66.0703 24.8213 66.3438V66.5391C24.8213 66.7702 24.8522 66.985 24.9141 67.1836C24.9792 67.3789 25.0736 67.5498 25.1973 67.6963C25.321 67.8428 25.4707 67.9583 25.6465 68.043C25.8223 68.1243 26.0225 68.165 26.2471 68.165C26.5303 68.165 26.7826 68.1081 27.0039 67.9941C27.2253 67.8802 27.4173 67.7191 27.5801 67.5107L28.2002 68.1113C28.0863 68.2773 27.9382 68.4368 27.7559 68.5898C27.5736 68.7396 27.3506 68.8617 27.0869 68.9561C26.8265 69.0505 26.5238 69.0977 26.1787 69.0977ZM33.8594 68.1602C34.0514 68.1602 34.224 68.1227 34.377 68.0479C34.5332 67.9697 34.6585 67.8623 34.7529 67.7256C34.8506 67.5889 34.9043 67.431 34.9141 67.252H36.0225C36.016 67.5938 35.915 67.9046 35.7197 68.1846C35.5244 68.4645 35.2656 68.6875 34.9434 68.8535C34.6211 69.0163 34.2646 69.0977 33.874 69.0977C33.4704 69.0977 33.1188 69.0293 32.8193 68.8926C32.5199 68.7526 32.2708 68.5605 32.0723 68.3164C31.8737 68.0723 31.724 67.7907 31.623 67.4717C31.5254 67.1527 31.4766 66.8109 31.4766 66.4463V66.2754C31.4766 65.9108 31.5254 65.569 31.623 65.25C31.724 64.9277 31.8737 64.6445 32.0723 64.4004C32.2708 64.1562 32.5199 63.9658 32.8193 63.8291C33.1188 63.6891 33.4688 63.6191 33.8691 63.6191C34.2923 63.6191 34.6634 63.7038 34.9824 63.873C35.3014 64.0391 35.5521 64.2718 35.7344 64.5713C35.9199 64.8675 36.016 65.2126 36.0225 65.6064H34.9141C34.9043 65.4111 34.8555 65.2354 34.7676 65.0791C34.6829 64.9196 34.5625 64.7926 34.4062 64.6982C34.2533 64.6038 34.0693 64.5566 33.8545 64.5566C33.6169 64.5566 33.4199 64.6055 33.2637 64.7031C33.1074 64.7975 32.9854 64.9277 32.8975 65.0938C32.8096 65.2565 32.7461 65.4404 32.707 65.6455C32.6712 65.8473 32.6533 66.0573 32.6533 66.2754V66.4463C32.6533 66.6644 32.6712 66.876 32.707 67.0811C32.7428 67.2861 32.8047 67.4701 32.8926 67.6328C32.9837 67.7923 33.1074 67.9209 33.2637 68.0186C33.4199 68.113 33.6185 68.1602 33.8594 68.1602ZM38.0879 61.5V69H36.916V61.5H38.0879ZM37.8828 66.1631L37.502 66.1582C37.5052 65.7936 37.5557 65.4567 37.6533 65.1475C37.7542 64.8382 37.8942 64.5697 38.0732 64.3418C38.2555 64.1107 38.4736 63.9333 38.7275 63.8096C38.9814 63.6826 39.263 63.6191 39.5723 63.6191C39.8327 63.6191 40.0671 63.6549 40.2754 63.7266C40.487 63.7982 40.6693 63.9137 40.8223 64.0732C40.9753 64.2295 41.0908 64.4346 41.1689 64.6885C41.2503 64.9391 41.291 65.2451 41.291 65.6064V69H40.1094V65.5967C40.1094 65.3428 40.0719 65.141 39.9971 64.9912C39.9255 64.8415 39.8197 64.734 39.6797 64.6689C39.5397 64.6006 39.3688 64.5664 39.167 64.5664C38.9554 64.5664 38.7682 64.6087 38.6055 64.6934C38.446 64.778 38.3125 64.8936 38.2051 65.04C38.0977 65.1865 38.0163 65.3558 37.9609 65.5479C37.9089 65.7399 37.8828 65.945 37.8828 66.1631ZM45.4609 67.9404V65.4209C45.4609 65.2321 45.4268 65.0693 45.3584 64.9326C45.29 64.7959 45.1859 64.6901 45.0459 64.6152C44.9092 64.5404 44.7367 64.5029 44.5283 64.5029C44.3363 64.5029 44.1702 64.5355 44.0303 64.6006C43.8903 64.6657 43.7812 64.7536 43.7031 64.8643C43.625 64.9749 43.5859 65.1003 43.5859 65.2402H42.4141C42.4141 65.0319 42.4645 64.8301 42.5654 64.6348C42.6663 64.4395 42.8128 64.2653 43.0049 64.1123C43.1969 63.9593 43.4264 63.8389 43.6934 63.751C43.9603 63.6631 44.2598 63.6191 44.5918 63.6191C44.9889 63.6191 45.3405 63.6859 45.6465 63.8193C45.9557 63.9528 46.1982 64.1546 46.374 64.4248C46.5531 64.6917 46.6426 65.027 46.6426 65.4307V67.7793C46.6426 68.0202 46.6589 68.2367 46.6914 68.4287C46.7272 68.6175 46.7777 68.7819 46.8428 68.9219V69H45.6367C45.5814 68.873 45.5374 68.7119 45.5049 68.5166C45.4756 68.318 45.4609 68.126 45.4609 67.9404ZM45.6318 65.7871L45.6416 66.5146H44.7969C44.5788 66.5146 44.3867 66.5358 44.2207 66.5781C44.0547 66.6172 43.9163 66.6758 43.8057 66.7539C43.695 66.832 43.612 66.9264 43.5566 67.0371C43.5013 67.1478 43.4736 67.2731 43.4736 67.4131C43.4736 67.5531 43.5062 67.6816 43.5713 67.7988C43.6364 67.9128 43.7308 68.0023 43.8545 68.0674C43.9814 68.1325 44.1344 68.165 44.3135 68.165C44.5544 68.165 44.7643 68.1162 44.9434 68.0186C45.1257 67.9176 45.2689 67.7956 45.373 67.6523C45.4772 67.5059 45.5326 67.3675 45.5391 67.2373L45.9199 67.7598C45.8809 67.8932 45.8141 68.0365 45.7197 68.1895C45.6253 68.3424 45.5016 68.4889 45.3486 68.6289C45.1989 68.7656 45.0182 68.8779 44.8066 68.9658C44.5983 69.0537 44.3574 69.0977 44.084 69.0977C43.7389 69.0977 43.4313 69.0293 43.1611 68.8926C42.891 68.7526 42.6794 68.5654 42.5264 68.3311C42.3734 68.0934 42.2969 67.8249 42.2969 67.5254C42.2969 67.2454 42.349 66.998 42.4531 66.7832C42.5605 66.5651 42.7168 66.3828 42.9219 66.2363C43.1302 66.0898 43.3841 65.9792 43.6836 65.9043C43.9831 65.8262 44.3249 65.7871 44.709 65.7871H45.6318ZM50.2949 63.7168V64.5762H47.3164V63.7168H50.2949ZM48.1758 62.4229H49.3525V67.54C49.3525 67.7028 49.3753 67.8281 49.4209 67.916C49.4697 68.0007 49.5365 68.0576 49.6211 68.0869C49.7057 68.1162 49.805 68.1309 49.9189 68.1309C50.0003 68.1309 50.0785 68.126 50.1533 68.1162C50.2282 68.1064 50.2884 68.0967 50.334 68.0869L50.3389 68.9854C50.2412 69.0146 50.1273 69.0407 49.9971 69.0635C49.8701 69.0863 49.7236 69.0977 49.5576 69.0977C49.2874 69.0977 49.0482 69.0505 48.8398 68.9561C48.6315 68.8584 48.4688 68.7005 48.3516 68.4824C48.2344 68.2643 48.1758 67.9746 48.1758 67.6133V62.4229Z" fill="white"/>
<defs>
<linearGradient id="paint0_linear_42_141" x1="-0.7625" y1="25.592" x2="56.8588" y2="29.1388" gradientUnits="userSpaceOnUse">
<stop stop-color="#4C9AFF"/>
<stop offset="0.381976" stop-color="#0065FF"/>
<stop offset="1" stop-color="#0052CC"/>
</linearGradient>
<linearGradient id="paint1_linear_42_141" x1="-4.09844" y1="65.14" x2="56.7605" y2="76.5655" gradientUnits="userSpaceOnUse">
<stop stop-color="#4C9AFF"/>
<stop offset="0.381976" stop-color="#0065FF"/>
<stop offset="1" stop-color="#0052CC"/>
</linearGradient>
</defs>
</svg>
