<svg width="30" height="30" viewBox="0 0 30 30" fill="none" xmlns="http://www.w3.org/2000/svg">
<path d="M23.8557 10.9328C23.6242 6.24529 19.7438 2.5 14.9933 2.5C10.2499 2.5 6.37551 6.24482 6.14395 10.932C2.85871 10.7815 0 13.451 0 16.8481C0 19.9888 5.32789 26.9876 5.55469 27.2838C5.64325 27.3996 5.78081 27.4678 5.92665 27.4678C6.07242 27.4678 6.21019 27.4001 6.29882 27.2842C6.44663 27.0914 8.7517 24.0652 10.3479 21.1081C12.3947 24.3601 14.4505 27.0611 14.6211 27.2838C14.7097 27.3996 14.8473 27.4678 14.9931 27.4678C15.1389 27.4678 15.2766 27.4001 15.3653 27.2842C15.5362 27.0612 17.5965 24.3585 19.6472 21.105C21.2412 24.0629 23.5447 27.0912 23.6922 27.2838C23.7808 27.3996 23.9183 27.4678 24.0642 27.4678C24.21 27.4678 24.3477 27.4001 24.4364 27.2842C24.6636 26.9876 30 19.9889 30 16.8482C29.9999 13.5205 27.2284 10.8002 23.8557 10.9328ZM23.11 14.5952C24.7626 13.8729 26.5339 15.1271 26.5339 16.85C26.5339 18.2109 25.427 19.3178 24.0664 19.3178C22.956 19.3178 22.0259 18.5732 21.7194 17.5596C22.2597 16.5433 22.7408 15.5381 23.11 14.5952ZM8.27883 17.5634C7.97059 18.575 7.0399 19.3177 5.92889 19.3177C4.57072 19.3177 3.46589 18.2108 3.46589 16.8499C3.46589 15.1204 5.24054 13.8736 6.88883 14.5965C7.25788 15.5402 7.73869 16.5463 8.27883 17.5634ZM5.92706 26.219C4.25027 23.9499 0.937477 19.0184 0.937477 16.8481C0.937477 13.945 3.40312 11.7185 6.14959 11.8672C6.20069 12.3658 6.32488 12.9161 6.50533 13.5022C4.38389 13.1383 2.52842 14.7846 2.52842 16.85C2.52842 18.7277 4.05394 20.2553 5.92889 20.2553C7.17094 20.2553 8.24449 19.5782 8.83626 18.5807C9.13935 19.1181 9.45369 19.6532 9.77347 20.1796C8.65635 22.3505 6.9759 24.8015 5.92706 26.219ZM14.9935 26.2176C13.3778 24.0373 7.0591 15.2606 7.0591 11.372C7.0591 6.99716 10.6184 3.43754 14.9932 3.43754C19.3754 3.43754 22.9404 6.99709 22.9404 11.372C22.9405 15.2597 16.611 24.0377 14.9935 26.2176ZM24.0645 26.219C23.0179 24.8026 21.3379 22.3514 20.2204 20.1798C20.5396 19.6551 20.8533 19.1219 21.1559 18.5864C21.7496 19.5817 22.8268 20.2553 24.0664 20.2553C25.944 20.2553 27.4715 18.7278 27.4715 16.85C27.4715 14.7724 25.5992 13.1408 23.4941 13.5013C23.6746 12.9158 23.7989 12.3659 23.8501 11.8676C26.6071 11.7215 29.0625 13.9572 29.0625 16.8482C29.0623 19.017 25.7438 23.9494 24.0645 26.219Z" fill="#253858"/>
<path d="M14.8999 2C9.9372 2 5.8999 6.22562 5.8999 11.4198C5.8999 13.1298 6.63261 14.9689 6.66331 15.0464C6.89996 15.6344 7.3669 16.5475 7.70361 17.0828L13.8744 26.8689C14.127 27.27 14.5007 27.5 14.8999 27.5C15.2991 27.5 15.6728 27.27 15.9254 26.8694L22.0967 17.0828C22.434 16.5475 22.9004 15.6344 23.137 15.0464C23.1677 14.9694 23.8999 13.1303 23.8999 11.4198C23.8999 6.22562 19.8626 2 14.8999 2ZM22.1608 14.6165C21.9495 15.1434 21.5149 15.9929 21.2126 16.4727L15 26.2C15.1408 25.9406 14.8782 26.3934 15 26.2L8.5 16C8.19771 15.5201 7.91484 14.7812 7.70361 14.2543C7.69461 14.2315 7.3 13 7.05615 11.4198C7.05615 6.8368 10.6212 3.5 15 3.5C19.3788 3.5 22.8411 6.8368 22.8411 11.4198C22.8411 12.9026 22.1677 14.5998 22.1608 14.6165Z" fill="#0065FF"/>
<path d="M14.9 6.43359C12.2725 6.43359 10.1353 8.67108 10.1353 11.4206C10.1353 14.17 12.2725 16.4075 14.9 16.4075C17.5274 16.4075 19.6647 14.17 19.6647 11.4206C19.6647 8.67108 17.5274 6.43359 14.9 6.43359ZM14.9 15.2993C12.857 15.2993 11.1941 13.5594 11.1941 11.4206C11.1941 9.2817 12.857 7.54181 14.9 7.54181C16.943 7.54181 18.6058 9.2817 18.6058 11.4206C18.6058 13.5594 16.943 15.2993 14.9 15.2993Z" fill="#0065FF"/>
</svg>
