<svg width="40" height="40" viewBox="0 0 40 40" fill="none" xmlns="http://www.w3.org/2000/svg">
<g clip-path="url(#clip0_1802_3076)">
<path d="M23.5556 3.56053C23.5554 3.54263 23.5547 3.50547 23.5284 3.46512C23.5023 3.42528 23.4661 3.40744 23.4517 3.40162C23.3763 3.37111 23.3034 3.40031 23.2645 3.44274C23.245 3.4639 23.2376 3.48128 23.2316 3.49523C23.2494 3.44973 23.3151 3.42549 23.3925 3.43985C23.4826 3.45658 23.5546 3.51925 23.5532 3.57987C23.5548 3.57338 23.5555 3.56687 23.5556 3.56053Z" fill="#575757"/>
<path d="M23.2316 3.49529C22.9201 4.28582 22.6088 5.07628 22.2974 5.86682C22.3361 5.7685 22.4779 5.71634 22.6451 5.74737C22.8399 5.78351 22.9955 5.91895 22.9926 6.05001L23.5528 3.57991C23.5542 3.51936 23.4822 3.45675 23.3922 3.44005C23.315 3.42573 23.2494 3.44985 23.2315 3.49527L23.2316 3.49529Z" fill="#575757"/>
<path d="M23.0594 6.38527C23.0362 6.2616 23.0129 6.13784 22.9897 6.01418C22.9673 5.89506 22.8225 5.77992 22.6453 5.74704C22.5122 5.7224 22.3952 5.75042 22.3334 5.8124C22.2446 5.9016 22.1556 5.99086 22.0668 6.08006C22.1602 5.98634 22.3372 5.94391 22.5384 5.98127C22.8066 6.03099 23.0256 6.20514 23.0595 6.38539L23.0594 6.38527Z" fill="#575757"/>
<path d="M22.6957 6.17627C25.4541 7.61397 27.9149 10.1665 29.6131 13.4034C30.4382 16.6623 31.1576 19.6606 31.6095 21.9148C34.0971 21.1536 36.7393 20.9655 38.7524 21.2557C38.6219 19.1473 37.0699 16.0607 34.3165 13.2114C31.2433 10.0308 27.1121 7.54632 22.6957 6.17637L22.6957 6.17627Z" fill="#026BA3"/>
<path d="M22.6957 6.17609C18.2566 4.88516 13.56 5.06387 9.28979 6.03794C5.83098 6.8266 1.40024 10.101 1.12962 10.3224C2.08403 10.5743 4.27387 12.5076 5.0638 13.9375C7.16648 12.1263 9.40216 10.1924 11.8487 8.06482C15.3435 6.38856 19.1918 5.73185 22.6957 6.176L22.6957 6.17609Z" fill="#00628F"/>
<path d="M22.6957 6.17614C19.1916 5.73197 15.3433 6.38868 11.8486 8.06496C9.24421 10.3306 7.02081 12.1406 5.06375 13.9377C5.0643 13.9379 5.06492 13.9383 5.06557 13.9386C8.81727 14.5907 13.5119 16.102 17.7012 18.729C18.4159 16.4007 19.3896 13.6126 20.3056 11.2714C21.3282 8.65779 22.173 6.86232 22.6958 6.17617L22.6957 6.17614Z" fill="#006FAB"/>
<path d="M22.6957 6.17583C22.173 6.86198 21.3282 8.65745 20.3056 11.271C19.3896 13.6123 18.4159 16.4004 17.7012 18.7287C22.7174 19.1044 27.7592 20.147 31.6083 21.9142C31.0656 19.3203 30.5695 16.502 29.6123 13.4028C27.9143 10.166 25.4538 7.61345 22.6957 6.17583Z" fill="#0178BA"/>
<path d="M15.992 29.6701L15.9905 29.6697C15.8368 29.6276 15.7464 29.4688 15.7885 29.3151L21.498 8.47289C21.54 8.31967 21.6977 8.22939 21.8509 8.27043L21.8524 8.27084C22.0061 8.31295 22.0966 8.4717 22.0545 8.6253L16.345 29.4675C16.303 29.6208 16.1452 29.7111 15.992 29.6701Z" fill="#DEDEDE"/>
<path d="M13.3765 31.3286C12.9009 31.2011 12.4546 30.9398 12.1042 30.5643C11.5006 29.9175 11.3108 29.0455 11.5963 28.2314C11.6789 27.9958 11.9366 27.8705 12.1728 27.9543C12.4086 28.0369 12.5326 28.295 12.4499 28.5308C12.2108 29.2125 12.5451 29.7107 12.7656 29.947C13.1985 30.4109 13.8739 30.6169 14.446 30.4596C15.1226 30.2735 15.6182 29.6066 15.8412 28.5814C15.8452 28.5632 15.8459 28.5599 16.3026 26.8368L16.3672 26.5927C16.4312 26.3512 16.6789 26.2074 16.9203 26.2713L16.9216 26.2716C17.1623 26.3361 17.3056 26.5833 17.2416 26.8244L17.1769 27.0685C16.9647 27.8692 16.7455 28.6965 16.7234 28.7817C16.3198 30.6239 15.2739 31.1701 14.6857 31.3319C14.2581 31.4494 13.8053 31.4434 13.3764 31.3285L13.3765 31.3286Z" fill="#755238"/>
<path d="M27.5098 7.70166C28.1847 8.0522 28.3451 8.13552 29.0377 8.53425C29.7664 8.97415 29.8601 9.03064 30.3987 9.38791C31.13 9.89159 38.4172 15.6021 38.7627 21.2856C38.7183 20.5535 37.7687 19.0368 34.6733 18.0386C32.9499 13.9019 30.8547 9.9021 27.5098 7.70166Z" fill="#0085D4"/>
<path d="M23.0765 5.92922C23.5083 6.06203 23.5166 6.06456 23.7373 6.13719C24.1872 6.2885 24.2048 6.29444 24.4463 6.38129C24.939 6.56291 24.9685 6.5737 25.253 6.68635C25.8054 6.91106 25.8633 6.93448 26.2326 7.09705C26.8545 7.37979 26.9667 7.43072 27.5087 7.701L27.5098 7.70162C31.4311 10.3761 33.3131 14.1315 34.6733 18.0386C34.6731 18.0381 34.6724 18.0381 34.672 18.0379C31.4782 15.107 26.8886 13.343 22.0358 13.2472C22.6124 11.0937 23.0501 8.98336 23.2064 7.60292C23.3254 6.55281 23.2772 5.98951 23.0764 5.9292L23.0765 5.92922Z" fill="#0195E3"/>
<path d="M19.0028 5.0427C19.6759 5.14238 19.7022 5.14625 20.1156 5.21995C20.6812 5.32674 20.692 5.3288 20.997 5.39417C21.3287 5.46795 21.5783 5.52537 21.7459 5.56643C22.048 5.64265 22.2742 5.70126 22.4244 5.74226C22.7145 5.8235 22.9317 5.88578 23.076 5.92911L23.0762 5.92916C23.2771 5.98957 23.3252 6.55287 23.2062 7.60288C23.0499 8.98332 22.6122 11.0936 22.0356 13.2472C17.5839 11.0196 12.5279 9.9347 8.12879 10.0618C8.12879 10.0618 8.12869 10.0618 8.1286 10.0617C9.14828 8.00961 11.3058 6.29326 13.8996 5.47114C15.5621 4.94402 17.2988 4.80678 19.0027 5.04268L19.0028 5.0427Z" fill="#03A6FA"/>
<path d="M12.3683 4.9374C13.2796 4.81398 13.3195 4.84626 13.8771 4.8166C14.7652 4.78307 14.8378 4.78038 15.4503 4.78304C16.2781 4.79993 16.4054 4.80253 17.1215 4.84776C17.6888 4.89355 18.2245 4.93675 19.0027 5.04317C17.9491 4.89735 16.8831 4.8941 15.8299 5.03747C15.1796 5.12598 9.79401 8.4394 8.12861 10.0621C4.75448 8.53897 1.8426 9.75505 1.09973 10.3489C5.43341 6.6689 10.5515 5.18347 12.3683 4.9374Z" fill="#0195E3"/>
<path d="M16.613 35.9073L19.813 34.0493L19.81 35.1236L16.6099 36.9816L16.613 35.9073Z" fill="#D68B00"/>
<path d="M13.5642 28.9323L16.7628 27.0728C16.7673 27.1772 16.8414 29.1471 18.353 30.5603L15.1544 32.4198C13.6429 31.0066 13.5687 29.0367 13.5642 28.9323Z" fill="#D68B00"/>
<path d="M9.86639 27.2707L13.065 25.4111L16.7628 27.0724L13.5643 28.932L9.86639 27.2707Z" fill="#D68B00"/>
<g opacity="0.5">
<path d="M9.86639 27.2707L13.065 25.4111L16.7628 27.0724L13.5643 28.932L9.86639 27.2707Z" fill="#FFC909"/>
</g>
<path d="M20.913 31.559C19.8463 32.1793 18.7797 32.7981 17.7145 33.4185C17.4603 33.5668 17.0896 33.535 16.6221 33.3458L19.8206 31.4863C20.2897 31.6755 20.6604 31.7057 20.913 31.559Z" fill="#D68B00"/>
<path d="M16.6311 29.6642L19.8297 27.8047L19.8191 31.4859L16.6205 33.3454L16.6311 29.6642Z" fill="#D68B00"/>
<path d="M14.2996 21.3361C15.3663 20.7157 16.4329 20.0969 17.4981 19.4766C17.2258 19.6354 17.138 20.0107 17.1607 20.451C17.197 21.1364 17.2545 21.3996 18.3757 22.4966L15.1771 24.3561C14.0575 23.2592 13.9985 22.9959 13.9622 22.3105C13.9395 21.8702 14.0272 21.495 14.2996 21.3361Z" fill="#D68B00"/>
<path d="M16.6509 22.545L19.8509 20.687L19.8419 23.8704L16.6418 25.73L16.6509 22.545Z" fill="#D68B00"/>
<path d="M19.8418 23.8706L16.6432 25.7301C18.7872 27.6744 21.5818 29.9712 21.5712 33.7553C21.5682 35.0262 21.1612 35.8614 20.4485 36.276L23.6471 34.4165C24.3582 34.0034 24.7652 33.1682 24.7698 31.8957C24.7804 28.1132 21.9858 25.8149 19.8418 23.8706Z" fill="url(#paint0_linear_1802_3076)"/>
<path d="M11.4097 18.1654L14.6097 16.3074C15.336 15.8852 16.5252 15.9594 18.3908 16.9126L15.1923 18.7721C13.3267 17.8189 12.1374 17.7448 11.4112 18.1669L11.4097 18.1654Z" fill="#FFC909"/>
<path d="M16.6614 18.7067L19.8615 16.8472L19.8585 17.7671L16.6599 19.6266L16.6614 18.7067Z" fill="#D68B00"/>
<path d="M15.1953 17.8595L18.3939 16L19.8615 16.8473L16.6614 18.7068L15.1953 17.8595Z" fill="#FFC909"/>
<path d="M16.6418 25.7302L16.6508 22.5452C17.3499 23.4788 17.6873 24.5591 17.7039 24.6151L21.2369 26.0283C20.9509 25.125 20.3986 22.1065 16.6584 19.6266L16.6614 18.7067L15.1938 17.8594L15.1908 18.7717C11.3628 16.8139 10.3823 18.5614 10.4096 20.6993C10.458 24.3851 13.7019 27.0359 15.165 28.2781L15.1529 32.4193C13.6414 31.0061 13.5673 29.0362 13.5627 28.9318L9.86639 27.2705C10.3536 30.4887 12.0285 33.1577 15.1454 35.1065L15.1423 36.1353L16.61 36.9826L16.613 35.9084C19.5438 37.261 21.5622 36.5938 21.5697 33.7553C21.5803 29.9727 18.7857 27.6744 16.6418 25.7302ZM15.1756 24.3548C14.056 23.2579 13.997 22.9946 13.9607 22.3092C13.9213 21.5572 14.2073 20.9929 15.1832 21.3817L15.1741 24.3548H15.1756ZM16.6206 33.3453L16.6312 29.6641C17.3892 30.466 18.0353 31.3435 18.0943 32.1485C18.1881 33.4255 17.6328 33.7523 16.6206 33.3453Z" fill="url(#paint1_linear_1802_3076)"/>
<path d="M19.8585 17.7671L16.6599 19.6266C20.4001 22.1065 20.9524 25.125 21.2384 26.0283L24.4369 24.1687C24.151 23.2655 23.6002 20.247 19.8585 17.7671Z" fill="url(#paint2_linear_1802_3076)"/>
</g>
<defs>
<linearGradient id="paint0_linear_1802_3076" x1="18.2758" y1="24.9055" x2="23.3203" y2="34.5375" gradientUnits="userSpaceOnUse">
<stop stop-color="#E6A204"/>
<stop offset="0.43" stop-color="#FFC909"/>
<stop offset="0.57" stop-color="#FCC508"/>
<stop offset="0.72" stop-color="#F4B906"/>
<stop offset="0.86" stop-color="#E7A503"/>
<stop offset="1" stop-color="#D68B00"/>
</linearGradient>
<linearGradient id="paint1_linear_1802_3076" x1="18.415" y1="17.5598" x2="13.3933" y2="37.432" gradientUnits="userSpaceOnUse">
<stop stop-color="#FFE805"/>
<stop offset="1" stop-color="#FFC909"/>
</linearGradient>
<linearGradient id="paint2_linear_1802_3076" x1="15.6991" y1="15.4052" x2="23.806" y2="25.4972" gradientUnits="userSpaceOnUse">
<stop offset="0.43" stop-color="#FFC909"/>
<stop offset="0.57" stop-color="#FCC508"/>
<stop offset="0.72" stop-color="#F4B906"/>
<stop offset="0.86" stop-color="#E7A503"/>
<stop offset="1" stop-color="#D68B00"/>
</linearGradient>
<clipPath id="clip0_1802_3076">
<rect width="40" height="40" fill="white"/>
</clipPath>
</defs>
</svg>
