<svg width="48" height="48" viewBox="0 0 48 48" fill="none" xmlns="http://www.w3.org/2000/svg">
<g clip-path="url(#clip0_4819_669)">
<path fill-rule="evenodd" clip-rule="evenodd" d="M15.3501 5.51733C12.3879 8.8859 8.36665 15.2369 4.5122 24.8735C3.9385 23.4417 2.40575 21.2455 -0.000168103 20.2711C2.88836 11.8649 14.7893 5.66798 15.3501 5.51733Z" fill="#9F531A"/>
<path fill-rule="evenodd" clip-rule="evenodd" d="M15.3501 5.51733C13.5851 8.58292 14.3406 18.9225 14.3406 26.3417C12.5057 25.2577 7.93253 23.9872 4.51234 24.8735C5.84008 18.7297 8.65406 12.5802 15.3501 5.51733Z" fill="#A15E18"/>
<path fill-rule="evenodd" clip-rule="evenodd" d="M15.1562 4.79004L7.99358 13.4669C4.689 14.3548 2.31532 16.6952 0.000206046 20.2706C1.44832 12.6445 9.41969 6.33148 15.1562 4.79004Z" fill="#EDC01D"/>
<path fill-rule="evenodd" clip-rule="evenodd" d="M14.8413 3.61287C15.0407 3.55933 15.2474 3.67906 15.3008 3.87889L15.8002 5.74803C15.8536 5.948 15.7342 6.15528 15.535 6.20882C15.3356 6.26236 15.1289 6.14263 15.0755 5.9428L14.5761 4.07366C14.5227 3.87369 14.6421 3.66641 14.8413 3.61287Z" fill="#2A2F37"/>
<path fill-rule="evenodd" clip-rule="evenodd" d="M15.3503 5.51675C19.5951 6.94872 26.2442 10.4325 34.3869 16.8453C34.1699 15.3176 34.4024 12.6472 36 10.5969C29.3073 4.7655 15.9111 5.36597 15.3503 5.51675Z" fill="#9F531A"/>
<path fill-rule="evenodd" clip-rule="evenodd" d="M15.35 5.51733C18.407 7.28727 22.908 16.6203 26.6072 23.0455C27.6556 21.1868 30.9828 17.7933 34.3867 16.8459C30.1735 12.1909 24.6704 8.27644 15.35 5.51733Z" fill="#A15E18"/>
<path fill-rule="evenodd" clip-rule="evenodd" d="M15.3503 5.5168C13.1042 6.12036 12.3478 18.8827 14.3407 26.3412C17.5577 24.2264 22.8016 22.8079 26.6074 23.0451C24.8624 16.514 17.5963 4.91323 15.3503 5.5168Z" fill="#A66817"/>
<path fill-rule="evenodd" clip-rule="evenodd" d="M16.219 8.38597C16.3974 8.16258 16.6858 8.5467 16.8598 9.23976L18.4874 15.7205C18.6614 16.4136 18.658 17.1636 18.4796 17.387C18.3012 17.6103 18.0129 17.2262 17.8388 16.5332L16.2112 10.0524C16.0372 9.35933 16.0407 8.60936 16.219 8.38597Z" fill="#1C1F25"/>
<path fill-rule="evenodd" clip-rule="evenodd" d="M15.156 4.78988L25.6852 8.71282C28.9898 7.82483 32.2124 8.66153 36 10.597C30.9436 4.71877 20.8926 3.24844 15.156 4.78988Z" fill="#D57629"/>
<path fill-rule="evenodd" clip-rule="evenodd" d="M15.156 4.78878C11.9166 5.6592 8.5243 8.88331 7.99334 13.4656C13.2879 9.62557 19.1809 8.02455 25.6851 8.71172C22.9159 4.97624 18.3954 3.91836 15.156 4.78878Z" fill="#E19B23"/>
<path d="M12.07 22.7899C10.7056 22.0022 10.7058 19.4476 12.0704 17.084C13.435 14.7205 15.6472 13.443 17.0116 14.2307C18.3759 15.0184 18.3757 17.573 17.0111 19.9365C15.6465 22.3001 13.4343 23.5776 12.07 22.7899Z" fill="#FFF5EE"/>
<path d="M27.549 19.8744C27.549 19.8744 29.0333 20.0686 29.6598 21.5807C30.2841 23.0927 31.8239 27.1041 32.136 28.341C32.4481 29.5802 33.0908 33.2771 33.0631 34.7522C33.0354 36.2272 32.4481 37.2861 31.521 36.6596C31.521 36.6596 31.803 38.4468 31.336 39.2745C30.869 40.1022 30.2101 39.8617 29.9511 39.6791C29.6922 39.4964 29.4078 39.0086 29.2899 38.5092C29.2899 38.5092 29.1835 39.5727 28.3397 39.3577C27.4935 39.145 27.4102 38.2503 27.3154 37.7786C27.2206 37.307 27.1282 36.833 27.1282 36.833C27.1282 36.833 27.0912 37.9913 26.3953 37.8364C25.6993 37.6815 25.5953 36.8307 25.334 35.9937C25.0728 35.1568 24.4324 32.5303 24.1804 31.7096C23.9283 30.8865 23.6856 30.3247 23.392 30.075C23.0983 29.823 21.1979 28.9606 19.9309 27.941C18.6662 26.9214 16.301 24.4314 16.301 24.4314L15.4456 23.4233L14.4985 22.5613L13.5514 21.6992L16.6831 15.4355C16.6831 15.4355 16.4282 14.7857 17.9449 16.2422C19.2789 17.5231 21.0961 17.9346 23.0012 18.6606C24.9063 19.3866 26.4531 19.486 27.549 19.8744Z" fill="#FFD2B4"/>
<path d="M29.2925 38.5113C29.2925 38.5113 29.2925 38.4975 29.2925 38.4743C29.2925 38.4489 29.2925 38.4142 29.2902 38.368C29.2902 38.3217 29.2879 38.2663 29.2832 38.2015C29.2809 38.1368 29.2763 38.0651 29.2717 37.9865C29.267 37.9079 29.2624 37.8223 29.2555 37.7322C29.2532 37.6882 29.2486 37.642 29.2439 37.5935C29.2393 37.5472 29.237 37.4987 29.2324 37.4501C29.2231 37.353 29.2139 37.2513 29.2046 37.1495C29.1931 37.0478 29.1815 36.9438 29.1699 36.8397C29.163 36.7889 29.1584 36.7357 29.1514 36.6848C29.1445 36.634 29.1399 36.5808 29.133 36.5299C29.1191 36.4282 29.1075 36.3265 29.0936 36.2294C29.0798 36.1323 29.0659 36.0375 29.052 35.9496C29.0382 35.8618 29.0243 35.7762 29.0104 35.6999C29.0035 35.6606 28.9965 35.6236 28.9896 35.5889C28.9827 35.5543 28.9757 35.5196 28.9711 35.4895C28.9642 35.4572 28.9596 35.4294 28.9526 35.4017C28.9457 35.3739 28.9411 35.3508 28.9364 35.3277C28.9249 35.2838 28.9179 35.2491 28.911 35.226C28.9041 35.2028 28.9018 35.189 28.9018 35.189H28.8994C28.8994 35.189 28.8994 35.2028 28.9041 35.2283C28.9064 35.2537 28.911 35.2884 28.9156 35.3346C28.9202 35.3809 28.9249 35.4364 28.9318 35.4988C28.9387 35.5612 28.9457 35.6329 28.9526 35.7115C28.9688 35.8664 28.985 36.049 29.0058 36.2432C29.015 36.3403 29.0266 36.4421 29.0358 36.5438C29.0474 36.6455 29.0567 36.7496 29.0682 36.8536C29.0798 36.9577 29.0913 37.0617 29.1029 37.1634C29.1145 37.2651 29.126 37.3669 29.1376 37.464C29.1491 37.5611 29.1607 37.6559 29.1723 37.7437C29.1838 37.8339 29.1954 37.9171 29.2069 37.9957C29.2185 38.0744 29.2277 38.1437 29.2393 38.2085C29.2486 38.2709 29.2578 38.3264 29.2647 38.3726C29.2717 38.4188 29.2786 38.4535 29.2832 38.4766C29.2879 38.4998 29.2902 38.5136 29.2902 38.5136H29.2925V38.5113Z" fill="#E68A73"/>
<path d="M27.1284 36.833C27.1284 36.833 27.1284 36.8099 27.1284 36.766C27.1284 36.7221 27.1284 36.6596 27.1284 36.5787C27.1284 36.5394 27.1284 36.4932 27.1284 36.4446C27.1284 36.3961 27.1284 36.3429 27.1261 36.2874C27.1261 36.2319 27.1238 36.1718 27.1215 36.1094C27.1192 36.0469 27.1169 35.9799 27.1122 35.9105C27.1053 35.7718 27.0961 35.6215 27.0822 35.4643C27.0752 35.3857 27.0683 35.3048 27.0591 35.2216C27.0591 35.2008 27.0544 35.1799 27.0521 35.1591C27.0498 35.1383 27.0475 35.1175 27.0452 35.0967C27.0406 35.0551 27.0336 35.0112 27.029 34.9672C27.0059 34.7938 26.9781 34.6158 26.9411 34.4355C26.9365 34.4124 26.9319 34.3892 26.9273 34.3684C26.9227 34.3453 26.918 34.3245 26.9134 34.3014C26.9042 34.2575 26.8949 34.2135 26.8833 34.1696C26.8648 34.0817 26.844 33.9916 26.8255 33.9037C26.807 33.8159 26.7862 33.7257 26.7677 33.6378C26.7492 33.55 26.7308 33.4621 26.7146 33.3743C26.6799 33.2009 26.6475 33.0275 26.6221 32.861C26.6152 32.8194 26.6082 32.7778 26.6036 32.7361C26.5967 32.6945 26.592 32.6552 26.5851 32.6136C26.5735 32.5327 26.5643 32.4541 26.555 32.3755C26.5504 32.3362 26.5458 32.2992 26.5412 32.2599C26.5365 32.2229 26.5319 32.1859 26.5296 32.1489C26.5227 32.0749 26.5157 32.0032 26.5088 31.9362C26.4949 31.7998 26.4834 31.6726 26.4695 31.5616C26.4579 31.4507 26.4441 31.3536 26.4348 31.2726C26.4256 31.1917 26.4163 31.1293 26.4094 31.0877C26.4024 31.0461 26.4001 31.0229 26.4001 31.0229H26.3978C26.3978 31.0229 26.3978 31.0461 26.3978 31.09C26.3978 31.1339 26.3978 31.1964 26.3978 31.2773C26.3978 31.3582 26.3978 31.4553 26.4001 31.5663C26.4001 31.6772 26.4024 31.8044 26.4071 31.9408C26.4071 32.0772 26.414 32.2298 26.4233 32.3893C26.4279 32.468 26.4348 32.5512 26.4418 32.6344C26.4464 32.676 26.4487 32.7177 26.4533 32.7616C26.4579 32.8032 26.4626 32.8471 26.4672 32.8911C26.488 33.0645 26.5157 33.2425 26.5458 33.4228C26.562 33.513 26.5782 33.6032 26.5967 33.6933C26.6059 33.7396 26.6152 33.7835 26.6244 33.8274C26.6336 33.8713 26.6429 33.9176 26.6521 33.9615C26.6891 34.1395 26.7331 34.3199 26.7701 34.491C26.8094 34.6621 26.8394 34.8331 26.8672 34.9996C26.8741 35.0412 26.881 35.0828 26.888 35.1245C26.8903 35.1453 26.8949 35.1661 26.8972 35.1869C26.8995 35.2077 26.9042 35.2285 26.9065 35.247C26.918 35.3279 26.9319 35.4065 26.9411 35.4851C26.9458 35.5244 26.9527 35.5614 26.9573 35.6007C26.962 35.6377 26.9666 35.6747 26.9735 35.7117C26.9851 35.7857 26.9943 35.855 27.0013 35.9244C27.0105 35.9915 27.0198 36.0585 27.0267 36.1186C27.0359 36.181 27.0429 36.2388 27.0498 36.2943C27.0637 36.4053 27.0776 36.5024 27.0868 36.581C27.096 36.6619 27.1053 36.7244 27.1099 36.766C27.1145 36.8099 27.1192 36.8307 27.1192 36.8307H27.1215L27.1284 36.833Z" fill="#E68A73"/>
<path d="M29.9619 31.0579C29.9619 31.0579 29.9619 31.0371 29.9573 31.0001C29.955 30.9631 29.9504 30.9076 29.9411 30.836C29.9272 30.6949 29.8995 30.4961 29.8602 30.258C29.8509 30.1979 29.8394 30.1377 29.8278 30.073C29.8163 30.0083 29.8047 29.9435 29.7908 29.8765C29.7793 29.8094 29.7631 29.7401 29.7492 29.6684C29.7353 29.5967 29.7192 29.5251 29.703 29.4534C29.6868 29.3794 29.6706 29.3054 29.6521 29.2314C29.6475 29.2129 29.6429 29.1921 29.6382 29.1736C29.6336 29.1551 29.629 29.1366 29.6244 29.1181C29.6197 29.0996 29.6151 29.0811 29.6105 29.0627C29.6059 29.0442 29.6012 29.0233 29.5943 29.0049C29.5851 28.9655 29.5735 28.9262 29.5642 28.8893C29.5527 28.8499 29.5434 28.813 29.5319 28.7737C29.5088 28.6974 29.4856 28.6211 29.4625 28.5448C29.4394 28.4685 29.414 28.3945 29.3885 28.3205C29.3747 28.2835 29.3631 28.2465 29.3492 28.2095C29.3354 28.1725 29.3215 28.1355 29.3099 28.1009C29.2568 27.9552 29.2013 27.8142 29.1458 27.6801C29.118 27.613 29.0903 27.546 29.0625 27.4812C29.0348 27.4165 29.0071 27.3541 28.9816 27.294C28.9539 27.2339 28.9284 27.1737 28.903 27.1183C28.8776 27.0628 28.8522 27.0073 28.8267 26.9541C28.7782 26.8501 28.7319 26.7553 28.6926 26.672C28.6533 26.5888 28.6163 26.5148 28.5886 26.4547C28.5608 26.3946 28.5377 26.346 28.5238 26.3137C28.5169 26.2975 28.5123 26.2836 28.51 26.2744C28.5077 26.2651 28.5053 26.2605 28.5053 26.2605H28.503C28.503 26.2605 28.503 26.2674 28.503 26.2767C28.503 26.2859 28.5077 26.2998 28.51 26.3183C28.5192 26.3553 28.5308 26.4085 28.5516 26.4755C28.5724 26.5426 28.5978 26.6235 28.6279 26.7137C28.6579 26.8038 28.6926 26.9079 28.7319 27.0188C28.7504 27.0743 28.7712 27.1321 28.792 27.1922C28.8128 27.2523 28.836 27.3125 28.8568 27.3772C28.9007 27.502 28.9493 27.6361 28.9978 27.7726C29.0464 27.909 29.0972 28.0523 29.1458 28.1956C29.1712 28.2673 29.1943 28.3413 29.2198 28.413C29.2452 28.487 29.2683 28.5609 29.2914 28.6326C29.3146 28.7066 29.3377 28.7806 29.3608 28.8546C29.3724 28.8916 29.3839 28.9286 29.3955 28.9655C29.407 29.0025 29.4163 29.0395 29.4278 29.0742C29.4325 29.0927 29.4371 29.1112 29.444 29.1297C29.4486 29.1482 29.4533 29.1667 29.4602 29.1852C29.4648 29.2037 29.4695 29.2222 29.4764 29.2407C29.481 29.2592 29.4856 29.2777 29.4903 29.2939C29.5111 29.3678 29.5296 29.4395 29.5481 29.5112C29.5851 29.6545 29.622 29.7932 29.659 29.9227C29.6937 30.0545 29.7261 30.177 29.7561 30.2926C29.7862 30.4082 29.8139 30.5123 29.8394 30.6048C29.8625 30.6972 29.8856 30.7805 29.9018 30.8475C29.918 30.9146 29.9319 30.9677 29.9411 31.0047C29.9504 31.0417 29.955 31.0602 29.955 31.0602H29.9573L29.9619 31.0579Z" fill="#E68A73"/>
<path d="M27.6037 32.3794C27.6037 32.3794 27.2697 30.9933 24.0952 29.1761C20.9207 27.3588 19.9012 26.0335 18.7973 24.2673C17.6935 22.5012 25.0444 23.2326 25.5823 23.6094C26.1166 23.9863 27.9377 25.5831 28.7462 26.7488C29.5513 27.9146 30.5708 30.5206 30.5708 30.5206L27.6037 32.3794Z" fill="#E7A376"/>
<path fill-rule="evenodd" clip-rule="evenodd" d="M48.0002 35.4504L37.3018 41.6272V44.5217L48.0002 38.3453V35.4504Z" fill="#79D37C"/>
<path fill-rule="evenodd" clip-rule="evenodd" d="M37.3118 41.6319L18.771 30.9275V33.822L37.3118 44.5264V41.6319Z" fill="#259828"/>
<path fill-rule="evenodd" clip-rule="evenodd" d="M29.4698 24.7529L48.0002 35.4517L37.3018 41.6285L18.771 30.9297L29.4698 24.7529Z" fill="#AADAAC"/>
<path fill-rule="evenodd" clip-rule="evenodd" d="M29.3932 25.3723L46.9311 35.4979L37.3788 41.0127L19.8408 30.8871L29.3932 25.3723Z" fill="#259828"/>
<path fill-rule="evenodd" clip-rule="evenodd" d="M36.937 31.1417C35.2412 30.1627 32.2762 30.2865 30.3153 31.4192C29.3736 31.9629 28.7936 32.6712 28.7038 33.3884C28.6135 34.1052 29.0208 34.7724 29.8349 35.2427C31.5307 36.2217 34.4957 36.0975 36.4566 34.9652C38.418 33.8329 38.6328 32.1211 36.937 31.1421V31.1417Z" fill="#EAF2EA"/>
<path d="M39.1543 36.5248C38.4729 36.9182 37.5693 37.0346 37.1359 36.7843C36.9278 36.6642 36.8584 36.474 36.9427 36.2555C37.027 36.0369 37.2582 35.8079 37.5857 35.6192C37.9131 35.4301 38.3096 35.2966 38.6881 35.2481C39.0667 35.1997 39.396 35.2396 39.6041 35.3597C40.0371 35.6095 39.8357 36.1313 39.1543 36.5248Z" fill="#EAF2EA"/>
<path d="M29.1856 30.7682C28.8581 30.9573 28.4617 31.0908 28.0831 31.1393C27.7046 31.1878 27.3753 31.1479 27.1672 31.0278C26.7342 30.7779 26.9356 30.2561 27.6169 29.8627C28.2983 29.4692 29.202 29.3529 29.6354 29.6031C29.8435 29.7232 29.9128 29.9134 29.8285 30.132C29.7443 30.3505 29.513 30.5795 29.1856 30.7682Z" fill="#EAF2EA"/>
<path fill-rule="evenodd" clip-rule="evenodd" d="M31.4546 27.0967L31.082 26.8816L30.8444 27.0188L27.6568 27.1508L27.3846 26.9938L26.9009 27.2732L27.2589 27.4798L31.0641 27.322L31.4542 27.0967H31.4546ZM30.997 26.8323L29.3306 25.8701L27.489 26.9334L27.7441 27.0807L30.7852 26.9547L30.997 26.8323Z" fill="#EAF2EA"/>
<path fill-rule="evenodd" clip-rule="evenodd" d="M22.828 32.0784L22.4555 31.8632L22.693 31.7259L22.922 29.8858L22.6498 29.7288L23.1335 29.4495L23.4915 29.6561L23.2182 31.8531L22.828 32.0784ZM22.3704 31.814L20.7041 30.8518L22.5457 29.7885L22.8008 29.9358L22.5826 31.6916L22.3708 31.814H22.3704Z" fill="#EAF2EA"/>
<path fill-rule="evenodd" clip-rule="evenodd" d="M43.9433 34.3064L44.3158 34.5216L44.0783 34.6588L43.8493 36.499L44.1215 36.656L43.6378 36.9353L43.2798 36.7287L43.5532 34.5317L43.9433 34.3064ZM44.4009 34.5708L46.0672 35.533L44.2256 36.5963L43.9705 36.449L44.1887 34.6931L44.4005 34.5708H44.4009Z" fill="#EAF2EA"/>
<path fill-rule="evenodd" clip-rule="evenodd" d="M35.3174 39.2873L35.69 39.5025L35.9275 39.3653L39.1151 39.2332L39.3874 39.3903L39.8711 39.1109L39.5131 38.9043L35.7079 39.0621L35.3178 39.2873H35.3174ZM35.775 39.5517L37.4413 40.5139L39.283 39.4507L39.0279 39.3034L35.9868 39.4294L35.775 39.5517Z" fill="#EAF2EA"/>
<path fill-rule="evenodd" clip-rule="evenodd" d="M35.3254 32.7451C35.2426 32.8454 35.1673 32.9226 35.0368 33.0125L35.7335 33.4149L34.8906 33.6029L34.4669 33.3582C33.7415 33.7054 33.0896 33.7688 32.3594 33.3474L32.3471 33.3403L31.9592 35.1163L31.0757 34.6061L31.4576 32.8268L32.1005 32.4557L32.8845 32.9084C33.0628 33.0114 33.2205 33.0666 33.3574 33.0737C33.5021 33.0811 33.6546 33.0505 33.8146 32.9823L32.5018 32.2245L33.3152 32.0193L34.399 32.6451C34.5255 32.553 34.5493 32.484 34.5329 32.4027C34.5243 32.3214 34.4285 32.2282 34.2461 32.123L33.4622 31.6703L34.2793 31.4629L36.7635 32.8973L35.8513 33.0498L35.3262 32.7466L35.3254 32.7451Z" fill="#259828"/>
<path fill-rule="evenodd" clip-rule="evenodd" d="M23.7632 33.8101L26.0102 35.1076V38.002L23.7632 36.7049V33.8101Z" fill="#B1D5DD"/>
<path fill-rule="evenodd" clip-rule="evenodd" d="M36.7113 28.9328L34.4587 27.6323L23.7603 33.8091L26.0125 35.1096L36.7113 28.9328Z" fill="white"/>
<path d="M22.5067 19.8037C22.5067 19.8037 24.8904 21.318 25.614 22.3284C26.3377 23.341 26.9041 25.6854 27.6879 27.1212C28.4717 28.5569 30.682 31.4978 31.1189 32.596C31.5559 33.6942 31.3293 35.8305 29.6231 35.5785C27.9168 35.3265 26.2707 32.6399 25.8291 31.2065C25.3875 29.773 24.0257 28.2448 23.5032 27.9835C22.9807 27.7223 22.7587 27.4842 20.9184 26.4461C19.0757 25.408 17.9058 24.2496 17.5914 22.1596C17.2746 20.0695 19.6236 18.2708 22.509 19.8037H22.5067Z" fill="#FFD2B4"/>
<path d="M30.2426 31.9265C30.2426 31.9265 31.0841 33.4085 31.1882 33.8408C31.2922 34.2732 31.0009 35.2789 30.2125 35.2858C29.4241 35.2928 29.2646 35.0292 29.008 34.6015C28.7513 34.1738 28.4646 33.8501 28.3976 33.323C28.3305 32.7958 28.9201 31.4479 30.2426 31.9265Z" fill="#FFF5EE"/>
<path d="M13.1812 22.2395C12.0898 21.6093 12.0898 19.566 13.1812 17.6756C14.2727 15.7852 16.0422 14.7636 17.1336 15.3937C18.2251 16.0238 18.2251 18.0671 17.1337 19.9575C16.0422 21.848 14.2727 22.8696 13.1812 22.2395Z" fill="#FFD2B4"/>
</g>
<defs>
<clipPath id="clip0_4819_669">
<rect width="48" height="48" fill="white"/>
</clipPath>
</defs>
</svg>
