<svg width="40" height="40" viewBox="0 0 40 40" fill="none" xmlns="http://www.w3.org/2000/svg">
<path d="M22.8365 26.0814V27.2661L8.42131 35.6385L7.24972 34.9672C6.08089 34.2914 5.14268 32.6614 5.14268 31.3177L5.19834 11.7185C5.19834 11.6071 5.19038 11.4958 5.15859 11.3845L3.02773 12.6248L2.00201 12.0285L2.00997 9.87381C2.00997 9.1582 2.28033 8.6732 2.70171 8.47442C2.66992 8.48238 2.64609 8.49825 2.62222 8.51417L17.0295 0.141767C17.4191 -0.0808846 17.9438 -0.0490981 18.5322 0.292838C19.701 0.960697 20.6392 2.59861 20.6392 3.93437L20.5836 23.5416C20.5756 24.2254 21.0606 25.0602 21.657 25.4021L22.8365 26.0814Z" fill="#E9E7FC"/>
<path d="M22.8365 26.0814V27.2661L8.42131 35.6385L7.24972 34.9672C6.08089 34.2914 5.14268 32.6614 5.14268 31.3177L5.19834 11.7185C5.19834 11.6071 5.19038 11.4958 5.15859 11.3845L3.02773 12.6248L2.00201 12.0285L2.00997 9.87381C2.00997 9.1582 2.28033 8.6732 2.70171 8.47442C2.66992 8.48238 2.64609 8.49825 2.62222 8.51417L17.0295 0.141767C17.4191 -0.0808846 17.9438 -0.0490981 18.5322 0.292838C19.701 0.960697 20.6392 2.59861 20.6392 3.93437L20.5836 23.5416C20.5756 24.2254 21.0606 25.0602 21.657 25.4021L22.8365 26.0814Z" fill="#E9E7FC"/>
<path d="M8.42706 34.4585L22.8364 26.0845L22.833 27.268L8.42371 35.642L8.42706 34.4585Z" fill="url(#paint0_linear_1733_739)"/>
<path d="M17.7615 1.39551C17.5658 1.50788 17.4462 1.75076 17.4462 2.09152L17.4389 4.25207L3.02936 12.6231L3.03662 10.4662C3.03662 10.1218 3.15623 9.8825 3.35199 9.77012L17.7615 1.39551Z" fill="url(#paint1_linear_1733_739)"/>
<path d="M4.12381 8.66381C5.28802 9.33597 6.23154 10.9702 6.22775 12.308L6.17216 31.9139C6.17022 32.6001 6.65469 33.4365 7.24951 33.78L8.42708 34.458L8.42372 35.6415L7.24615 34.9635C6.0843 34.2927 5.14075 32.6584 5.14454 31.3206L5.20012 11.7147C5.20207 11.0285 4.71761 10.1894 4.12046 9.84464C3.52335 9.49989 3.03801 9.77909 3.03607 10.4652L3.02995 12.6248L2 12.0301L2.00612 9.87061C2.00991 8.53287 2.95963 7.99167 4.12381 8.66381Z" fill="url(#paint2_linear_1733_739)"/>
<path d="M22.8346 26.084L8.42871 34.4586L7.24895 33.7791C6.65443 33.4347 6.16868 32.6009 6.17231 31.9122L6.22665 12.3078C6.23028 10.9701 5.28777 9.33521 4.12414 8.66458C3.53688 8.32382 3.00763 8.29482 2.62335 8.51596L17.0329 0.144954C17.4171 -0.079799 17.9464 -0.0471637 18.5337 0.289965C19.6973 0.960595 20.6398 2.59551 20.6363 3.93316L20.5818 23.5412C20.5782 24.2263 21.064 25.0637 21.6585 25.4044L22.8346 26.084Z" fill="url(#paint3_linear_1733_739)"/>
<path d="M8.10999 16.2929V17.7376L18.2933 11.6278V10.1831L8.10999 16.2929Z" fill="#F3F5FB"/>
<path d="M8.10999 20.3666V21.8113L18.2933 15.7015V14.2568L8.10999 20.3666Z" fill="#F3F5FB"/>
<path d="M8.10999 24.4399V25.8845L18.2933 19.7747V18.3301L8.10999 24.4399Z" fill="#F3F5FB"/>
<path d="M8.10999 28.5131V29.9578L18.2933 23.848V22.4033L8.10999 28.5131Z" fill="#F3F5FB"/>
<path d="M8.10999 12.1613V13.7476L16.2566 8.71472V7.12842L8.10999 12.1613Z" fill="#F3F5FB"/>
<path d="M31.2667 13.5957L26.0323 15.9427L30.4256 24.4673L36.5033 33.1119V21.9881L31.2667 13.5957Z" fill="url(#paint4_linear_1733_739)"/>
<path d="M24.52 28.8761L36.5032 22.0205V33.1444L24.52 40.0001V28.8761Z" fill="url(#paint5_linear_1733_739)"/>
<path d="M19.2836 20.4834L14.0492 22.8304V33.9543L24.5202 39.9996V28.8758L19.2836 20.4834Z" fill="url(#paint6_linear_1733_739)"/>
<path d="M19.2847 22.6646L14.0492 25.256V22.8309L20.211 19.7324L19.2847 22.6646Z" fill="url(#paint7_linear_1733_739)"/>
<path d="M36.5032 24.1884L24.4915 31.1233L23.8012 29.2269L36.5032 21.7212V24.1884Z" fill="url(#paint8_linear_1733_739)"/>
<path d="M31.903 12.2202L20.4054 18.4182L18.1708 20.1216L13.0774 22.6645C12.9557 22.7252 12.8789 22.8495 12.8789 22.9855C12.8789 23.2466 13.1489 23.4202 13.3865 23.3118L17.9951 21.179L23.1156 29.4761L23.1158 29.4756L23.1751 29.56C23.5768 30.1308 24.3443 30.3035 24.9517 29.9636L25.1504 29.8499L25.1537 29.848L37.0816 23.0218C37.2835 22.9052 37.4019 22.7026 37.4229 22.4878L37.4285 21.4396L31.903 12.2202Z" fill="#333A75"/>
<path d="M37.2172 21.0864L21.8835 26.1439V27.4762L23.1158 29.4751L23.1751 29.5595C23.5768 30.1302 24.3441 30.3029 24.9514 29.9632L25.153 29.8478L25.1537 29.8474L37.0816 23.0212C37.2834 22.9047 37.4019 22.7021 37.4229 22.4872L37.4284 21.439L37.2172 21.0864Z" fill="#333A75"/>
<path d="M18.1709 20.1216L31.903 12.2202L37.3259 21.0511C37.5302 21.3837 37.4198 21.8194 37.0817 22.0145L24.6777 29.1132C24.2817 29.3418 23.7758 29.214 23.5358 28.8248L18.1709 20.1216Z" fill="url(#paint9_linear_1733_739)"/>
<path d="M20.4054 18.4182L26.8108 14.7829L31.9029 12.2202L18.1709 20.1216L13.0774 22.6645L20.4054 18.4182Z" fill="url(#paint10_linear_1733_739)"/>
<path d="M34.8467 27.2693L34.2634 26.9297C34.1966 26.886 34.1074 26.8872 34.0093 26.9438L27.1244 30.9136C26.9175 31.0331 26.7498 31.3535 26.7498 31.6293V34.8342C26.7498 34.9972 26.8084 35.1081 26.8989 35.147L27.3038 35.3824L27.4441 35.4645L34.8467 27.2693Z" fill="#333A75"/>
<path d="M34.5901 27.2818L27.7051 31.2515C27.4983 31.3709 27.3306 31.6914 27.3306 31.9672V35.1721C27.3306 35.4479 27.4983 35.5747 27.7051 35.4553L34.5901 31.4856C34.7969 31.3662 34.9646 31.0457 34.9646 30.7699V27.5649C34.9646 27.2891 34.7969 27.1623 34.5901 27.2818Z" fill="url(#paint11_linear_1733_739)"/>
<path d="M34.4568 27.9448V30.6543C34.4568 30.7647 34.3758 30.9022 34.3364 30.93L27.8384 34.6766V31.9672C27.8384 31.8568 27.9194 31.7193 27.9588 31.6914L34.4568 27.9448Z" fill="#121637"/>
<path opacity="0.6" d="M27.9588 31.6916C27.9194 31.7195 27.8384 31.857 27.8384 31.9674V34.6769L29.9089 33.4831L32.0945 29.3071L27.9588 31.6916Z" fill="url(#paint12_linear_1733_739)"/>
<path d="M34.0575 28.1751V30.5391C34.0575 30.6494 33.9765 30.7869 33.937 30.8148L27.8384 34.3312V34.7923L34.3364 31.0457C34.3758 31.0178 34.4568 30.8803 34.4568 30.7699V27.9448L34.0575 28.1751Z" fill="#333A75"/>
<path d="M16.4188 28.1772L16.9862 27.8469C17.0512 27.8043 17.138 27.8055 17.2334 27.8606L21.3942 30.238C21.5954 30.3542 21.7586 30.6659 21.7586 30.9342V34.052C21.7586 34.2105 21.7016 34.3184 21.6135 34.3562L21.2197 34.5852L21.0832 34.6652L16.4188 28.1772Z" fill="url(#paint13_linear_1733_739)"/>
<path d="M16.6685 28.1888L20.8293 30.5662C21.0305 30.6824 21.1936 30.9941 21.1936 31.2624V34.3802C21.1936 34.6485 21.0305 34.7719 20.8293 34.6557L16.6685 32.2783C16.4673 32.1621 16.3041 31.8504 16.3041 31.5821V28.4642C16.3041 28.1959 16.4673 28.0725 16.6685 28.1888Z" fill="#333A75"/>
<path d="M20.5824 30.9943C20.6207 31.0214 20.6996 31.1552 20.6996 31.2626V33.8984L16.9152 31.7381C16.8769 31.7109 16.7981 31.5772 16.7981 31.4698V28.834L20.5824 30.9943Z" fill="#121637"/>
<path opacity="0.6" d="M20.1611 33.5421L20.6996 33.8526V31.2624C20.6996 31.155 20.6208 31.0213 20.5825 30.9942L18.0798 29.5654L20.1611 33.5421Z" fill="url(#paint14_linear_1733_739)"/>
<path d="M17.1866 29.058V31.3577C17.1866 31.4651 17.2654 31.5988 17.3037 31.626L20.6996 33.5623V34.0108L16.9152 31.8505C16.8769 31.8234 16.7981 31.6896 16.7981 31.5822V28.834L17.1866 29.058Z" fill="url(#paint15_linear_1733_739)"/>
<path d="M30.8561 8.98002C30.8636 12.5497 28.355 16.8962 25.2477 18.6886C23.6522 19.6095 22.2085 19.6815 21.1815 19.0449L20.3744 18.575C19.3626 17.9876 18.7373 16.7408 18.7335 14.9674C18.7222 11.3977 21.2308 7.05119 24.3381 5.25497C25.9032 4.35307 27.3205 4.26971 28.3436 4.86466L29.1394 5.32697C29.1659 5.34214 29.1887 5.3535 29.2152 5.36867C30.2232 5.95603 30.8522 7.20276 30.8561 8.98002Z" fill="#FFD86A"/>
<path d="M29.2153 5.369C28.192 4.77784 26.7749 4.8612 25.2098 5.76309C22.1024 7.5593 19.5938 11.902 19.6051 15.4755C19.6089 17.249 20.2342 18.4957 21.246 19.0831L20.374 18.575C19.3623 17.9876 18.737 16.7409 18.7333 14.9674C18.7219 11.3977 21.2305 7.05119 24.3379 5.25498C25.9029 4.35308 27.3202 4.2697 28.3433 4.86465L29.2153 5.369Z" fill="#B97301"/>
<path d="M29.2015 14.5257C31.3999 10.7375 31.4034 6.6343 29.2092 5.36092C27.0151 4.08754 23.4541 6.12618 21.2557 9.91435C19.0572 13.7025 19.0537 17.8057 21.2479 19.0791C23.4421 20.3525 27.003 18.3138 29.2015 14.5257Z" fill="#F3C74A"/>
<path d="M27.8127 7.17747C27.8766 7.1406 27.9285 7.1702 27.9287 7.24405L27.9308 7.97667C27.931 8.05053 27.8794 8.1399 27.8156 8.17676L26.5542 8.90499C26.474 8.95131 26.4182 9.07539 26.4452 9.1467L26.601 9.55172C26.6176 9.5953 26.6612 9.60583 26.7104 9.57744L27.8177 8.93812C27.8816 8.90126 27.9335 8.93086 27.9337 9.00422L27.936 9.79433C27.9362 9.86769 27.8846 9.95756 27.8207 9.99442L26.6936 10.6452C26.637 10.6778 26.588 10.7533 26.5796 10.8227C26.444 11.95 25.8111 12.88 24.8278 13.6706C24.7372 13.7433 24.7044 13.8918 24.7697 13.9291L27.1565 15.2892C27.202 15.3151 27.2022 15.3999 27.157 15.4781L26.5521 16.5259C26.5295 16.565 26.4999 16.5951 26.4702 16.6123C26.4406 16.6294 26.4109 16.6335 26.3882 16.6205L22.9342 14.6522C22.9125 14.6399 22.9003 14.6126 22.9002 14.5775L22.8977 13.6961C22.8975 13.6228 22.9491 13.5329 23.0134 13.4958L24.9567 12.3738C24.9688 12.3668 24.9809 12.3579 24.9921 12.3474C25.3101 12.0486 25.5275 11.7494 25.5871 11.4483C25.6059 11.3541 25.5487 11.3062 25.4736 11.3495L23.0114 12.7711C22.9471 12.8082 22.8951 12.7781 22.8949 12.7048L22.8927 11.9147C22.8925 11.8413 22.9441 11.7519 23.0084 11.7148L25.3304 10.3742C25.4322 10.3154 25.4845 10.1447 25.4139 10.1001L25.004 9.84172C24.9819 9.82766 24.9512 9.83047 24.9198 9.84865L23.0062 10.9534C22.9419 10.9906 22.89 10.961 22.8898 10.8871L22.8877 10.1545C22.8875 10.0806 22.9391 9.99127 23.0034 9.95416L27.8127 7.17747Z" fill="#B97301"/>
<defs>
<linearGradient id="paint0_linear_1733_739" x1="26.1175" y1="25.9797" x2="25.3226" y2="36.5501" gradientUnits="userSpaceOnUse">
<stop stop-color="white"/>
<stop offset="1" stop-color="#DFE2F3"/>
</linearGradient>
<linearGradient id="paint1_linear_1733_739" x1="27.8801" y1="2.14236" x2="27.2133" y2="13.661" gradientUnits="userSpaceOnUse">
<stop stop-color="#DFE2F3"/>
<stop offset="1" stop-color="#BCC2E6"/>
</linearGradient>
<linearGradient id="paint2_linear_1733_739" x1="9.89026" y1="8.07603" x2="-1.95823" y2="32.7023" gradientUnits="userSpaceOnUse">
<stop stop-color="white"/>
<stop offset="1" stop-color="#DFE2F3"/>
</linearGradient>
<linearGradient id="paint3_linear_1733_739" x1="36.7164" y1="2.29355" x2="32.199" y2="37.1775" gradientUnits="userSpaceOnUse">
<stop stop-color="#DFE2F3"/>
<stop offset="1" stop-color="#BCC2E6"/>
</linearGradient>
<linearGradient id="paint4_linear_1733_739" x1="31.2678" y1="21.63" x2="31.2678" y2="7.78884" gradientUnits="userSpaceOnUse">
<stop stop-color="#DFDAEF"/>
<stop offset="1" stop-color="white"/>
</linearGradient>
<linearGradient id="paint5_linear_1733_739" x1="44.7337" y1="23.2165" x2="42.6515" y2="41.4867" gradientUnits="userSpaceOnUse">
<stop stop-color="#DFE2F3"/>
<stop offset="1" stop-color="#BCC2E6"/>
</linearGradient>
<linearGradient id="paint6_linear_1733_739" x1="26.904" y1="20.2694" x2="22.5119" y2="41.0478" gradientUnits="userSpaceOnUse">
<stop stop-color="white"/>
<stop offset="1" stop-color="#DFE2F3"/>
</linearGradient>
<linearGradient id="paint7_linear_1733_739" x1="15.762" y1="25.0646" x2="14.8446" y2="22.3123" gradientUnits="userSpaceOnUse">
<stop stop-color="#F5F6FB"/>
<stop offset="1" stop-color="#BCC2E6"/>
</linearGradient>
<linearGradient id="paint8_linear_1733_739" x1="29.7417" y1="25.1135" x2="31.1898" y2="27.6218" gradientUnits="userSpaceOnUse">
<stop stop-color="#7662BD"/>
<stop offset="1" stop-color="#7662BD" stop-opacity="0"/>
</linearGradient>
<linearGradient id="paint9_linear_1733_739" x1="40.2206" y1="13.72" x2="38.6967" y2="29.0573" gradientUnits="userSpaceOnUse">
<stop stop-color="#628FC4"/>
<stop offset="1" stop-color="#414791"/>
</linearGradient>
<linearGradient id="paint10_linear_1733_739" x1="34.6324" y1="13.1413" x2="34.0409" y2="22.6167" gradientUnits="userSpaceOnUse">
<stop stop-color="#628FC4"/>
<stop offset="1" stop-color="#414791"/>
</linearGradient>
<linearGradient id="paint11_linear_1733_739" x1="36.0715" y1="27.9656" x2="35.1683" y2="35.3816" gradientUnits="userSpaceOnUse">
<stop stop-color="#628FC4"/>
<stop offset="1" stop-color="#414791"/>
</linearGradient>
<linearGradient id="paint12_linear_1733_739" x1="32.8743" y1="33.6708" x2="28.9546" y2="31.4078" gradientUnits="userSpaceOnUse">
<stop offset="0.0319" stop-color="white"/>
<stop offset="1" stop-color="white" stop-opacity="0"/>
</linearGradient>
<linearGradient id="paint13_linear_1733_739" x1="22.5327" y1="28.4208" x2="21.6511" y2="34.5308" gradientUnits="userSpaceOnUse">
<stop stop-color="#628FC4"/>
<stop offset="1" stop-color="#414791"/>
</linearGradient>
<linearGradient id="paint14_linear_1733_739" x1="16.6585" y1="33.3939" x2="20.2741" y2="31.1635" gradientUnits="userSpaceOnUse">
<stop offset="0.0319" stop-color="white"/>
<stop offset="1" stop-color="white" stop-opacity="0"/>
</linearGradient>
<linearGradient id="paint15_linear_1733_739" x1="21.2652" y1="29.2905" x2="20.5766" y2="33.9026" gradientUnits="userSpaceOnUse">
<stop stop-color="#628FC4"/>
<stop offset="1" stop-color="#414791"/>
</linearGradient>
</defs>
</svg>
