<svg width="24" height="24" viewBox="0 0 24 24" fill="none" xmlns="http://www.w3.org/2000/svg">
<path d="M14.6668 23.8323H8.75779V15.8323C8.74782 15.5144 8.86452 15.2055 9.08222 14.9735C9.29993 14.7416 9.60084 14.6055 9.9188 14.5953H13.5048C13.8228 14.6055 14.1236 14.7416 14.3413 14.9735C14.5591 15.2055 14.6758 15.5144 14.6658 15.8323L14.6668 23.8323Z" fill="#5BD8EC"/>
<path d="M14.6668 23.8323H8.75779V15.8323C8.74782 15.5144 8.86452 15.2055 9.08222 14.9735C9.29993 14.7416 9.60084 14.6055 9.9188 14.5953H13.5048C13.8228 14.6055 14.1236 14.7416 14.3413 14.9735C14.5591 15.2055 14.6758 15.5144 14.6658 15.8323L14.6668 23.8323ZM9.48579 23.1033H13.9338V15.8293C13.9429 15.7048 13.9028 15.5816 13.822 15.4864C13.7412 15.3912 13.6262 15.3316 13.5018 15.3203H9.91578C9.7914 15.3316 9.6764 15.3912 9.59559 15.4864C9.51478 15.5816 9.47464 15.7048 9.48381 15.8293L9.48579 23.1033Z" fill="#253858"/>
<path d="M10.3368 3.8004H5.90775L5.88977 2.26441C5.70821 2.2708 5.53128 2.20634 5.39636 2.08467C5.26145 1.96301 5.17909 1.79365 5.16675 1.6124V0.652392C5.17909 0.471317 5.2613 0.302123 5.396 0.180483C5.5307 0.0588432 5.70737 -0.00572521 5.88876 0.00039903H10.3538C10.5352 -0.00572521 10.7118 0.0588432 10.8465 0.180483C10.9812 0.302123 11.0634 0.471317 11.0757 0.652392V1.6124C11.0634 1.79347 10.9812 1.96268 10.8465 2.08432C10.7118 2.20596 10.5352 2.27053 10.3538 2.26441H10.3358L10.3368 3.8004ZM6.63675 3.0714H9.60876V1.5354H10.3498V0.728396H5.90176V1.5284H6.64175L6.63675 3.0714Z" fill="#253858"/>
<path d="M19.8268 23.8554H3.81976C3.41723 23.8705 3.02507 23.7258 2.72885 23.4529C2.43264 23.1799 2.25645 22.8008 2.23877 22.3984V12.0264H21.4098V22.3984C21.3921 22.8012 21.2157 23.1806 20.919 23.4536C20.6224 23.7266 20.2297 23.8711 19.8268 23.8554ZM2.96176 12.7554V22.3964C2.97987 22.6057 3.07959 22.7995 3.23938 22.9359C3.39917 23.0723 3.60621 23.1403 3.81577 23.1254H19.8278C20.0373 23.1403 20.2444 23.0723 20.4041 22.9359C20.5639 22.7995 20.6637 22.6057 20.6818 22.3964V12.7554H2.96176Z" fill="#253858"/>
<path d="M6.63785 18.1214H4.78784C4.69942 18.1298 4.61023 18.1206 4.52536 18.0944C4.44049 18.0682 4.36161 18.0255 4.2933 17.9687C4.225 17.9119 4.16862 17.8422 4.12735 17.7636C4.08608 17.6849 4.06076 17.5989 4.05286 17.5104V15.4104C4.06076 15.3219 4.08608 15.2359 4.12735 15.1572C4.16862 15.0786 4.225 15.0089 4.2933 14.9521C4.36161 14.8953 4.44049 14.8526 4.52536 14.8264C4.61023 14.8002 4.69942 14.791 4.78784 14.7994H6.63785C6.72619 14.7911 6.8153 14.8004 6.90005 14.8267C6.98481 14.853 7.06355 14.8957 7.13174 14.9525C7.19994 15.0092 7.25625 15.0789 7.29745 15.1575C7.33866 15.2361 7.36395 15.322 7.37186 15.4104V17.5104C7.36395 17.5988 7.33866 17.6847 7.29745 17.7633C7.25625 17.8419 7.19994 17.9116 7.13174 17.9683C7.06355 18.0251 6.98481 18.0679 6.90005 18.0941C6.8153 18.1204 6.72619 18.1297 6.63785 18.1214ZM4.78186 17.3924H6.64386V15.5314H4.78186V17.3924Z" fill="#253858"/>
<path d="M18.8518 18.1214H17.0018C16.9135 18.1297 16.8244 18.1204 16.7396 18.0941C16.6549 18.0679 16.5761 18.0251 16.5079 17.9683C16.4397 17.9116 16.3834 17.8419 16.3422 17.7633C16.301 17.6847 16.2757 17.5988 16.2678 17.5104V15.4104C16.2757 15.322 16.301 15.2361 16.3422 15.1575C16.3834 15.0789 16.4397 15.0092 16.5079 14.9525C16.5761 14.8957 16.6549 14.853 16.7396 14.8267C16.8244 14.8004 16.9135 14.7911 17.0018 14.7994H18.8518C18.9403 14.791 19.0295 14.8002 19.1143 14.8264C19.1992 14.8526 19.2781 14.8953 19.3464 14.9521C19.4147 15.0089 19.4711 15.0786 19.5124 15.1572C19.5536 15.2359 19.5789 15.3219 19.5868 15.4104V17.5104C19.5789 17.5989 19.5536 17.6849 19.5124 17.7636C19.4711 17.8422 19.4147 17.9119 19.3464 17.9687C19.2781 18.0255 19.1992 18.0682 19.1143 18.0944C19.0295 18.1206 18.9403 18.1298 18.8518 18.1214ZM16.9958 17.3924H18.8578V15.5314H16.9958V17.3924Z" fill="#253858"/>
<path d="M22.1608 12.7103H1.48682C1.22898 12.7112 0.975269 12.6456 0.750183 12.5198C0.525097 12.394 0.336232 12.2124 0.201813 11.9923C0.0697472 11.7726 0 11.5212 0 11.2648C0 11.0085 0.0697472 10.757 0.201813 10.5373L4.23184 3.81933C4.36617 3.59945 4.55486 3.41788 4.77975 3.29212C5.00465 3.16636 5.25817 3.10065 5.51584 3.10133H18.1388C18.3967 3.10047 18.6504 3.1661 18.8755 3.29186C19.1005 3.41763 19.2894 3.5993 19.4238 3.81933L23.4538 10.5373C23.586 10.7572 23.6558 11.0088 23.6558 11.2653C23.6558 11.5218 23.586 11.7735 23.4538 11.9933C23.3187 12.2142 23.1287 12.3963 22.9023 12.522C22.6758 12.6476 22.4208 12.7125 22.1618 12.7103H22.1608ZM5.51083 3.83033C5.37881 3.82916 5.2487 3.86204 5.13309 3.9258C5.01748 3.98957 4.92028 4.08204 4.85083 4.19433L0.822815 10.9083C0.758737 11.0151 0.724915 11.1373 0.724915 11.2618C0.724915 11.3864 0.758737 11.5086 0.822815 11.6153C0.892333 11.7276 0.989571 11.82 1.10516 11.8837C1.22076 11.9475 1.35082 11.9804 1.48282 11.9793H22.1578C22.29 11.9805 22.4202 11.9476 22.536 11.8839C22.6517 11.8201 22.7491 11.7276 22.8188 11.6153C22.8829 11.5086 22.9167 11.3864 22.9167 11.2618C22.9167 11.1373 22.8829 11.0151 22.8188 10.9083L18.7878 4.19033C18.7184 4.07805 18.6212 3.98555 18.5056 3.92179C18.3899 3.85803 18.2599 3.82516 18.1278 3.82633L5.51083 3.83033Z" fill="#253858"/>
<mask id="mask0_3758_2547" style="mask-type:luminance" maskUnits="userSpaceOnUse" x="0" y="3" width="24" height="10">
<path d="M1.48685 12.3424C1.29193 12.3438 1.09998 12.2946 0.929657 12.1998C0.759338 12.105 0.616459 11.9678 0.514862 11.8014C0.416421 11.6383 0.36438 11.4515 0.36438 11.2609C0.36438 11.0704 0.416421 10.8835 0.514862 10.7204L4.54486 4.00245C4.64653 3.83616 4.78944 3.69897 4.95975 3.60418C5.13005 3.50939 5.32195 3.46023 5.51685 3.46145H18.1399C18.3347 3.46033 18.5266 3.50954 18.6969 3.60432C18.8672 3.69909 19.0101 3.83623 19.1118 4.00245L23.1408 10.7204C23.2393 10.8835 23.2913 11.0704 23.2913 11.2609C23.2913 11.4515 23.2393 11.6383 23.1408 11.8014C23.0391 11.9677 22.8962 12.1048 22.7259 12.1996C22.5556 12.2944 22.3637 12.3436 22.1689 12.3424H1.48685Z" fill="white"/>
</mask>
<g mask="url(#mask0_3758_2547)">
<mask id="mask1_3758_2547" style="mask-type:luminance" maskUnits="userSpaceOnUse" x="-4" y="-1" width="32" height="18">
<path d="M27.3048 -0.363525H-3.65515V16.0275H27.3048V-0.363525Z" fill="white"/>
</mask>
<g mask="url(#mask1_3758_2547)">
<mask id="mask2_3758_2547" style="mask-type:luminance" maskUnits="userSpaceOnUse" x="-1" y="3" width="25" height="10">
<path d="M23.6628 3.27942H-0.012207V12.3854H23.6628V3.27942Z" fill="white"/>
</mask>
<g mask="url(#mask2_3758_2547)">
<path d="M22.1618 12.7114H1.48779C1.22995 12.7123 0.976246 12.6467 0.75116 12.5209C0.526074 12.3951 0.337208 12.2135 0.202789 11.9934C0.0707238 11.7737 0.000976562 11.5222 0.000976562 11.2659C0.000976562 11.0096 0.0707238 10.7581 0.202789 10.5384L4.23282 3.82043C4.36715 3.60054 4.55584 3.41898 4.78073 3.29322C5.00563 3.16746 5.25915 3.10174 5.51682 3.10243H18.1398C18.3976 3.10157 18.6513 3.16719 18.8764 3.29296C19.1015 3.41873 19.2904 3.6004 19.4248 3.82043L23.4548 10.5384C23.587 10.7583 23.6568 11.0099 23.6568 11.2664C23.6568 11.5229 23.587 11.7746 23.4548 11.9944C23.3196 12.2153 23.1296 12.3974 22.9032 12.523C22.6768 12.6487 22.4217 12.7136 22.1628 12.7114H22.1618Z" fill="#5BD8EC"/>
<path d="M22.1618 12.7114H1.48779C1.22995 12.7123 0.976246 12.6467 0.75116 12.5209C0.526074 12.3951 0.337208 12.2135 0.202789 11.9934C0.0707238 11.7737 0.000976562 11.5222 0.000976562 11.2659C0.000976562 11.0096 0.0707238 10.7581 0.202789 10.5384L4.23282 3.82043C4.36715 3.60054 4.55584 3.41898 4.78073 3.29322C5.00563 3.16746 5.25915 3.10174 5.51682 3.10243H18.1398C18.3976 3.10157 18.6513 3.16719 18.8764 3.29296C19.1015 3.41873 19.2904 3.6004 19.4248 3.82043L23.4548 10.5384C23.587 10.7583 23.6568 11.0099 23.6568 11.2664C23.6568 11.5229 23.587 11.7746 23.4548 11.9944C23.3196 12.2153 23.1296 12.3974 22.9032 12.523C22.6768 12.6487 22.4217 12.7136 22.1628 12.7114H22.1618ZM5.51181 3.83143C5.37979 3.83026 5.24967 3.86314 5.13406 3.9269C5.01845 3.99066 4.92125 4.08314 4.85181 4.19543L0.823792 10.9094C0.759713 11.0162 0.725891 11.1384 0.725891 11.2629C0.725891 11.3875 0.759713 11.5097 0.823792 11.6164C0.89331 11.7287 0.990547 11.8211 1.10614 11.8848C1.22173 11.9486 1.35179 11.9815 1.4838 11.9804H22.1588C22.291 11.9816 22.4212 11.9487 22.537 11.885C22.6527 11.8212 22.7501 11.7287 22.8198 11.6164C22.8839 11.5097 22.9177 11.3875 22.9177 11.2629C22.9177 11.1384 22.8839 11.0162 22.8198 10.9094L18.7888 4.19143C18.7194 4.07914 18.6221 3.98665 18.5065 3.92289C18.3909 3.85913 18.2608 3.82626 18.1288 3.82743L5.51181 3.83143Z" fill="#253858"/>
</g>
</g>
</g>
</svg>
