<svg width="48" height="48" viewBox="0 0 48 48" fill="none" xmlns="http://www.w3.org/2000/svg">
<rect width="48" height="48" rx="8" fill="#1D4E9E"/>
<path d="M26.6781 39.1826L26.6562 39.2177L26.6603 39.2395L26.6749 39.2486H26.6858L26.7022 39.2432L26.71 39.23L26.7132 39.2168L26.7041 39.1995L26.6781 39.1826Z" fill="white"/>
<path d="M25.9726 22.6121C27.4396 21.8044 28.4671 20.2919 28.4671 19.4141C28.4671 18.7813 27.4396 18.2536 25.9726 18.0077V18.2536C27.1464 18.4649 27.954 18.8514 27.954 19.1683C27.954 19.4492 27.2561 19.7306 26.2658 19.8717H26.2285C26.1557 19.8717 26.045 19.8717 25.9726 19.9068V22.6121V22.6121ZM24.2485 17.868C24.3582 17.5165 24.5043 17.1295 24.6518 16.6724C25.1285 15.4427 24.4684 14.0017 24.2849 13.6147C24.065 13.1926 23.5509 11.9629 23.5509 11.9629C23.2951 13.861 22.4132 14.7042 22.12 15.6179C21.9725 16.1106 22.1937 16.6719 22.4132 17.129C22.5607 17.3749 22.7428 17.6563 22.8912 17.9026C22.5331 17.9403 22.1775 17.9989 21.8263 18.0783V18.2896C22.1933 18.2181 22.5967 18.1484 23.0374 18.1134C23.0738 18.1826 23.1476 18.2176 23.1835 18.2896C23.4043 18.606 23.5878 18.8869 23.5878 19.3081C23.5878 19.9414 22.4869 19.9414 21.8263 19.8708V22.4354C22.4869 22.8588 23.2573 23.1038 24.065 23.1038C24.7317 23.0995 25.387 22.9304 25.9726 22.6116V19.9063C25.2747 19.9063 24.3208 19.8712 24.065 19.273C23.9539 19.0617 24.0285 18.6411 24.1751 18.0783C24.8358 18.0783 25.4586 18.1484 25.9731 18.2532V18.0073C25.4582 17.9381 24.8717 17.868 24.2485 17.868V17.868ZM21.8263 18.0788C20.5055 18.3237 19.625 18.8514 19.625 19.4141C19.625 20.1877 20.5055 21.5936 21.8263 22.4363V19.8717C20.7628 19.7306 20.0648 19.4492 20.0648 19.1683C20.0648 18.8519 20.7628 18.4999 21.8263 18.29V18.0788" fill="white"/>
<path d="M14.2292 12.8059C14.2292 12.8059 14.4486 11.9627 14.4486 11.7875C14.4486 11.5762 14.3016 10.9433 14.9991 11.3303C15.6957 11.7173 15.5122 12.2436 15.366 12.5596C15.219 12.876 14.8516 13.9665 14.6681 14.3525L13.8977 16.3918C13.8977 16.3918 13.8249 16.568 13.7876 16.6381C13.7511 16.6718 13.4579 17.7271 13.5681 18.8872L13.7143 20.2226C13.7143 20.2226 13.7516 20.3268 13.8618 20.2226C13.8618 20.2226 14.0088 20.1525 13.8982 19.4841C13.8982 19.4841 13.8982 18.1137 13.9355 17.8323C13.972 17.5514 14.119 16.6718 14.1914 16.5329C14.2652 16.3558 14.3011 16.3217 14.4482 15.9351C14.5957 15.5131 15.0724 14.3184 15.0724 14.3184C15.0724 14.3184 15.733 13.0185 15.8054 12.6666C15.8054 12.6666 16.1 11.9632 16.0626 11.0139C16.0626 11.0139 15.9889 10.7676 16.1 10.6624C16.2461 10.5582 16.7233 10.6624 16.9063 10.8031C17.0898 10.9443 17.4208 11.2602 17.3834 11.7178C17.347 12.1398 17.1276 12.912 16.833 13.6505C16.833 13.6505 16.5762 14.2132 16.4296 14.3881C16.3199 14.5287 15.6593 16.0057 15.6593 16.0749C15.6219 16.145 15.5855 16.252 15.5117 16.3221C15.5117 16.3221 15.1821 17.2705 15.1457 17.5869C15.0719 17.9384 14.9622 18.2903 14.8889 19.0274C14.8511 19.7309 15.1084 20.7156 15.1084 20.7156C15.1084 20.7156 15.1457 20.8905 15.2559 20.8905C15.3656 20.8905 15.3656 20.5044 15.3656 20.4693C15.3656 20.3992 15.3292 20.0473 15.2918 19.8715C15.2554 19.7309 15.2918 18.5362 15.2918 18.5362C15.2918 18.5362 15.4016 17.657 15.6588 17.0606C15.7685 16.8493 15.8423 16.497 15.9884 16.1814C16.2092 15.6888 16.4291 15.2317 16.4291 15.2317C16.4291 15.2317 17.2368 13.5449 17.2732 13.4392C17.3097 13.3341 17.714 12.3147 17.7499 11.7875C17.7499 11.2953 17.8597 10.9433 17.8597 10.9433C17.8597 10.9433 17.7859 10.5573 18.3004 10.7672C18.7771 10.9784 19.1067 11.4005 19.1445 11.787C19.1445 11.787 19.2182 12.174 19.0707 12.209C18.8872 12.2783 18.8135 12.174 18.7038 12.2783C18.7038 12.2783 18.5936 12.3493 18.5936 12.5255C18.5572 12.6662 18.4474 13.1224 18.4101 13.2275C18.4101 13.3687 18.4101 13.5089 18.3004 13.9309C18.1529 14.3179 17.7135 15.5827 17.6762 15.6528C17.6762 15.6528 17.3825 16.496 17.3466 16.5675C17.3466 16.6376 17.2728 16.7433 17.2364 16.8134C17.2364 16.8484 16.8321 18.2179 16.7957 18.5353C16.7583 18.8508 16.6486 19.4135 16.6859 19.7641C16.6859 20.1165 16.7957 20.5376 16.8694 20.8545C16.8694 20.8545 16.9058 20.9606 17.0529 20.9246C17.1626 20.8896 16.9418 20.4684 17.0156 19.8351C17.0893 19.2023 17.199 18.3231 17.2728 18.1132C17.3092 17.8674 17.7495 16.6713 17.7495 16.6012C17.7859 16.5325 18.1902 15.3364 18.2999 15.1256C18.3737 14.9144 18.7406 13.7903 18.7766 13.5795C18.813 13.3687 18.813 12.8059 19.4008 12.7354C20.0241 12.9111 19.9877 13.966 19.9139 14.3521C19.9139 14.3521 19.8042 15.4425 19.4008 16.2862C19.0338 17.0938 19.0698 17.0938 19.0698 17.1293C19.0698 17.1995 19.1795 18.0085 19.1436 18.3236C19.1436 18.6414 19.18 18.9569 18.9965 19.6248C18.7766 20.2918 18.9228 20.3633 18.9601 20.4689C19.0338 20.6087 19.4008 21.1008 19.5105 21.3822C19.5843 21.6636 19.6931 22.2263 19.7304 22.3315C19.7669 22.402 20.2071 22.8227 20.3911 23.1391C20.5381 23.4205 21.0144 24.159 21.0517 24.2296C21.0881 24.3347 22.5924 26.1627 22.9967 26.8661C23.4001 27.5682 23.767 28.2015 23.7297 28.8339C23.6933 29.3251 23.4738 29.8524 23.1792 30.2735C23.0227 30.4655 22.8373 30.632 22.6297 30.767C22.52 30.8372 22.2628 30.9419 22.189 31.1176L21.8953 32.3838H16.1369L17.3843 30.2735C17.3843 30.2735 17.7877 30.0286 16.9072 28.9737C16.0271 27.9552 14.5229 25.3892 14.5229 25.3892C14.5229 25.3892 13.1647 23.1396 12.9084 22.6825C12.505 22.0856 12.5774 19.0625 12.5774 18.1492C12.5774 18.1492 12.4313 17.0601 13.0541 15.6182C13.6788 14.1773 14.2292 12.8059 14.2292 12.8059M33.8221 12.8059C33.8221 12.8059 33.6386 11.9627 33.6012 11.7875C33.6012 11.5762 33.7488 10.9433 33.0517 11.3303C32.3911 11.7173 32.5746 12.2436 32.6847 12.5596C32.8318 12.876 33.1979 13.9665 33.4187 14.3525L34.189 16.3918C34.189 16.3918 34.2628 16.568 34.2628 16.6381C34.2992 16.6718 34.5924 17.7271 34.4827 18.8872L34.3352 20.2226C34.3352 20.2226 34.2987 20.3268 34.189 20.2226C34.189 20.2226 34.0429 20.1525 34.1526 19.4841C34.1526 19.4841 34.1526 18.1137 34.1153 17.8323C34.0779 17.5514 33.9678 16.6718 33.858 16.5329C33.7856 16.3558 33.7483 16.3217 33.6008 15.9351C33.4911 15.5131 32.9775 14.3184 32.9775 14.3184C32.9775 14.3184 32.3169 13.0185 32.2436 12.6666C32.2436 12.6666 31.9499 11.9632 31.9868 11.0139C31.9868 11.0139 32.0979 10.7676 31.9504 10.6624C31.8042 10.5582 31.3635 10.6624 31.18 10.8031C30.9965 10.9443 30.6296 11.2602 30.666 11.7178C30.7407 12.1398 30.9228 12.912 31.2174 13.6505C31.2174 13.6505 31.4732 14.2132 31.6207 14.3881C31.7309 14.5287 32.3911 16.0057 32.4275 16.0749C32.4275 16.145 32.5013 16.252 32.5372 16.3221C32.5372 16.3221 32.8682 17.2705 32.9042 17.5869C32.978 17.9384 33.1241 18.2903 33.1614 19.0274C33.1979 19.7309 32.9415 20.7156 32.9415 20.7156C32.9415 20.7156 32.9042 20.8905 32.7945 20.8905C32.6848 20.8905 32.6847 20.5044 32.6847 20.4693C32.6847 20.3992 32.7212 20.0473 32.7585 19.8715C32.7949 19.7309 32.7585 18.5362 32.7585 18.5362C32.7585 18.5362 32.6474 17.657 32.3915 17.0606C32.3178 16.8493 32.2081 16.497 32.0606 16.1814C31.8771 15.6888 31.6207 15.2317 31.6207 15.2317C31.6207 15.2317 30.8504 13.5449 30.8131 13.4392C30.7766 13.3341 30.3364 12.3147 30.299 11.7875C30.299 11.2953 30.1902 10.9433 30.1902 10.9433C30.1902 10.9433 30.299 10.5573 29.7859 10.7672C29.2719 10.9784 28.9418 11.4005 28.9059 11.787C28.9059 11.787 28.8321 12.174 29.0156 12.209C29.1617 12.2783 29.2715 12.174 29.3452 12.2783C29.3452 12.2783 29.4563 12.3493 29.4923 12.5255C29.4923 12.6662 29.6025 13.1224 29.6398 13.2275C29.6762 13.3687 29.6398 13.5089 29.7495 13.9309C29.8957 14.3179 30.3364 15.5827 30.3728 15.6528C30.3728 15.6528 30.6665 16.496 30.7038 16.5675C30.7411 16.6376 30.7775 16.7433 30.8135 16.8134C30.8508 16.8484 31.2178 18.2179 31.2542 18.5353C31.2907 18.8508 31.4004 19.4135 31.4004 19.7641C31.364 20.1165 31.2902 20.5376 31.2178 20.8545C31.2178 20.8545 31.1441 20.9606 31.0334 20.9246C30.8873 20.8896 31.1072 20.4684 31.0334 19.8351C30.997 19.2023 30.8509 18.3231 30.7775 18.1132C30.7411 17.8674 30.3368 16.6713 30.2995 16.6012C30.2995 16.5325 29.8597 15.3364 29.75 15.1256C29.6762 14.9144 29.3457 13.7903 29.2719 13.5795C29.2364 13.3687 29.2364 12.8059 28.6486 12.7354C28.0253 12.9111 28.0618 13.966 28.1355 14.3521C28.1355 14.3521 28.2457 15.4425 28.6486 16.2862C29.0529 17.0938 28.9796 17.0938 28.9796 17.1293C28.9796 17.1995 28.8685 18.0085 28.9059 18.3236C28.9059 18.6414 28.8681 18.9569 29.0529 19.6248C29.2715 20.2918 29.1253 20.3633 29.0893 20.4689C29.0529 20.6087 28.6486 21.1008 28.5389 21.3822C28.4651 21.6636 28.3927 22.2263 28.3194 22.3315C28.283 22.402 27.8423 22.8227 27.6588 23.1391C27.5113 23.4205 27.0346 24.159 26.9973 24.2296C26.9609 24.3347 25.4566 26.1627 25.0532 26.8661C24.6498 27.5682 24.3193 28.2015 24.3566 28.8339C24.3566 29.3251 24.5765 29.8524 24.9062 30.2735C25.0532 30.4506 25.2007 30.6264 25.4202 30.767C25.5677 30.8372 25.7871 30.9419 25.8609 31.1176L26.1541 32.3838H31.9508L30.7038 30.2735C30.7038 30.2735 30.2631 30.0286 31.1445 28.9737C32.025 27.9552 33.5293 25.3892 33.5293 25.3892C33.5293 25.3892 34.9239 23.1396 35.1797 22.6825C35.5467 22.0856 35.5107 19.0625 35.4743 18.1492C35.4743 18.1492 35.6204 17.0601 34.9972 15.6182C34.6124 14.6779 34.2207 13.7405 33.8221 12.8059" fill="white"/>
<path d="M24.062 43.8763C24.6125 43.8413 25.1269 43.8413 25.1269 43.8413C28.9049 43.8413 32.5381 42.1895 35.3996 39.2019C37.8582 36.6368 39.3988 33.3678 39.3988 30.6971V17.0599C39.3988 14.6336 37.8222 11.4002 35.3263 8.83554C32.3911 5.81106 28.6855 4.16064 24.8701 4.16064H24.0625V4.58133H24.8701C30.9241 4.58133 35.5102 8.90475 37.6387 12.9117C38.409 14.4224 38.1518 15.8993 38.1518 17.0599V30.6966C38.1518 32.1722 38.3353 33.8591 37.4548 35.4758C36.8306 36.6714 36.0602 37.8661 35.07 38.9196C32.2809 41.802 28.7588 43.3837 25.1269 43.3837C25.1269 43.3837 24.6129 43.4201 24.062 43.4201V43.8763V43.8763ZM24.062 4.16064H23.1082C19.3288 4.16064 15.5868 5.81106 12.652 8.83554C10.1562 11.4006 8.57812 14.6336 8.57812 17.1996V30.8014C8.57812 33.3674 10.1197 36.6363 12.5774 39.2014C15.4402 42.189 19.0721 43.8408 22.8514 43.8408C22.8514 43.8408 23.4392 43.8759 23.9896 43.8759H24.062V43.4201C23.4751 43.4201 22.8509 43.3837 22.8509 43.3837C19.2187 43.3837 15.697 41.802 12.9079 38.9196C11.9177 37.8661 11.0736 36.7055 10.4494 35.5459C9.82516 34.2461 9.93625 32.2073 9.93625 30.6966V17.0599C9.93625 15.618 9.67901 13.7554 10.8163 11.9279C13.1274 8.20224 17.5673 4.58133 23.1082 4.58133H24.062V4.16064" fill="white"/>
<path d="M22.1188 35.3356C22.1188 35.4763 22.0087 35.5805 21.8616 35.5805C21.7155 35.5805 21.6044 35.4763 21.6044 35.3356C21.6044 35.23 21.7155 35.1243 21.8616 35.1243C22.0087 35.1243 22.1188 35.23 22.1188 35.3356ZM22.3761 36.0035C22.3761 36.0035 21.7519 35.9684 21.201 35.8983V36.3204C21.3121 36.3204 21.4218 36.3554 21.4955 36.3554L21.4582 37.128H21.201V37.7614L21.3845 37.7964L21.348 38.6756L21.8985 38.7448L22.1184 36.426H22.3378L22.3761 36.0035V36.0035ZM21.201 35.8979C21.0913 35.8979 20.9811 35.8628 20.8713 35.8628C20.6141 35.8277 20.3209 35.7576 20.0272 35.688L19.6603 35.0893L19.0361 34.9486L19.4044 35.5459C19.2569 35.5122 19.1836 35.5122 19.1836 35.5122L19.0739 35.8979C19.0739 35.8979 19.1476 35.9329 19.2574 35.9329L19.1836 36.2844L18.6705 36.1792C18.854 36.0385 18.9637 35.8628 18.9637 35.652C18.9637 35.3005 18.6705 35.0196 18.3035 35.0196V35.5122C18.4132 35.5122 18.4497 35.581 18.4497 35.652C18.4497 35.7221 18.4132 35.7572 18.3773 35.7927H18.3035V36.5662L19.0739 36.7761L18.7429 38.3232L19.3311 38.4283L19.8442 36.0722C20.0277 36.1087 20.2112 36.1788 20.3947 36.1788L20.2845 37.022C20.2845 37.022 19.9908 36.9528 19.9175 37.2678C19.8811 37.5492 20.2112 37.8306 20.3582 37.9712C20.6141 38.2526 20.7976 37.7955 20.7976 37.7955V37.7254L21.201 37.7604V37.128L20.8713 37.0939L21.0175 36.2853C21.0913 36.3204 21.1286 36.3204 21.201 36.3204V35.8979V35.8979ZM18.3031 38.1829V37.128C18.3768 37.0939 18.4492 37.0939 18.4492 37.0939L18.7065 37.4094C18.6327 37.5146 18.523 37.5852 18.4128 37.6553C18.3764 37.6553 18.3764 38.1829 18.3764 38.1829H18.3031V38.1829ZM18.3031 35.0201C17.8997 35.0201 17.6051 35.3005 17.6051 35.6525C17.6051 35.7931 17.6424 35.9334 17.7522 36.0395C17.6051 36.0731 17.4949 36.1446 17.4585 36.1801C17.3114 36.3208 16.9445 36.6372 17.0551 37.0584C17.1289 37.5155 17.6047 37.7268 17.7517 37.7969H17.8255C17.8619 37.7969 17.8619 38.0782 17.8619 38.0782L18.3026 38.1834V37.128C18.2289 37.1645 18.1191 37.1995 18.0818 37.1995C17.9357 37.2332 17.7881 37.1645 17.6784 37.0575C17.4949 36.7761 17.8992 36.3905 18.2289 36.5312L18.3026 36.5662V35.7927C18.2289 35.7927 18.1551 35.7226 18.1551 35.652C18.1551 35.5814 18.2289 35.5122 18.3026 35.5122V35.0201M17.423 35.5113L17.5691 35.1243C17.5691 35.1243 16.4692 34.7373 15.3683 34.2101L15.1843 33.4375L14.6712 33.1912L14.8183 33.9638C14.1568 33.6132 13.5699 33.2604 13.2029 33.0505V34.104C13.3504 33.9292 13.3864 33.7525 13.3864 33.6483C13.5326 33.717 13.716 33.824 13.8631 33.9292L13.35 34.7369C13.35 34.7369 13.3127 34.807 13.2025 34.842V36.2129L14.4135 34.2097C14.5233 34.2798 14.6334 34.3148 14.7445 34.3854L13.5694 36.5293L14.0825 36.7757L15.2572 34.6317L15.6979 34.8425C15.9174 35.5459 15.5877 35.7558 15.5877 35.7558C15.514 35.5801 15.2208 35.5459 15.2208 35.5459C15.2208 35.5459 14.78 35.616 14.8898 36.0372C14.9635 36.4606 15.3669 36.7406 15.8436 36.3185C16.247 35.9671 16.3207 35.3351 16.3207 35.0888C16.4305 35.1239 16.5775 35.194 16.6877 35.2295L15.8072 37.4791L16.3576 37.6899L17.2004 35.4394C17.3492 35.4754 17.423 35.5113 17.423 35.5113V35.5113ZM13.2029 33.0509C12.9835 32.8752 12.836 32.8046 12.836 32.8046L12.5423 33.1211C12.5423 33.1211 12.6898 33.1912 12.8733 33.3323C12.8733 33.4024 12.9461 33.8937 12.3229 33.7885H12.103C12.103 33.7885 11.6987 34.4928 12.1394 35.0893C12.433 35.4398 13.0572 35.3706 13.0572 35.3706L12.6539 36.0026L13.167 36.2839L13.2034 36.2138V34.843C13.0937 34.878 12.9102 34.878 12.7267 34.7728C12.433 34.527 12.617 34.3157 12.617 34.3157C12.9106 34.3157 13.0937 34.2465 13.2038 34.1045V33.0509M36.2446 35.0192L36.648 34.6677L35.1446 32.7336C35.3267 32.5938 35.4369 32.5237 35.4369 32.5237L35.217 32.312C35.217 32.312 35.0335 32.4531 34.7039 32.6635V33.1907L35.181 33.7525L34.7777 34.0685L34.7039 33.9998V34.9481H34.9238C35.2175 34.9481 35.1446 34.5611 35.1446 34.5611L35.584 34.2447L36.2446 35.0192V35.0192ZM34.7034 32.6639C33.9695 33.1561 32.5386 34.0344 30.8868 34.7027V35.1598L31.2911 35.9675C31.3275 36.1783 31.2537 36.4947 30.9241 36.5649L30.8868 36.6004V37.1626C31.1804 37.1626 31.475 37.0925 31.6945 36.7757L32.0241 37.3734L32.5381 37.1622L31.4745 34.8771C31.9139 34.7014 32.3187 34.4901 32.6856 34.3148L32.758 34.42C32.758 34.42 32.5745 34.5611 32.3546 34.7014C32.1347 34.842 32.0236 35.0178 32.061 35.2982C32.061 35.6147 32.5741 35.8259 32.5741 35.8259C32.5741 35.8259 32.5017 36.1419 32.6852 36.5289C33.0148 37.1262 33.9686 36.8799 33.9686 36.8799L33.8589 36.4588L33.639 36.4938C33.1609 36.4588 33.1609 36.1068 33.1609 36.0017C33.1983 35.8965 33.308 35.5104 33.675 35.5446C34.0424 35.5796 33.8949 36.0367 33.8949 36.0367L34.2618 36.2129C34.372 36.1073 34.4453 35.9666 34.4453 35.9666C34.5191 35.1234 34.0783 35.0519 33.7114 34.9832C33.3444 34.8776 33.0148 35.194 33.0148 35.194C33.0148 35.194 32.8313 35.2982 32.7949 35.2281C32.7576 35.1589 32.8313 35.0884 32.8313 35.0884L33.6017 34.5611L33.2347 33.9633C33.4182 33.8932 33.5657 33.7876 33.6754 33.717C33.8229 33.8591 34.1885 34.4204 34.1885 34.4204C34.1885 34.4906 34.0788 34.5261 34.1161 34.7018C34.1885 34.9117 34.4458 34.9481 34.703 34.9481V34.0002L34.2263 33.3655C34.3725 33.2954 34.52 33.1907 34.6297 33.1197L34.7034 33.1907V32.6639V32.6639ZM30.8872 34.7023L29.7873 35.1243C27.6224 35.7913 25.2376 36.0026 24.0629 36.0376V36.3891H24.3202V36.6354C24.2464 36.6705 24.1731 36.6705 24.1367 36.6705H24.0629V37.1977H24.1367C24.2104 37.1977 24.3202 37.1977 24.3939 37.2319L24.4303 37.8292C24.3386 37.8733 24.2385 37.8973 24.1367 37.8998H24.0629V38.427H24.1367C24.2469 38.427 24.3939 38.3919 24.5041 38.3569L24.5405 38.814L25.1283 38.7789L24.9448 36.3536C25.3842 36.3185 25.8613 36.2835 26.3744 36.2129L26.4491 36.4237C26.4491 36.4237 26.1554 36.4588 25.8986 36.4938C25.6414 36.5639 25.5317 36.67 25.4206 36.9514C25.3109 37.2314 25.7152 37.6193 25.7152 37.6193C25.7152 37.6193 25.4953 37.8998 25.5681 38.3218C25.6419 38.9897 26.6317 39.0953 26.6317 39.0953L26.7063 38.6733L26.4491 38.6027C26.0084 38.3919 26.1554 38.0755 26.1918 38.0058C26.2647 37.8998 26.5219 37.5829 26.8525 37.7236C27.1821 37.8998 26.8525 38.2508 26.8525 38.2508L27.1461 38.5672C27.2936 38.4971 27.4034 38.3915 27.4034 38.3915C27.8067 37.6188 27.4034 37.4067 27.0724 37.1968C26.7787 37.0211 26.3744 37.1968 26.3744 37.1968C26.3744 37.1968 26.1559 37.2309 26.1185 37.1617C26.1185 37.0916 26.2287 37.0211 26.2287 37.0211L27.1102 36.8449L26.9991 36.1414C27.1102 36.1064 27.2563 36.1064 27.366 36.0713L28.0267 38.4265L28.6135 38.3214L27.9902 35.9662C28.1737 35.932 28.3199 35.896 28.5033 35.861C28.5771 36.0718 28.8343 36.7752 28.8343 36.7752L28.6135 36.9159C28.6135 36.9159 28.3936 37.1622 28.7232 37.3384C29.0542 37.5483 29.2737 37.5833 29.3474 37.6193C29.3848 37.6193 29.6047 37.5483 29.6047 37.2314L29.9716 37.0916L29.6047 36.5639L29.3848 36.6345L29.0902 35.7198C29.311 35.6511 29.5309 35.6147 29.7144 35.5441C29.8241 35.5792 30.044 35.6861 30.044 35.8956C30.0076 36.2471 29.7144 36.2471 29.7144 36.2471L29.5683 36.4228C29.5683 36.4228 29.9343 37.0206 30.4848 37.1253C30.6323 37.1253 30.742 37.1613 30.8881 37.1613V36.599C30.5585 36.6341 30.4488 36.3527 30.4488 36.3527C30.4488 36.3527 30.6687 36.212 30.706 35.8956C30.706 35.6506 30.5585 35.3693 30.5225 35.2978C30.6327 35.2277 30.7424 35.1935 30.8886 35.158V34.7023H30.8872V34.7023ZM24.0625 36.0376C23.5858 36.0727 23.2921 36.0727 23.2921 36.0727L23.3294 36.4242C23.3294 36.4242 23.5853 36.4242 24.0625 36.3891V36.0376ZM24.0625 36.6709C23.512 36.706 23.0722 37.093 23.0722 37.5492C23.0722 38.0072 23.512 38.3933 24.0625 38.4283V37.9011C23.843 37.8656 23.6591 37.7249 23.6591 37.5496C23.6591 37.3748 23.8426 37.2332 24.0625 37.1986V36.6709M36.5018 35.0192L37.0523 34.7027C37.0523 34.7027 37.1625 34.6326 37.2349 34.7027C37.3095 34.8079 37.1984 34.8434 37.1984 34.8434C37.1984 34.8434 36.795 35.2295 36.6853 35.2295C36.5742 35.2646 36.5383 35.2295 36.5018 35.2295C36.5018 35.229 36.4281 35.0893 36.5018 35.0192Z" fill="white"/>
</svg>
