<svg xmlns="http://www.w3.org/2000/svg" xmlns:xlink="http://www.w3.org/1999/xlink" width="40" height="1181" viewBox="0 0 40 1181">
  <defs>
    <clipPath id="clip-path">
      <rect id="Rectangle_6871" data-name="Rectangle 6871" width="26" height="26" transform="translate(841 225)" fill="#fff" stroke="#707070" stroke-width="1"/>
    </clipPath>
    <clipPath id="clip-path-2">
      <path id="Path_217777" data-name="Path 217777" d="M801.476,220.329l1.276,4.622,3.619,1.094h4.047l7.076-1.882,1.465-.547.8-4.6-1.872-6.819-2-2.677-6.625-2.447-5.016,3.518-1.492,4.908-.745,2.883Z" fill="none" stroke="#707070" stroke-width="1"/>
    </clipPath>
    <clipPath id="clip-path-3">
      <rect id="Rectangle_6873" data-name="Rectangle 6873" width="26" height="26" transform="translate(841.5 230)" fill="#fff" stroke="#707070" stroke-width="1"/>
    </clipPath>
    <clipPath id="clip-path-4">
      <rect id="Rectangle_6286" data-name="Rectangle 6286" width="24" height="24" transform="translate(841.5 230)" fill="#fff" stroke="#707070" stroke-width="1"/>
    </clipPath>
    <clipPath id="clip-path-5">
      <path id="Path_84" data-name="Path 84" d="M291.678,172.313a9.044,9.044,0,0,1,6.476-5.822,13.9,13.9,0,0,1,6.381,0,11.633,11.633,0,0,1,3.356,1.386,3,3,0,0,1,2.83.033q.739.483-.865,1.7a6.869,6.869,0,0,1,1.315,2.421h.524a1.376,1.376,0,0,1,1.456,1.274v3.669a1.376,1.376,0,0,1-1.456,1.274h-2.077a22.956,22.956,0,0,0-2.2,3.865q-.432.943-.963.943h-1.789a.954.954,0,0,1-.963-.943v-.773a12.5,12.5,0,0,1-4.2.042v.776a.954.954,0,0,1-.963.943h-1.789a.954.954,0,0,1-.963-.943v-2c-2.7-1.451-4.3-3.814-4.3-6.368a6.017,6.017,0,0,1,.192-1.478c-.367-.2-1.378.935-1.706,1.127C289.47,173.734,291.832,171.667,291.678,172.313Z" transform="translate(-289.902 -166.119)" fill="none"/>
    </clipPath>
    <clipPath id="clip-path-6">
      <ellipse id="Ellipse_12" data-name="Ellipse 12" cx="3.525" cy="3.55" rx="3.525" ry="3.55" fill="none"/>
    </clipPath>
    <clipPath id="clip-path-7">
      <path id="Path_87" data-name="Path 87" d="M319.77,158.662h-.563a1.058,1.058,0,0,0-.444-.744h1.007a.106.106,0,1,0,0-.212h-2.344a.106.106,0,1,0,0,.212h.671a.884.884,0,0,1,.888.744h-1.559a.106.106,0,1,0,0,.212h1.559a.884.884,0,0,1-.888.755h-.67a.11.11,0,0,0-.111.11.108.108,0,0,0,.034.077l1.676,1.521a.114.114,0,0,0,.156,0,.105.105,0,0,0,0-.152l-1.475-1.338h.392a1.1,1.1,0,0,0,1.111-.968h.563a.106.106,0,1,0,0-.212Z" transform="translate(-317.315 -157.705)" fill="none" clip-rule="evenodd"/>
    </clipPath>
    <clipPath id="clip-path-8">
      <rect id="Rectangle_6874" data-name="Rectangle 6874" width="26" height="26" transform="translate(871 276.979)" fill="#fff" stroke="#707070" stroke-width="1"/>
    </clipPath>
    <clipPath id="clip-path-9">
      <circle id="Ellipse_4708" data-name="Ellipse 4708" cx="5.5" cy="5.5" r="5.5" transform="translate(7.601 6.6)" fill="#0065ff" stroke="#0065ff" stroke-width="1"/>
    </clipPath>
    <clipPath id="clip-path-10">
      <path id="Path_217779" data-name="Path 217779" d="M1057,474.119l6.207,3.443,2.968,4.207.66,2.3-1.087,2.267-3.654,2.44L1057,487.7l-5.442-4.846-1.45-4.556,3.747-4.179Z" transform="translate(-1050.104 -474.119)" fill="none" stroke="#0065ff" stroke-width="1"/>
    </clipPath>
    <clipPath id="clip-path-11">
      <rect id="Rectangle_6872" data-name="Rectangle 6872" width="28" height="28" transform="translate(840 212)" fill="#fff" stroke="#707070" stroke-width="1"/>
    </clipPath>
    <clipPath id="clip-path-12">
      <rect id="Rectangle_10" data-name="Rectangle 10" width="28" height="28" fill="#fff" stroke="#707070" stroke-width="1"/>
    </clipPath>
    <clipPath id="clip-path-13">
      <rect id="Rectangle_3002" data-name="Rectangle 3002" width="28" height="28" transform="translate(19 603)" fill="rgba(0,101,255,0)"/>
    </clipPath>
    <clipPath id="clip-path-14">
      <path id="Path_217773" data-name="Path 217773" d="M856.8,374.183l-.873-1.7v-1.443l1.134-1.739,1.854-1.558,2.022-.545H862.9l2.027,1.122,2.12,3.479.354.828a7.138,7.138,0,0,1-.929,4.161c-.011,0,2.945.261,2.945.261l.985-3.828-1.705-6.254-1.879-2.2H858.91l-3.788,1.764-3.275,4.036,1.663,5.4,1.449,1.886,4.131,1.66,1.843.714,1.5-.542.693-2.04-3.208-1.678-1.5-.977-.93-.333Z" fill="none" stroke="#707070" stroke-width="0.1"/>
    </clipPath>
    <clipPath id="clip-path-15">
      <rect id="Rectangle_10106" data-name="Rectangle 10106" width="26.069" height="28" transform="translate(840 212)" fill="#fff" stroke="#707070" stroke-width="1"/>
    </clipPath>
    <clipPath id="clip-path-16">
      <rect id="Rectangle_10105" data-name="Rectangle 10105" width="25.103" height="25.103" fill="#fff" stroke="#707070" stroke-width="1"/>
    </clipPath>
    <clipPath id="clip-path-21">
      <rect id="Rectangle_6286-2" data-name="Rectangle 6286" width="26" height="26" transform="translate(841.5 230)" fill="#fff" stroke="#707070" stroke-width="0.7"/>
    </clipPath>
  </defs>
  <g id="Group_223775" data-name="Group 223775" transform="translate(-15 -285)">
    <g id="Mask_Group_10041" data-name="Mask Group 10041" transform="translate(-819 655)" clip-path="url(#clip-path)">
      <g id="Group_10352" data-name="Group 10352" transform="translate(43 22)">
        <g id="user" transform="translate(797.983 203)">
          <g id="Group_10349" data-name="Group 10349" transform="translate(0.017 0)">
            <g id="Group_10348" data-name="Group 10348" transform="translate(0 0)">
              <path id="Path_15247" data-name="Path 15247" d="M26,12.75a13.006,13.006,0,0,0-21.826-9.3,13.011,13.011,0,0,0-.346,18.738.553.553,0,0,0,.792-.011c.152-.161.34-.354.414-.425a.566.566,0,0,0,.073-.062l1.221-1.22H10.3a1.1,1.1,0,0,0,1.033-.706,1.07,1.07,0,0,0-.255-1.178,5.629,5.629,0,0,1-1.663-4V9.827a1.76,1.76,0,0,1,.529-1.268,1.808,1.808,0,0,1,1.268-.529h3.566a1.759,1.759,0,0,1,1.268.529,1.806,1.806,0,0,1,.529,1.268v4.755A5.645,5.645,0,0,1,14.9,18.6a1.115,1.115,0,0,0-.186,1.2,1.089,1.089,0,0,0,1.008.662h4.2a.553.553,0,1,0,0-1.106l-4.194.006a.052.052,0,0,1-.009-.026,6.726,6.726,0,0,0,1.963-4.764V9.827a2.921,2.921,0,0,0-.853-2.05,2.881,2.881,0,0,0-2.05-.853H11.216a2.922,2.922,0,0,0-2.05.853,2.883,2.883,0,0,0-.853,2.05v4.755A6.7,6.7,0,0,0,10.3,19.365H6.1a.553.553,0,0,0-.391.162L4.336,20.9c-.035.029-.072.062-.111.1A11.885,11.885,0,0,1,21.07,4.261a11.883,11.883,0,0,1,.344,17.146.553.553,0,0,0,.782.782A12.888,12.888,0,0,0,26,12.75Z" transform="translate(-0.017 0)" fill="#253858"/>
            </g>
          </g>
          <g id="Group_10351" data-name="Group 10351" transform="translate(12.461 11.956)">
            <g id="Group_10350" data-name="Group 10350">
              <path id="Path_15248" data-name="Path 15248" d="M258.6,235.964a.546.546,0,0,0-.572-.533.553.553,0,0,0-.533.572A11.918,11.918,0,0,1,245.6,248.369a.553.553,0,1,0,0,1.106A13.024,13.024,0,0,0,258.6,235.964Z" transform="translate(-245.051 -235.43)" fill="#253858"/>
            </g>
          </g>
        </g>
        <g id="Mask_Group_104184" data-name="Mask Group 104184" clip-path="url(#clip-path-2)">
          <g id="user-2" data-name="user" transform="translate(797.982 203)">
            <g id="Group_10349-2" data-name="Group 10349" transform="translate(0.017 0)">
              <g id="Group_10348-2" data-name="Group 10348" transform="translate(0 0)">
                <path id="Path_15247-2" data-name="Path 15247" d="M26,12.75a13.006,13.006,0,0,0-21.826-9.3,13.011,13.011,0,0,0-.346,18.738.553.553,0,0,0,.792-.011c.152-.161.34-.354.414-.425a.566.566,0,0,0,.073-.062l1.221-1.22H10.3a1.1,1.1,0,0,0,1.033-.706,1.07,1.07,0,0,0-.255-1.178,5.629,5.629,0,0,1-1.663-4V9.827a1.76,1.76,0,0,1,.529-1.268,1.808,1.808,0,0,1,1.268-.529h3.566a1.759,1.759,0,0,1,1.268.529,1.806,1.806,0,0,1,.529,1.268v4.755A5.645,5.645,0,0,1,14.9,18.6a1.115,1.115,0,0,0-.186,1.2,1.089,1.089,0,0,0,1.008.662h4.2a.553.553,0,1,0,0-1.106l-4.194.006a.052.052,0,0,1-.009-.026,6.726,6.726,0,0,0,1.963-4.764V9.827a2.921,2.921,0,0,0-.853-2.05,2.881,2.881,0,0,0-2.05-.853H11.216a2.922,2.922,0,0,0-2.05.853,2.883,2.883,0,0,0-.853,2.05v4.755A6.7,6.7,0,0,0,10.3,19.365H6.1a.553.553,0,0,0-.391.162L4.336,20.9c-.035.029-.072.062-.111.1A11.885,11.885,0,0,1,21.07,4.261a11.883,11.883,0,0,1,.344,17.146.553.553,0,0,0,.782.782A12.888,12.888,0,0,0,26,12.75Z" transform="translate(-0.017 0)" fill="#0065ff"/>
              </g>
            </g>
            <g id="Group_10351-2" data-name="Group 10351" transform="translate(12.461 11.956)">
              <g id="Group_10350-2" data-name="Group 10350">
                <path id="Path_15248-2" data-name="Path 15248" d="M258.6,235.964a.546.546,0,0,0-.572-.533.553.553,0,0,0-.533.572A11.918,11.918,0,0,1,245.6,248.369a.553.553,0,1,0,0,1.106A13.024,13.024,0,0,0,258.6,235.964Z" transform="translate(-245.051 -235.43)" fill="#0065ff"/>
              </g>
            </g>
          </g>
        </g>
      </g>
    </g>
    <g id="Mask_Group_10043" data-name="Mask Group 10043" transform="translate(-819.5 706)" clip-path="url(#clip-path-3)">
      <g id="search" transform="translate(842.5 230.046)">
        <path id="Path_15249" data-name="Path 15249" d="M17.41,10.766h0a5.406,5.406,0,0,1,0-10.812h0A5.407,5.407,0,0,1,21.23,9.186a5.378,5.378,0,0,1-3.82,1.58Zm-4.326-5.41a4.33,4.33,0,0,0,4.324,4.327h0A4.325,4.325,0,0,0,20.469,2.3a4.293,4.293,0,0,0-3.058-1.268h0a4.327,4.327,0,0,0-4.325,4.323Z" transform="translate(-1.021)" fill="#0065ff"/>
        <path id="Path_15250" data-name="Path 15250" d="M23.81,12.307a.543.543,0,0,1-.383-.158l-3.585-3.59a.541.541,0,1,1,.764-.764l3.585,3.59a.54.54,0,0,1-.382.922Z" transform="translate(-0.397 0.624)" fill="#0065ff"/>
        <path id="Path_15251" data-name="Path 15251" d="M16.784,21.488H14.622A1.624,1.624,0,0,1,13,19.866V16.622A1.624,1.624,0,0,1,14.622,15h2.163a.541.541,0,1,1,0,1.081H14.622a.542.542,0,0,0-.541.541v3.244a.542.542,0,0,0,.541.541h2.163a.541.541,0,1,1,0,1.081Z" transform="translate(1.056 1.223)" fill="#253858"/>
        <path id="Path_15252" data-name="Path 15252" d="M5.7,21.488H3.541A.541.541,0,0,1,3,20.947V15.541A.541.541,0,0,1,3.541,15H5.7a1.624,1.624,0,0,1,1.622,1.622v3.244A1.624,1.624,0,0,1,5.7,21.488ZM4.081,20.406H5.7a.542.542,0,0,0,.541-.541V16.622a.542.542,0,0,0-.541-.541H4.081Z" transform="translate(0.244 1.223)" fill="#253858"/>
        <path id="Path_15253" data-name="Path 15253" d="M10.7,21.488H9.622A1.624,1.624,0,0,1,8,19.866V16.622A1.624,1.624,0,0,1,9.622,15H10.7a1.624,1.624,0,0,1,1.622,1.622v3.244A1.624,1.624,0,0,1,10.7,21.488ZM9.622,16.081a.542.542,0,0,0-.541.541v3.244a.542.542,0,0,0,.541.541H10.7a.542.542,0,0,0,.541-.541V16.622a.542.542,0,0,0-.541-.541Z" transform="translate(0.65 1.223)" fill="#253858"/>
        <path id="Path_15254" data-name="Path 15254" d="M18.922,25.95H2.7a2.706,2.706,0,0,1-2.7-2.7V2.7A2.707,2.707,0,0,1,2.7,0h7.569a.541.541,0,0,1,0,1.081H2.7A1.624,1.624,0,0,0,1.081,2.7V23.247A1.624,1.624,0,0,0,2.7,24.869H18.922a1.624,1.624,0,0,0,1.622-1.622V16.76a.541.541,0,1,1,1.081,0v6.488A2.706,2.706,0,0,1,18.922,25.95Z" transform="translate(0 0.004)" fill="#253858"/>
      </g>
    </g>
    <g id="noun_transaction_3139183" transform="translate(34.895 968.424) rotate(30)">
      <g id="Group_221530" data-name="Group 221530" transform="translate(4.45 23.5)">
        <path id="Path_217775" data-name="Path 217775" d="M34.133,38.963,31.259,36.09a.936.936,0,1,0-1.323,1.323l1.248,1.248H27.94A9.981,9.981,0,0,0,12.325,26.449H7.683L8.93,25.2a.936.936,0,0,0-1.323-1.323L4.734,26.751a.914.914,0,0,0,0,1.323l2.873,2.873a1.007,1.007,0,0,0,1.361,0,.914.914,0,0,0,0-1.323L7.683,28.339h3.244A9.981,9.981,0,0,0,26.541,40.551h4.643L29.936,41.8A.95.95,0,0,0,31.3,43.122l2.873-2.873A.978.978,0,0,0,34.133,38.963Zm-14.7,2.646a8.091,8.091,0,1,1,8.091-8.091A8.1,8.1,0,0,1,19.433,41.61Z" transform="translate(-4.45 -23.5)" fill="#253858" stroke="#fff" stroke-width="0.5"/>
      </g>
      <path id="Path_217776" data-name="Path 217776" d="M.653,1.139A.634.634,0,0,1,.159.962.582.582,0,0,1,0,.561.554.554,0,0,1,.159.168.651.651,0,0,1,.653,0h6.2a.634.634,0,0,1,.494.176.582.582,0,0,1,.159.4A.554.554,0,0,1,7.347.97a.651.651,0,0,1-.494.168h-.9q-.586,0-.988-.016t-.486-.032v.064a2.161,2.161,0,0,1,1.19,1.331h1.19a.634.634,0,0,1,.494.176.582.582,0,0,1,.159.4.554.554,0,0,1-.159.393.651.651,0,0,1-.494.168H5.747a2.9,2.9,0,0,1-.419,1.259,3.061,3.061,0,0,1-.813.858,3.683,3.683,0,0,1-1.055.513,5.507,5.507,0,0,1-1.131.225L6.115,9.96a.783.783,0,0,1,.268.577.711.711,0,0,1-.2.513.732.732,0,0,1-.553.208,1.178,1.178,0,0,1-.36-.056.958.958,0,0,1-.36-.233L.452,6.8a1.09,1.09,0,0,1-.268-.329A.766.766,0,0,1,.1,6.127a.684.684,0,0,1,.2-.505.7.7,0,0,1,.519-.2h.218a6.046,6.046,0,0,0,1.03-.088,3.087,3.087,0,0,0,.921-.3,2.312,2.312,0,0,0,.7-.553,1.714,1.714,0,0,0,.369-.85H.653a.634.634,0,0,1-.494-.176A.582.582,0,0,1,0,3.047a.554.554,0,0,1,.159-.393.651.651,0,0,1,.494-.168H3.971Q3.535,1.139,1.407,1.139Z" transform="translate(13.809 31.114) rotate(-30)" fill="#0065ff"/>
    </g>
    <g id="Group_10040" data-name="Group 10040" transform="translate(-818.5 823)" clip-path="url(#clip-path-4)">
      <g id="phone-call" transform="translate(841.5 230)">
        <path id="Path_15213" data-name="Path 15213" d="M23.5,117.507l-4.447-4.447a1.742,1.742,0,0,0-2.214-.206L14,114.795a.581.581,0,0,1-.738-.069l-.938-.939a.58.58,0,1,0-.821.821l.938.939a1.742,1.742,0,0,0,2.214.206l2.838-1.94a.581.581,0,0,1,.738.069l4.447,4.447a.581.581,0,0,1,0,.821,7.321,7.321,0,0,1-10.342,0L3.3,110.12a7.313,7.313,0,0,1,0-10.342.58.58,0,0,1,.821,0l4.447,4.447a.581.581,0,0,1,.069.738L6.7,107.8a1.742,1.742,0,0,0,.206,2.214L11.59,114.7a.58.58,0,0,0,.821-.821l-4.683-4.683a.581.581,0,0,1-.069-.738l1.94-2.838a1.742,1.742,0,0,0-.206-2.214L4.946,98.957a1.743,1.743,0,0,0-2.463,0,8.484,8.484,0,0,0,0,11.984l9.029,9.029a8.483,8.483,0,0,0,11.984,0A1.743,1.743,0,0,0,23.5,117.507Z" transform="translate(-0.006 -98.447)" fill="#253858"/>
      </g>
      <g id="Rectangle_6293" data-name="Rectangle 6293" transform="translate(852.5 233)" fill="#fbfbfb" stroke="#0065ff" stroke-width="1">
        <rect width="13" height="9" rx="4" stroke="none"/>
        <rect x="0.5" y="0.5" width="12" height="8" rx="3.5" fill="none"/>
      </g>
      <rect id="Rectangle_6294" data-name="Rectangle 6294" width="5" height="5" rx="2.5" transform="translate(858.5 235)" fill="#0065ff"/>
    </g>
    <g id="Icon" transform="translate(-22 347)">
      <rect id="Icon_Holder" data-name="Icon Holder" width="24" height="24" transform="translate(45 269)" fill="none"/>
      <g id="Term" transform="translate(-124.696 75.439)">
        <line id="Line_1" data-name="Line 1" y2="8.143" transform="translate(181.696 204.275)" fill="none" stroke="#0065ff" stroke-linecap="round" stroke-linejoin="round" stroke-width="1"/>
        <path id="Path_9641" data-name="Path 9641" d="M187.982,218.49a2.149,2.149,0,0,1-2.143,2.143h0a2.149,2.149,0,0,1-2.143-2.143v-3.429" transform="translate(-2 -3.071)" fill="none" stroke="#0065ff" stroke-linecap="round" stroke-linejoin="round" stroke-width="1"/>
        <line id="Line_2" data-name="Line 2" y2="2" transform="translate(181.696 193.561)" fill="none" stroke="#0065ff" stroke-linecap="round" stroke-linejoin="round" stroke-width="1"/>
        <path id="Path_9642" data-name="Path 9642" d="M173.553,204.99a3.85,3.85,0,0,1,3.206,1.714h1.246a4.251,4.251,0,0,1,7.383,0h1.245a3.855,3.855,0,0,1,6.411,0h.651c0-6.627-5.373-11.143-12-11.143s-12,4.515-12,11.143h.651A3.851,3.851,0,0,1,173.553,204.99Z" transform="translate(0 -0.286)" fill="none" stroke="#253858" stroke-linecap="round" stroke-linejoin="round" stroke-width="1"/>
      </g>
    </g>
    <g id="Icon-2" data-name="Icon" transform="translate(-23 454)">
      <rect id="Icon_Holder-2" data-name="Icon Holder" width="24" height="24" transform="translate(46 269)" fill="none"/>
      <g id="Car" transform="translate(41.5 272)">
        <g id="Group_9775" data-name="Group 9775" transform="translate(4.5 0)">
          <g id="Group_9774" data-name="Group 9774" transform="translate(0 0)">
            <path id="Path_13801" data-name="Path 13801" d="M23.085,59.9l-.523-.554L20.725,54.4A2.154,2.154,0,0,0,18.72,53H5.606A2.146,2.146,0,0,0,3.6,54.4L1.79,59.283l-.754.7A2.947,2.947,0,0,0,0,62.222v7.211a2.144,2.144,0,0,0,2.144,2.134H3.5a2.144,2.144,0,0,0,2.144-2.134V68.386H18.361v1.046A2.144,2.144,0,0,0,20.5,71.566h1.354A2.144,2.144,0,0,0,24,69.433v-7.4A2.974,2.974,0,0,0,23.085,59.9ZM4.565,54.744a1.109,1.109,0,0,1,1.041-.718H18.725a1.117,1.117,0,0,1,1.041.718l1.6,4.308h-1.2a3.518,3.518,0,0,0-6.96,0H2.964Zm14.561,4.308H14.248a2.491,2.491,0,0,1,4.877,0ZM4.616,69.433A1.115,1.115,0,0,1,3.5,70.541H2.144a1.115,1.115,0,0,1-1.118-1.108V68.089a2.083,2.083,0,0,0,1.118.3H4.616Zm18.361,0a1.115,1.115,0,0,1-1.118,1.108H20.5a1.119,1.119,0,0,1-1.118-1.108V68.386h2.472a2.083,2.083,0,0,0,1.118-.3v1.344Zm-1.118-2.072H2.144a1.106,1.106,0,0,1-1.118-1.1V62.222a1.925,1.925,0,0,1,.682-1.467l.021-.021.7-.656H21.849l.492.528c.005.01.021.015.026.026a1.933,1.933,0,0,1,.605,1.4v4.231h.005A1.11,1.11,0,0,1,21.859,67.361Z" transform="translate(0 -53)" fill="#253858"/>
          </g>
        </g>
        <g id="Group_9777" data-name="Group 9777" transform="translate(6.911 9.129)">
          <g id="Group_9776" data-name="Group 9776">
            <path id="Path_13802" data-name="Path 13802" d="M51.359,231H47.513a.514.514,0,0,0-.513.513v2.667a.514.514,0,0,0,.513.513h3.847a.514.514,0,0,0,.513-.513v-2.667A.514.514,0,0,0,51.359,231Zm-.49,2.691H48V232h2.87Z" transform="translate(-47 -231)" fill="#0065ff"/>
          </g>
        </g>
        <g id="Group_9779" data-name="Group 9779" transform="translate(21.22 9.129)">
          <g id="Group_9778" data-name="Group 9778">
            <path id="Path_13803" data-name="Path 13803" d="M330.36,231h-3.847a.514.514,0,0,0-.513.513v2.667a.514.514,0,0,0,.513.513h3.847a.514.514,0,0,0,.513-.513v-2.667A.514.514,0,0,0,330.36,231Zm-.489,2.691H327V232h2.87Z" transform="translate(-326 -231)" fill="#0065ff"/>
          </g>
        </g>
        <g id="Group_9781" data-name="Group 9781" transform="translate(13.511 10.638)">
          <g id="Group_9780" data-name="Group 9780" transform="translate(0 0)">
            <path id="Path_13804" data-name="Path 13804" d="M181.167,273h-4.954a.5.5,0,1,0,0,1h4.954a.5.5,0,1,0,0-1Z" transform="translate(-175.7 -273)" fill="#0065ff"/>
          </g>
        </g>
      </g>
    </g>
    <g id="Icon-3" data-name="Icon" transform="translate(-22 400)">
      <rect id="Icon_Holder-3" data-name="Icon Holder" width="24" height="24" transform="translate(45 269)" fill="none"/>
      <g id="Health" transform="translate(-124.86 70.78)">
        <g id="Group_6561" data-name="Group 6561" transform="translate(169.86 205.546)">
          <line id="Line_3" data-name="Line 3" x2="6.857" transform="translate(0 6)" fill="none" stroke="#0065ff" stroke-linecap="round" stroke-linejoin="round" stroke-width="1"/>
          <line id="Line_4" data-name="Line 4" y1="6" x2="2.572" transform="translate(6.857)" fill="none" stroke="#0065ff" stroke-linecap="round" stroke-linejoin="round" stroke-width="1"/>
          <line id="Line_5" data-name="Line 5" x2="3.429" y2="8.572" transform="translate(9.429)" fill="none" stroke="#0065ff" stroke-linecap="round" stroke-linejoin="round" stroke-width="1"/>
          <line id="Line_6" data-name="Line 6" y1="6" x2="3.429" transform="translate(12.858 2.572)" fill="none" stroke="#0065ff" stroke-linecap="round" stroke-linejoin="round" stroke-width="1"/>
          <line id="Line_7" data-name="Line 7" x2="1.714" y2="3.429" transform="translate(16.286 2.572)" fill="none" stroke="#0065ff" stroke-linecap="round" stroke-linejoin="round" stroke-width="1"/>
          <line id="Line_8" data-name="Line 8" x2="6" transform="translate(18.001 6)" fill="none" stroke="#0065ff" stroke-linecap="round" stroke-linejoin="round" stroke-width="1"/>
        </g>
        <path id="Path_9643" data-name="Path 9643" d="M193.35,208.295a6.914,6.914,0,0,0-11.456-7.05,6.915,6.915,0,0,0-11.457,7.05" transform="translate(-0.033)" fill="none" stroke="#253858" stroke-linecap="round" stroke-linejoin="round" stroke-width="1"/>
        <path id="Path_9644" data-name="Path 9644" d="M177.86,218.394l4.536,4.537a.859.859,0,0,0,1.213,0l4.537-4.537" transform="translate(-1.143 -2.738)" fill="none" stroke="#253858" stroke-linecap="round" stroke-linejoin="round" stroke-width="1"/>
      </g>
    </g>
    <g id="Icon-4" data-name="Icon" transform="translate(-22 507)">
      <rect id="Icon_Holder-4" data-name="Icon Holder" width="24" height="24" transform="translate(45 269)" fill="none"/>
      <g id="Investment" transform="translate(45 270)">
        <g id="Path_85" data-name="Path 85" transform="translate(-288.923 -160.088)" fill="none">
          <path d="M297.928,182.856h-1.789a1.334,1.334,0,0,1-1.342-1.322v-1.775a7.747,7.747,0,0,1-4.3-6.591,6.1,6.1,0,0,1,.063-.862c-.184.146-.378.319-.492.421a3.888,3.888,0,0,1-.513.417.4.4,0,0,1-.543-.047.422.422,0,0,1-.009-.509,6.3,6.3,0,0,1,1.82-1.358,9.48,9.48,0,0,1,6.623-5.728,14.208,14.208,0,0,1,6.592,0,12.658,12.658,0,0,1,3.28,1.321,3.312,3.312,0,0,1,3,.143.813.813,0,0,1,.4.667c.015.417-.279.861-.945,1.413a7.213,7.213,0,0,1,1.06,1.98h.248a1.754,1.754,0,0,1,1.836,1.654v3.669A1.754,1.754,0,0,1,311.088,178h-1.9a26.2,26.2,0,0,0-2.041,3.655c-.348.761-.788,1.152-1.3,1.152h-1.789a1.334,1.334,0,0,1-1.342-1.322v-.328a12.938,12.938,0,0,1-3.444.033v.339A1.334,1.334,0,0,1,297.928,182.856Zm-6.492-11.064a5.634,5.634,0,0,0-.179,1.376,7.065,7.065,0,0,0,4.1,6.033.379.379,0,0,1,.2.334v2a.575.575,0,0,0,.584.563h1.789a.574.574,0,0,0,.583-.563v-.776a.38.38,0,0,1,.439-.375,12.187,12.187,0,0,0,4.076-.041.38.38,0,0,1,.447.373v.774a.574.574,0,0,0,.584.563h1.789c.183,0,.408-.263.617-.721a22.858,22.858,0,0,1,2.267-3.962.38.38,0,0,1,.281-.125h2.077a1,1,0,0,0,1.077-.894v-3.669a1,1,0,0,0-1.077-.895h-.524a.379.379,0,0,1-.363-.271,6.5,6.5,0,0,0-1.244-2.288.38.38,0,0,1,.063-.545c.972-.737.948-1.023.948-1.025a.171.171,0,0,0-.061-.055,2.651,2.651,0,0,0-2.465-.006.381.381,0,0,1-.366-.028,11.265,11.265,0,0,0-3.259-1.341,13.586,13.586,0,0,0-6.18.006A8.641,8.641,0,0,0,291.437,171.791Z" stroke="none"/>
          <path d="M 297.9282531738281 182.8556213378906 L 296.13916015625 182.8556213378906 C 295.3988647460938 182.8556213378906 294.7966613769531 182.2625427246094 294.7966613769531 181.5336151123047 L 294.7966613769531 179.758544921875 C 292.1010437011719 178.2342834472656 290.4989624023438 175.7845153808594 290.4989624023438 173.1670532226562 C 290.4989624023438 172.8851165771484 290.5202331542969 172.5967254638672 290.5619506835938 172.3049468994141 C 290.3775329589844 172.4514007568359 290.1840209960938 172.6240692138672 290.0697631835938 172.7257385253906 C 289.85693359375 172.9158477783203 289.6888427734375 173.0657501220703 289.5564270019531 173.1431274414062 C 289.2516174316406 173.3218841552734 289.0634765625 173.1526336669922 289.0133972167969 173.0960693359375 C 288.8927917480469 172.9621276855469 288.8965759277344 172.7314300537109 289.0039367675781 172.5868835449219 C 289.0149536132812 172.5720367431641 290.1051025390625 171.4458312988281 290.8241577148438 171.2284393310547 C 291.8023681640625 168.5005340576172 294.2510070800781 166.3736877441406 297.4467468261719 165.5001983642578 C 299.2764892578125 165.0550994873047 302.1216125488281 164.9151000976562 304.0389709472656 165.5036010742188 C 305.7161560058594 166.0185241699219 306.4803771972656 166.3000946044922 307.3190002441406 166.824462890625 C 308.3902587890625 166.39794921875 309.5247192382812 166.4476928710938 310.3208312988281 166.967529296875 C 310.6433715820312 167.1781311035156 310.7188720703125 167.4464111328125 310.7257080078125 167.6342468261719 C 310.7405395507812 168.0516357421875 310.4468078613281 168.4948120117188 309.7808837890625 169.0476989746094 C 310.2457275390625 169.6677398681641 310.6008911132812 170.3310394287109 310.8406677246094 171.0272979736328 L 311.0884704589844 171.0272979736328 C 312.1008605957031 171.0272979736328 312.9242553710938 171.7691345214844 312.9242553710938 172.6809692382812 L 312.9242553710938 176.3502960205078 C 312.9242553710938 177.26171875 312.1008605957031 178.0035400390625 311.0884704589844 178.0035400390625 L 309.1889038085938 178.0035400390625 C 308.8872680664062 178.3940124511719 308.2972106933594 179.3555450439453 307.1478271484375 181.658447265625 C 306.7994995117188 182.4192352294922 306.3597412109375 182.8108520507812 305.8459167480469 182.8108520507812 L 304.0568237304688 182.8108520507812 C 303.3161315917969 182.8108520507812 302.7143249511719 182.2177734375 302.7143249511719 181.4888458251953 L 302.7143249511719 181.1609954833984 C 301.5733032226562 181.3256378173828 300.4190979003906 181.336669921875 299.2703857421875 181.1943969726562 L 299.2703857421875 181.5336151123047 C 299.2703857421875 182.2625427246094 298.668212890625 182.8556213378906 297.9282531738281 182.8556213378906 Z M 300.9474182128906 165.8740234375 C 299.74755859375 165.8740234375 298.5386352539062 166.0160827636719 297.6364440917969 166.2351837158203 C 294.5719909667969 167.0726470947266 292.2508544921875 169.150146484375 291.4365844726562 171.7911224365234 C 291.3178100585938 172.2612915039062 291.2578735351562 172.7242126464844 291.2578735351562 173.1670532226562 C 291.2578735351562 175.5644378662109 292.7897338867188 177.8199157714844 295.35595703125 179.2003631591797 C 295.4789123535156 179.2663726806641 295.5555725097656 179.3946228027344 295.5555725097656 179.5346221923828 L 295.5555725097656 181.5336151123047 C 295.5555725097656 181.8440093994141 295.8177795410156 182.0967102050781 296.13916015625 182.0967102050781 L 297.9282531738281 182.0967102050781 C 298.2500305175781 182.0967102050781 298.5115051269531 181.8440093994141 298.5115051269531 181.5336151123047 L 298.5115051269531 180.7572479248047 C 298.5115051269531 180.6464233398438 298.56005859375 180.5409545898438 298.6446838378906 180.4688873291016 C 298.7293090820312 180.3967742919922 298.8412475585938 180.3652496337891 298.9505310058594 180.3823547363281 C 300.3078002929688 180.5974884033203 301.6787109375 180.5842132568359 303.0265808105469 180.3417358398438 C 303.1369018554688 180.3224182128906 303.2508850097656 180.3519897460938 303.3370361328125 180.4240875244141 C 303.4235229492188 180.4962005615234 303.4731750488281 180.6027984619141 303.4731750488281 180.7151489257812 L 303.4731750488281 181.4888458251953 C 303.4731750488281 181.7992248535156 303.7350463867188 182.0519409179688 304.0568237304688 182.0519409179688 L 305.8459167480469 182.0519409179688 C 306.0284729003906 182.0519409179688 306.2534790039062 181.7893524169922 306.4633178710938 181.3309936523438 C 307.5572814941406 179.1392517089844 308.2968444824219 177.8472137451172 308.7298278808594 177.3694915771484 C 308.8019104003906 177.2901916503906 308.9039611816406 177.2446441650391 309.010986328125 177.2446441650391 L 311.0884704589844 177.2446441650391 C 311.6819458007812 177.2446441650391 312.1653747558594 176.8435668945312 312.1653747558594 176.3502960205078 L 312.1653747558594 172.6809692382812 C 312.1653747558594 172.1876678466797 311.6819458007812 171.7862091064453 311.0884704589844 171.7862091064453 L 310.5640563964844 171.7862091064453 C 310.3963317871094 171.7862091064453 310.2483825683594 171.6761627197266 310.2005615234375 171.5152740478516 C 309.9577026367188 170.7013397216797 309.53955078125 169.9318237304688 308.9563293457031 169.2275543212891 C 308.8903198242188 169.1478881835938 308.8599243164062 169.0446624755859 308.8717041015625 168.9418182373047 C 308.8834838867188 168.8389892578125 308.9369812011719 168.7456665039062 309.019287109375 168.6830444335938 C 309.9910888671875 167.9457855224609 309.9675598144531 167.6604309082031 309.9668273925781 167.6577758789062 C 309.9668273925781 167.6577758789062 309.9573059082031 167.6369018554688 309.9060668945312 167.6031188964844 C 309.2872009277344 167.198974609375 308.3192749023438 167.1963348388672 307.441162109375 167.597412109375 C 307.3231811523438 167.6513214111328 307.1850280761719 167.6410675048828 307.0753784179688 167.5697326660156 C 306.23486328125 167.0183868408203 305.558349609375 166.7637786865234 303.8166198730469 166.2291259765625 C 303.0003051757812 165.9786987304688 301.9772033691406 165.8740234375 300.9474182128906 165.8740234375 Z" stroke="none" fill="#253858"/>
        </g>
        <g id="Group_118" data-name="Group 118" transform="translate(8.346 0.379)">
          <g id="Group_117" data-name="Group 117" clip-path="url(#clip-path-6)">
            <rect id="Rectangle_42" data-name="Rectangle 42" width="10.845" height="10.895" transform="translate(-1.897 -1.897)" fill="#fff"/>
          </g>
        </g>
        <g id="Path_86" data-name="Path 86" transform="translate(-301.951 -151.872)" fill="none">
          <path d="M313.822,159.732a3.93,3.93,0,1,1,3.9-3.93A3.922,3.922,0,0,1,313.822,159.732Zm0-7.1a3.171,3.171,0,1,0,3.146,3.171A3.162,3.162,0,0,0,313.822,152.631Z" stroke="none"/>
          <path d="M 313.8216247558594 159.7316436767578 C 311.6686401367188 159.7316436767578 309.9170532226562 157.9686889648438 309.9170532226562 155.8016357421875 C 309.9170532226562 153.6349487304688 311.6686401367188 151.8720092773438 313.8216247558594 151.8720092773438 C 315.9750366210938 151.8720092773438 317.7265930175781 153.6349487304688 317.7265930175781 155.8016357421875 C 317.7265930175781 157.9686889648438 315.9750366210938 159.7316436767578 313.8216247558594 159.7316436767578 Z M 313.8216247558594 152.6309356689453 C 312.0871276855469 152.6309356689453 310.6759643554688 154.0531005859375 310.6759643554688 155.8016357421875 C 310.6759643554688 157.5501556396484 312.0871276855469 158.9727325439453 313.8216247558594 158.9727325439453 C 315.55615234375 158.9727325439453 316.9676818847656 157.5501556396484 316.9676818847656 155.8016357421875 C 316.9676818847656 154.0531005859375 315.55615234375 152.6309356689453 313.8216247558594 152.6309356689453 Z" stroke="none" fill="#0065ff"/>
        </g>
        <g id="Group_120" data-name="Group 120" transform="translate(10.773 2.213)">
          <g id="Group_119" data-name="Group 119" clip-path="url(#clip-path-7)">
            <rect id="Rectangle_43" data-name="Rectangle 43" width="6.361" height="7.455" transform="translate(-1.897 -1.897)" fill="#2684ff"/>
          </g>
        </g>
        <path id="Path_88" data-name="Path 88" d="M318.781,161.242a.306.306,0,0,1-.207-.08L316.9,159.64a.307.307,0,0,1-.1-.222.3.3,0,0,1,.09-.216.311.311,0,0,1,.213-.089h.674a.706.706,0,0,0,.622-.363H317.1a.3.3,0,1,1,0-.6H318.4a.708.708,0,0,0-.62-.352H317.1a.3.3,0,1,1,0-.6h2.345a.3.3,0,1,1,0,.6h-.555a1.234,1.234,0,0,1,.154.352h.4a.3.3,0,1,1,0,.6h-.4a1.293,1.293,0,0,1-1.165.963l1.1,1a.3.3,0,0,1,.1.217.3.3,0,0,1-.086.217A.31.31,0,0,1,318.781,161.242Z" transform="translate(-306.221 -155.171)" fill="#0065ff"/>
        <g id="Path_89" data-name="Path 89" transform="translate(-317.965 -169.8)" fill="none">
          <path d="M336.887,183.1a1.168,1.168,0,1,1,1.163-1.168A1.167,1.167,0,0,1,336.887,183.1Zm0-1.578a.409.409,0,1,0,.4.409A.407.407,0,0,0,336.887,181.521Z" stroke="none"/>
          <path d="M 336.8866882324219 183.0986938476562 C 336.2457885742188 183.0986938476562 335.7240600585938 182.5746612548828 335.7240600585938 181.9303436279297 C 335.7240600585938 181.2864532470703 336.2457885742188 180.7620086669922 336.8866882324219 180.7620086669922 C 337.5279846191406 180.7620086669922 338.0497436523438 181.2864532470703 338.0497436523438 181.9303436279297 C 338.0497436523438 182.5746612548828 337.5279846191406 183.0986938476562 336.8866882324219 183.0986938476562 Z M 336.8866882324219 181.5209503173828 C 336.6639404296875 181.5209503173828 336.4829711914062 181.7046051025391 336.4829711914062 181.9303436279297 C 336.4829711914062 182.1565093994141 336.6639404296875 182.3397827148438 336.8866882324219 182.3397827148438 C 337.1094360351562 182.3397827148438 337.2908020019531 182.1565093994141 337.2908020019531 181.9303436279297 C 337.2908020019531 181.7046051025391 337.1094360351562 181.5209503173828 336.8866882324219 181.5209503173828 Z" stroke="none" fill="#253858"/>
        </g>
        <path id="Path_90" data-name="Path 90" d="M317.346,172.308a.378.378,0,0,1-.176-.044,6.555,6.555,0,0,0-6.7,0,.379.379,0,1,1-.352-.672,7.306,7.306,0,0,1,7.4,0,.38.38,0,0,1-.176.716Z" transform="translate(-301.951 -163.484)" fill="#253858"/>
      </g>
    </g>
    <g id="Group_10090" data-name="Group 10090" transform="translate(0 721.999)">
      <path id="Icon_ionic-ios-search" data-name="Icon ionic-ios-search" d="M19.413,18.083a8.323,8.323,0,1,0-1.263,1.28Zm-6.541,1.351a6.572,6.572,0,1,1,4.648-1.925A6.532,6.532,0,0,1,12.873,19.433Z" transform="translate(20.5 103.508)" fill="#253858" stroke="#fff" stroke-width="0.8"/>
      <g id="Path_14628" data-name="Path 14628" transform="translate(38.136 121.843) rotate(-45)" fill="#253858" stroke-linecap="round">
        <path d="M 0.4999970495700836 9.499995231628418 C 0.4995670318603516 9.499995231628418 0.4993670582771301 9.499965667724609 0.4993670582771301 9.499965667724609 L 0.5591906309127808 1.104732275009155 L 0.5000070333480835 9.496465682983398 L 0.4999970495700836 9.499995231628418 Z" stroke="none"/>
        <path d="M 0.5620970726013184 0.1947355270385742 C 0.8382370471954346 0.1947355270385742 1.062097072601318 0.4185857772827148 1.062097072601318 0.6947355270385742 L 0.9999970197677612 9.499995231628418 C 0.9999970197677612 9.776144981384277 0.7761470079421997 9.999995231628418 0.4999970197677612 9.999995231628418 C 0.223857045173645 9.999995231628418 -2.980232238769531e-06 9.776144981384277 -2.980232238769531e-06 9.499995231628418 L 0.06209707260131836 0.6947355270385742 C 0.06209707260131836 0.4185857772827148 0.2859470248222351 0.1947355270385742 0.5620970726013184 0.1947355270385742 Z" stroke="none" fill="#0065ff"/>
      </g>
    </g>
    <g id="Mask_Group_10044" data-name="Mask Group 10044" transform="translate(-849 1163.021)" clip-path="url(#clip-path-8)">
      <g id="power-button" transform="translate(871.046 277.001)">
        <path id="Path_15244" data-name="Path 15244" d="M22.18,3.819a12.983,12.983,0,1,0,0,18.36,12.941,12.941,0,0,0,0-18.36ZM13,24.474A11.474,11.474,0,1,1,24.474,13,11.487,11.487,0,0,1,13,24.474Z" transform="translate(0 0)" fill="#263958"/>
        <path id="Path_15245" data-name="Path 15245" d="M154.424,168.969a.762.762,0,0,0-1.011,1.139,4.112,4.112,0,1,1-5.434-.02.762.762,0,1,0-1-1.147,5.636,5.636,0,1,0,7.448.028Z" transform="translate(-137.685 -160.186)" fill="#0065ff"/>
        <path id="Path_15246" data-name="Path 15246" d="M241.812,126.635a.762.762,0,0,0,.762-.762v-4.062a.762.762,0,1,0-1.523,0v4.062A.762.762,0,0,0,241.812,126.635Z" transform="translate(-228.812 -114.905)" fill="#0065ff"/>
      </g>
    </g>
    <g id="Group_221500" data-name="Group 221500" transform="translate(-808 702)">
      <g id="Rectangle_10100" data-name="Rectangle 10100" transform="translate(823 460)" fill="#fff" stroke="#b3d4ff" stroke-width="1">
        <rect width="40" height="40" rx="8" stroke="none"/>
        <rect x="0.5" y="0.5" width="39" height="39" rx="7.5" fill="none"/>
      </g>
      <g id="Group_221524" data-name="Group 221524" transform="translate(-12.926 101.479)">
        <g id="support" transform="translate(844.925 366.521)">
          <g id="Group_89305" data-name="Group 89305" transform="translate(0)">
            <path id="Path_102327" data-name="Path 102327" d="M37.421,9.921h-.059V8.465a8.465,8.465,0,0,0-16.931,0V9.921h-.356a2.419,2.419,0,0,0-2.317,2.5v3.713a2.347,2.347,0,0,0,2.286,2.405h2.229a.564.564,0,0,0,.537-.59c0-.011,0-.022,0-.034V10.634c0-.356-.208-.713-.535-.713h-.653V8.465a7.277,7.277,0,0,1,14.555,0V9.921H35.52c-.327,0-.535.356-.535.713v7.277a.564.564,0,0,0,.5.621l.034,0H36.2l-.059.089A4.693,4.693,0,0,1,32.371,20.5a2.941,2.941,0,0,0-5.822.564A2.97,2.97,0,0,0,29.52,24a3.059,3.059,0,0,0,2.139-.921,2.614,2.614,0,0,0,.713-1.426,5.881,5.881,0,0,0,4.723-2.347l.564-.832a2.022,2.022,0,0,0,2.079-2.05V12.713C39.737,11.436,38.787,9.921,37.421,9.921Zm-15.8,7.426H20.074a1.158,1.158,0,0,1-1.13-1.186c0-.011,0-.021,0-.032V12.416a1.232,1.232,0,0,1,1.129-1.307h1.545Zm9.178,4.9a1.753,1.753,0,0,1-1.277.564,1.812,1.812,0,0,1-1.782-1.753,1.752,1.752,0,0,1,3.5,0h0A1.574,1.574,0,0,1,30.8,22.248Zm7.753-5.822c0,.8-.772.921-1.129.921H36.173V11.109h1.248c.653,0,1.129.921,1.129,1.6Z" transform="translate(-17.756)" fill="#253858"/>
          </g>
        </g>
        <path id="Icon_feather-check" data-name="Icon feather-check" d="M14.364,9l-5.75,5.75L6,12.136" transform="translate(846.075 364.771)" fill="none" stroke="#0065ff" stroke-linecap="round" stroke-linejoin="round" stroke-width="1.5"/>
      </g>
    </g>
    <g id="Group_221499" data-name="Group 221499" transform="translate(-880 771)">
      <g id="Rectangle_10101" data-name="Rectangle 10101" transform="translate(895 460)" fill="#fff" stroke="#b3d4ff" stroke-width="1">
        <rect width="40" height="40" rx="8" stroke="none"/>
        <rect x="0.5" y="0.5" width="39" height="39" rx="7.5" fill="none"/>
      </g>
      <g id="noun_Settings_2519206" transform="translate(902.399 467.4)">
        <path id="Path_217764" data-name="Path 217764" d="M11.779.6a1.389,1.389,0,0,0-1.391,1.391V3.176l-.344.094a9.452,9.452,0,0,0-2.218.922l-.309.178-.845-.837v0a1.392,1.392,0,0,0-1.969,0L3.534,4.705a1.39,1.39,0,0,0,0,1.966l.837.838-.177.309a9.635,9.635,0,0,0-.923,2.219l-.094.344H1.992A1.389,1.389,0,0,0,.6,11.771v1.654a1.389,1.389,0,0,0,1.391,1.391H3.177l.094.344a9.428,9.428,0,0,0,.921,2.217l.178.309-.835.845h0a1.389,1.389,0,0,0,0,1.966L4.7,21.666a1.392,1.392,0,0,0,1.969,0l.835-.837.31.177a9.64,9.64,0,0,0,2.219.922l.344.094v1.185A1.391,1.391,0,0,0,11.773,24.6h1.654a1.391,1.391,0,0,0,1.391-1.392V22.023l.344-.094a9.434,9.434,0,0,0,2.218-.921l.309-.179.84.838a1.391,1.391,0,0,0,1.967,0l1.172-1.17a1.389,1.389,0,0,0,0-1.966l-.839-.837.177-.31a9.64,9.64,0,0,0,.924-2.219l.094-.344H23.21A1.389,1.389,0,0,0,24.6,13.431V11.777a1.389,1.389,0,0,0-1.391-1.391H22.025l-.094-.344a9.447,9.447,0,0,0-.923-2.217l-.179-.31.84-.837a1.389,1.389,0,0,0,0-1.966L20.5,3.541a1.391,1.391,0,0,0-1.967,0l-.831.832-.31-.177a9.645,9.645,0,0,0-2.219-.924l-.344-.094V1.992A1.389,1.389,0,0,0,13.434.6H11.78Zm-.007.813h1.654a.579.579,0,0,1,.578.58V3.514a.4.4,0,0,0,.327.4,8.794,8.794,0,0,1,3.183,1.315.407.407,0,0,0,.516-.048l1.216-1.211h.175a.6.6,0,0,1,.508.137L21.1,5.275a.622.622,0,0,1,0,.819L20.027,7.168a.4.4,0,0,0-.05.513h0v0A8.729,8.729,0,0,1,21.3,10.865a.4.4,0,0,0,.4.327h1.522a.579.579,0,0,1,.58.578v1.654a.576.576,0,0,1-.58.58H21.693a.4.4,0,0,0-.4.327,8.788,8.788,0,0,1-1.316,3.18l0,0a.4.4,0,0,0,.05.513L21.1,19.1a.622.622,0,0,1,0,.819L19.95,21.071a.581.581,0,0,1-.817.041l-.011-.009-1.086-1.085a.4.4,0,0,0-.513-.05l0,0a8.758,8.758,0,0,1-3.184,1.316.4.4,0,0,0-.326.4V23.2a.576.576,0,0,1-.58.58H11.778a.576.576,0,0,1-.58-.58V21.683a.4.4,0,0,0-.327-.4,8.79,8.79,0,0,1-3.18-1.314.417.417,0,0,0-.227-.072.406.406,0,0,0-.286.117L6.1,21.092a.622.622,0,0,1-.819,0l-1.172-1.17a.622.622,0,0,1,0-.819l1.075-1.074a.4.4,0,0,0,.051-.513l0,0a8.778,8.778,0,0,1-1.318-3.183.4.4,0,0,0-.4-.327H1.989a.579.579,0,0,1-.58-.578V11.771a.576.576,0,0,1,.58-.58H3.511a.4.4,0,0,0,.4-.327,8.79,8.79,0,0,1,1.315-3.18.406.406,0,0,0-.048-.516L4.1,6.094a.645.645,0,0,1-.168-.412A.615.615,0,0,1,4.1,5.276L5.274,4.1a.622.622,0,0,1,.819,0L7.167,5.179a.4.4,0,0,0,.513.05l0,0a8.751,8.751,0,0,1,3.183-1.316.4.4,0,0,0,.327-.4V1.992a.576.576,0,0,1,.58-.58ZM12.6,8a4.6,4.6,0,1,0,4.6,4.6A4.605,4.605,0,0,0,12.6,8Zm0,.813A3.79,3.79,0,1,1,8.812,12.6,3.8,3.8,0,0,1,12.6,8.808Z" fill="#253858" stroke="#253858" stroke-width="0.3"/>
        <g id="Mask_Group_104185" data-name="Mask Group 104185" clip-path="url(#clip-path-9)">
          <path id="Path_217778" data-name="Path 217778" d="M11.779.6a1.389,1.389,0,0,0-1.391,1.391V3.176l-.344.094a9.452,9.452,0,0,0-2.218.922l-.309.178-.845-.837v0a1.392,1.392,0,0,0-1.969,0L3.534,4.705a1.39,1.39,0,0,0,0,1.966l.837.838-.177.309a9.635,9.635,0,0,0-.923,2.219l-.094.344H1.992A1.389,1.389,0,0,0,.6,11.771v1.654a1.389,1.389,0,0,0,1.391,1.391H3.177l.094.344a9.428,9.428,0,0,0,.921,2.217l.178.309-.835.845h0a1.389,1.389,0,0,0,0,1.966L4.7,21.666a1.392,1.392,0,0,0,1.969,0l.835-.837.31.177a9.64,9.64,0,0,0,2.219.922l.344.094v1.185A1.391,1.391,0,0,0,11.773,24.6h1.654a1.391,1.391,0,0,0,1.391-1.392V22.023l.344-.094a9.434,9.434,0,0,0,2.218-.921l.309-.179.84.838a1.391,1.391,0,0,0,1.967,0l1.172-1.17a1.389,1.389,0,0,0,0-1.966l-.839-.837.177-.31a9.64,9.64,0,0,0,.924-2.219l.094-.344H23.21A1.389,1.389,0,0,0,24.6,13.431V11.777a1.389,1.389,0,0,0-1.391-1.391H22.025l-.094-.344a9.447,9.447,0,0,0-.923-2.217l-.179-.31.84-.837a1.389,1.389,0,0,0,0-1.966L20.5,3.541a1.391,1.391,0,0,0-1.967,0l-.831.832-.31-.177a9.645,9.645,0,0,0-2.219-.924l-.344-.094V1.992A1.389,1.389,0,0,0,13.434.6H11.78Zm-.007.813h1.654a.579.579,0,0,1,.578.58V3.514a.4.4,0,0,0,.327.4,8.794,8.794,0,0,1,3.183,1.315.407.407,0,0,0,.516-.048l1.216-1.211h.175a.6.6,0,0,1,.508.137L21.1,5.275a.622.622,0,0,1,0,.819L20.027,7.168a.4.4,0,0,0-.05.513h0v0A8.729,8.729,0,0,1,21.3,10.865a.4.4,0,0,0,.4.327h1.522a.579.579,0,0,1,.58.578v1.654a.576.576,0,0,1-.58.58H21.693a.4.4,0,0,0-.4.327,8.788,8.788,0,0,1-1.316,3.18l0,0a.4.4,0,0,0,.05.513L21.1,19.1a.622.622,0,0,1,0,.819L19.95,21.071a.581.581,0,0,1-.817.041l-.011-.009-1.086-1.085a.4.4,0,0,0-.513-.05l0,0a8.758,8.758,0,0,1-3.184,1.316.4.4,0,0,0-.326.4V23.2a.576.576,0,0,1-.58.58H11.778a.576.576,0,0,1-.58-.58V21.683a.4.4,0,0,0-.327-.4,8.79,8.79,0,0,1-3.18-1.314.417.417,0,0,0-.227-.072.406.406,0,0,0-.286.117L6.1,21.092a.622.622,0,0,1-.819,0l-1.172-1.17a.622.622,0,0,1,0-.819l1.075-1.074a.4.4,0,0,0,.051-.513l0,0a8.778,8.778,0,0,1-1.318-3.183.4.4,0,0,0-.4-.327H1.989a.579.579,0,0,1-.58-.578V11.771a.576.576,0,0,1,.58-.58H3.511a.4.4,0,0,0,.4-.327,8.79,8.79,0,0,1,1.315-3.18.406.406,0,0,0-.048-.516L4.1,6.094a.645.645,0,0,1-.168-.412A.615.615,0,0,1,4.1,5.276L5.274,4.1a.622.622,0,0,1,.819,0L7.167,5.179a.4.4,0,0,0,.513.05l0,0a8.751,8.751,0,0,1,3.183-1.316.4.4,0,0,0,.327-.4V1.992a.576.576,0,0,1,.58-.58ZM12.6,8a4.6,4.6,0,1,0,4.6,4.6A4.605,4.605,0,0,0,12.6,8Zm0,.813A3.79,3.79,0,1,1,8.812,12.6,3.8,3.8,0,0,1,12.6,8.808Z" fill="#0065ff" stroke="#0065ff" stroke-width="0.3"/>
        </g>
      </g>
    </g>
    <g id="Group_221498" data-name="Group 221498" transform="translate(-952 841)">
      <g id="Rectangle_10102" data-name="Rectangle 10102" transform="translate(967 460)" fill="#fff" stroke="#b3d4ff" stroke-width="1">
        <rect width="40" height="40" rx="8" stroke="none"/>
        <rect x="0.5" y="0.5" width="39" height="39" rx="7.5" fill="none"/>
      </g>
      <g id="noun_documents_1045343" transform="translate(975 467)">
        <path id="Path_217759" data-name="Path 217759" d="M3.2,7.583V6.667H7.233V3H8.15V7.583Z" transform="translate(-0.65 -0.542)" fill="#253858"/>
        <path id="Path_217760" data-name="Path 217760" d="M16.163,24H2V6.4L4.017,4.063,5.9,2H18.5v8.479l-.55-.092a6.109,6.109,0,0,0-1.283-.137,6.424,6.424,0,0,0-.413,12.833ZM2.917,23.083H13.092a7.342,7.342,0,0,1,3.575-13.75,6.142,6.142,0,0,1,.917.046V2.917H6.308L4.7,4.658,2.917,6.767Z" fill="#253858"/>
        <path id="Path_217761" data-name="Path 217761" d="M24.775,32.667A7.341,7.341,0,0,1,25.233,18a7.943,7.943,0,0,1,1.467.137h0a7.341,7.341,0,0,1,.046,14.392l-.963.138Zm.5-13.75a6.424,6.424,0,0,0-.412,12.833h.917a5.668,5.668,0,0,0,.825-.092,6.469,6.469,0,0,0-.046-12.65A12.077,12.077,0,0,0,25.279,18.917Z" transform="translate(-8.613 -8.667)" fill="#253858"/>
        <path id="Path_217762" data-name="Path 217762" d="M.971-7.485a.476.476,0,0,1-.38-.142.48.48,0,0,1-.122-.322A.456.456,0,0,1,.59-8.265.488.488,0,0,1,.971-8.4h4.77a.476.476,0,0,1,.38.142.48.48,0,0,1,.122.322.456.456,0,0,1-.122.316.488.488,0,0,1-.38.135h-.7q-.451,0-.761-.013a3.726,3.726,0,0,1-.374-.026v.052a1.63,1.63,0,0,1,.529.387,1.713,1.713,0,0,1,.387.683h.915a.476.476,0,0,1,.38.142.48.48,0,0,1,.122.322.456.456,0,0,1-.122.316.488.488,0,0,1-.38.135H4.89a2.4,2.4,0,0,1-.322,1.012,2.419,2.419,0,0,1-.625.69,2.785,2.785,0,0,1-.812.413,4.079,4.079,0,0,1-.87.18l2.914,2.8A.641.641,0,0,1,5.38.07a.586.586,0,0,1-.155.413A.55.55,0,0,1,4.8.65.871.871,0,0,1,4.522.6.734.734,0,0,1,4.245.418L.816-2.934A.87.87,0,0,1,.61-3.2a.638.638,0,0,1-.064-.277A.563.563,0,0,1,.7-3.881a.529.529,0,0,1,.4-.161h.168a4.459,4.459,0,0,0,.793-.071,2.306,2.306,0,0,0,.709-.245A1.794,1.794,0,0,0,3.3-4.8a1.409,1.409,0,0,0,.284-.683H.971a.476.476,0,0,1-.38-.142.48.48,0,0,1-.122-.322A.456.456,0,0,1,.59-6.266.488.488,0,0,1,.971-6.4H3.523Q3.188-7.485,1.551-7.485Z" transform="translate(13.532 20.9)" fill="#0065ff"/>
      </g>
    </g>
    <g id="Group_221497" data-name="Group 221497" transform="translate(-1022 910)">
      <g id="Rectangle_10103" data-name="Rectangle 10103" transform="translate(1037 460)" fill="#fff" stroke="#b3d4ff" stroke-width="1">
        <rect width="40" height="40" rx="8" stroke="none"/>
        <rect x="0.5" y="0.5" width="39" height="39" rx="7.5" fill="none"/>
      </g>
      <g id="Group_221531" data-name="Group 221531" transform="translate(-2 -2)">
        <path id="Icon_ionic-logo-whatsapp" data-name="Icon ionic-logo-whatsapp" d="M13.449,2.25a10.759,10.759,0,0,0-10.8,10.717A10.606,10.606,0,0,0,4.2,18.5L2.25,24.25l5.979-1.9A10.818,10.818,0,0,0,24.25,12.967,10.759,10.759,0,0,0,13.449,2.25Zm5.37,14.787a2.79,2.79,0,0,1-1.91,1.231c-.506.027-.521.393-3.282-.807a11.268,11.268,0,0,1-4.553-4.305,5.3,5.3,0,0,1-1.019-2.871A3.06,3.06,0,0,1,9.106,8.04a1.058,1.058,0,0,1,.748-.315c.217,0,.358-.006.519,0s.4-.034.611.522.709,1.923.773,2.062a.5.5,0,0,1,.005.48,1.876,1.876,0,0,1-.293.446c-.144.155-.3.346-.432.464s-.293.274-.142.553A8.265,8.265,0,0,0,12.359,14.2a7.535,7.535,0,0,0,2.166,1.44c.271.148.432.131.6-.046s.719-.773.913-1.04.376-.215.626-.114,1.579.813,1.85.96.451.222.516.339A2.268,2.268,0,0,1,18.82,17.037Z" transform="translate(1045.75 468.75)" fill="none" stroke="#253858" stroke-width="1"/>
        <g id="Mask_Group_104186" data-name="Mask Group 104186" transform="translate(1050.572 474.812)" clip-path="url(#clip-path-10)">
          <path id="Icon_ionic-logo-whatsapp-2" data-name="Icon ionic-logo-whatsapp" d="M13.449,2.25a10.759,10.759,0,0,0-10.8,10.717A10.606,10.606,0,0,0,4.2,18.5L2.25,24.25l5.979-1.9A10.818,10.818,0,0,0,24.25,12.967,10.759,10.759,0,0,0,13.449,2.25Zm5.37,14.787a2.79,2.79,0,0,1-1.91,1.231c-.506.027-.521.393-3.282-.807a11.268,11.268,0,0,1-4.553-4.305,5.3,5.3,0,0,1-1.019-2.871A3.06,3.06,0,0,1,9.106,8.04a1.058,1.058,0,0,1,.748-.315c.217,0,.358-.006.519,0s.4-.034.611.522.709,1.923.773,2.062a.5.5,0,0,1,.005.48,1.876,1.876,0,0,1-.293.446c-.144.155-.3.346-.432.464s-.293.274-.142.553A8.265,8.265,0,0,0,12.359,14.2a7.535,7.535,0,0,0,2.166,1.44c.271.148.432.131.6-.046s.719-.773.913-1.04.376-.215.626-.114,1.579.813,1.85.96.451.222.516.339A2.268,2.268,0,0,1,18.82,17.037Z" transform="translate(-4.822 -6.062)" fill="none" stroke="#0065ff" stroke-width="1"/>
        </g>
      </g>
    </g>
    <g id="Mask_Group_10042" data-name="Mask Group 10042" transform="translate(-819 73)" clip-path="url(#clip-path-11)">
      <g id="Mask_Group_10042-2" data-name="Mask Group 10042" transform="translate(840 212)" clip-path="url(#clip-path-12)">
        <g id="Group_40" data-name="Group 40" transform="translate(3.575)">
          <g id="Group_34" data-name="Group 34" transform="translate(9.742 9.288)">
            <g id="Group_33" data-name="Group 33" transform="translate(0)">
              <g id="Group_28" data-name="Group 28" transform="translate(0 2.108)">
                <path id="Path_30" data-name="Path 30" d="M229.528,282.482h-4.454a.411.411,0,1,1,0-.817h4.454a.411.411,0,0,1,0,.817Z" transform="translate(-224.62 -281.663)" fill="#0065ff" stroke="#0065ff" stroke-width="0.3"/>
              </g>
              <g id="Group_29" data-name="Group 29" transform="translate(0.044)">
                <path id="Path_31" data-name="Path 31" d="M231.09,243.984h-6.15c-.156,0-.283-.184-.283-.411s.127-.411.283-.411h6.151c.156,0,.284.183.284.411S231.246,243.984,231.09,243.984Z" transform="translate(-224.657 -243.163)" fill="#0065ff" stroke="#0065ff" stroke-width="0.3"/>
              </g>
              <g id="Group_32" data-name="Group 32" transform="translate(0 8.878)">
                <g id="Group_30" data-name="Group 30" transform="translate(0 2.108)">
                  <path id="Path_32" data-name="Path 32" d="M229.528,408.169h-4.454a.411.411,0,1,1,0-.817h4.454a.411.411,0,0,1,0,.817Z" transform="translate(-224.62 -407.35)" fill="#0065ff" stroke="#0065ff" stroke-width="0.3"/>
                </g>
                <g id="Group_31" data-name="Group 31" transform="translate(0.043)">
                  <path id="Path_33" data-name="Path 33" d="M231.09,369.671h-6.15c-.156,0-.283-.184-.283-.411s.127-.411.283-.411h6.151c.156,0,.284.184.284.411S231.246,369.671,231.09,369.671Z" transform="translate(-224.657 -368.85)" fill="#0065ff" stroke="#0065ff" stroke-width="0.3"/>
                </g>
              </g>
            </g>
          </g>
          <g id="Group_35" data-name="Group 35" transform="translate(5.73)">
            <path id="Path_34" data-name="Path 34" d="M177.106,3.864h-7.093a1.225,1.225,0,0,1-1.223-1.223V1.223A1.225,1.225,0,0,1,170.013,0h7.093a1.225,1.225,0,0,1,1.223,1.223V2.64A1.225,1.225,0,0,1,177.106,3.864ZM170.013.817a.4.4,0,0,0-.4.4V2.64a.4.4,0,0,0,.4.4h7.093a.4.4,0,0,0,.4-.4V1.223a.4.4,0,0,0-.4-.406Z" transform="translate(-168.79)" fill="#253858" stroke="#253858" stroke-width="0.3"/>
          </g>
          <g id="Group_38" data-name="Group 38" transform="translate(3.485 8.737)">
            <g id="Group_36" data-name="Group 36">
              <path id="Path_35" data-name="Path 35" d="M112.372,237.135h-1.824a1.1,1.1,0,0,1-1.1-1.1V234.21a1.1,1.1,0,0,1,1.1-1.1h1.824a1.1,1.1,0,0,1,1.1,1.1v1.824a1.1,1.1,0,0,1-1.1,1.1Zm-1.824-3.2a.281.281,0,0,0-.281.281v1.823a.281.281,0,0,0,.281.281h1.824a.281.281,0,0,0,.281-.281v-1.824a.281.281,0,0,0-.281-.281Z" transform="translate(-109.447 -233.109)" fill="#0065ff" stroke="#0065ff" stroke-width="0.3"/>
            </g>
            <g id="Group_37" data-name="Group 37" transform="translate(0 8.878)">
              <path id="Path_36" data-name="Path 36" d="M112.372,362.821h-1.824a1.1,1.1,0,0,1-1.1-1.1V359.9a1.1,1.1,0,0,1,1.1-1.1h1.824a1.1,1.1,0,0,1,1.1,1.1v1.821a1.1,1.1,0,0,1-1.1,1.1Zm-1.824-3.2a.281.281,0,0,0-.281.281v1.82a.281.281,0,0,0,.281.281h1.824a.281.281,0,0,0,.281-.281V359.9a.281.281,0,0,0-.281-.281Z" transform="translate(-109.447 -358.795)" fill="#0065ff" stroke="#0065ff" stroke-width="0.3"/>
            </g>
          </g>
          <g id="Group_39" data-name="Group 39" transform="translate(0 1.519)">
            <path id="Path_37" data-name="Path 37" d="M83.185,54.3H65.739a1.779,1.779,0,0,1-1.777-1.776V29.6a1.779,1.779,0,0,1,1.777-1.777h2.45a.411.411,0,1,1,0,.817H65.734a.958.958,0,0,0-.957.957v22.93a.958.958,0,0,0,.957.957H83.18a.958.958,0,0,0,.957-.957V29.6a.958.958,0,0,0-.957-.957H80.73a.411.411,0,0,1,0-.817h2.457a1.779,1.779,0,0,1,1.777,1.777V52.529a1.779,1.779,0,0,1-1.777,1.777Z" transform="translate(-63.962 -27.824)" fill="#253858" stroke="#253858" stroke-width="0.3"/>
          </g>
        </g>
      </g>
    </g>
    <g id="Mask_Group_10154" data-name="Mask Group 10154" transform="translate(2 -260)" clip-path="url(#clip-path-13)">
      <path id="query-what-how-why" d="M97.187,1.519H82.469a1.935,1.935,0,0,0-.734.142,1.97,1.97,0,0,0-.628.425,1.9,1.9,0,0,0-.577,1.362v15.5a1.96,1.96,0,0,0,.147.734,1.98,1.98,0,0,0,.42.628,2.026,2.026,0,0,0,.633.425,1.935,1.935,0,0,0,.734.142h1.519a1.449,1.449,0,0,1,.957.506,1.423,1.423,0,0,1,.36.962l.213,2.385,4.239-3.464a1.464,1.464,0,0,1,1.013-.41H97.8a1.935,1.935,0,0,0,.734-.142,2.026,2.026,0,0,0,.628-.425l.035-.03a2.066,2.066,0,0,0,.39-.6,1.955,1.955,0,0,0,.142-.734V3.449a1.935,1.935,0,0,0-.142-.734,1.98,1.98,0,0,0-.42-.628,2.112,2.112,0,0,0-.633-.425,1.935,1.935,0,0,0-.745-.142ZM82.469,0H97.785A3.49,3.49,0,0,1,99.1.263a3.591,3.591,0,0,1,1.119.75,3.545,3.545,0,0,1,.75,1.119,3.489,3.489,0,0,1,.263,1.317v15.5a3.424,3.424,0,0,1-.952,2.391l-.041.046a3.591,3.591,0,0,1-1.119.75,3.489,3.489,0,0,1-1.317.263h-7.02l-5.379,4.366a.77.77,0,0,1-.456.2.76.76,0,0,1-.82-.689l-.339-3.88H82.469a3.447,3.447,0,0,1-3.186-2.142,3.393,3.393,0,0,1-.263-1.317V3.449a3.393,3.393,0,0,1,.263-1.317A3.454,3.454,0,0,1,82.469,0Z" transform="translate(-56.817 603)" fill="#172b4d" stroke="#fff" stroke-width="0.3" fill-rule="evenodd"/>
      <path id="Icon_open-question-mark" data-name="Icon open-question-mark" d="M3.342,0A3.5,3.5,0,0,0,.8.893,2.952,2.952,0,0,0,0,2.625L1.353,2.8a1.639,1.639,0,0,1,.419-.933,2.009,2.009,0,0,1,1.569-.514,2.387,2.387,0,0,1,1.65.46,1.131,1.131,0,0,1,.379.893c0,1.123-.46,1.434-1.136,2.029A3.856,3.856,0,0,0,2.665,7.779v.338H4.018V7.779a2.251,2.251,0,0,1,1.1-2.029,3.879,3.879,0,0,0,1.61-3.044A2.6,2.6,0,0,0,5.925.8,3.739,3.739,0,0,0,3.342,0ZM2.665,9.47v1.353H4.018V9.47Z" transform="translate(30.048 608.619)" fill="#0065ff"/>
    </g>
    <g id="noun_support_104008" transform="translate(267 521.981)">
      <path id="Path_217768" data-name="Path 217768" d="M28.521,28.353a12.056,12.056,0,0,0-8.806-8.128,4.941,4.941,0,0,1-1.087-1.632A32.76,32.76,0,0,0,21.1,14h.241a1.973,1.973,0,0,0,2.192-2,1.793,1.793,0,0,0-.3-1.008c-.1-3.961-2.767-7.973-7.173-7.973-4.426,0-6.824,3.793-7.021,7.7A1.793,1.793,0,0,0,8.519,12,1.857,1.857,0,0,0,9.89,13.879c.709,1.235,2.2,2.66,5.281,2.86a.865.865,0,0,0,.73.418.883.883,0,0,0,0-1.766.868.868,0,0,0-.687.353,6.764,6.764,0,0,1-2.686-.687,11.752,11.752,0,0,1-1.1-3.385c1.467-.594,5.744-2.4,7.25-3.792a6.152,6.152,0,0,0,2.045,3.115c.014.171.022.343.022.514,0,1.676-2.219,5.416-3.074,6.715a.5.5,0,0,0-.077.344,5.292,5.292,0,0,0,1.675,2.649A3.2,3.2,0,0,1,16.019,24a3.522,3.522,0,0,1-3.475-2.8c.033-.008.063-.021.1-.028l-.015-.062c1.5-1.586,1.6-2.412,1.593-2.636a.5.5,0,0,0-.065-.228c-.122-.212-.278-.493-.45-.813a11.3,11.3,0,0,1-1.35-.424c.37.729.689,1.308.842,1.577a5.085,5.085,0,0,1-1.2,1.739,11.523,11.523,0,0,0-8.44,8.049.5.5,0,0,0,.091.43.5.5,0,0,0,.4.195h24a.5.5,0,0,0,.478-.647ZM16.057,4.019c3.785,0,5.718,3.322,6.1,6.164a3.038,3.038,0,0,0-.571-.142,5.553,5.553,0,0,0-11.012-.016,3.078,3.078,0,0,0-.485.091C10.456,7.339,12.171,4.019,16.057,4.019ZM4.7,28a10.536,10.536,0,0,1,6.881-6.51A4.481,4.481,0,0,0,15.992,25h.056a4.163,4.163,0,0,0,4.207-3.572A11.029,11.029,0,0,1,27.344,28Z" transform="translate(-247.539 -80)" fill="#253858"/>
    </g>
    <g id="Mask_Group_104183" data-name="Mask Group 104183" transform="translate(-825.846 35.229)" clip-path="url(#clip-path-14)">
      <g id="noun_support_104008-2" data-name="noun_support_104008" transform="translate(1092.926 442.501)">
        <path id="Path_217768-2" data-name="Path 217768" d="M28.521,28.353a12.056,12.056,0,0,0-8.806-8.128,4.941,4.941,0,0,1-1.087-1.632A32.76,32.76,0,0,0,21.1,14h.241a1.973,1.973,0,0,0,2.192-2,1.793,1.793,0,0,0-.3-1.008c-.1-3.961-2.767-7.973-7.173-7.973-4.426,0-6.824,3.793-7.021,7.7A1.793,1.793,0,0,0,8.519,12,1.857,1.857,0,0,0,9.89,13.879c.709,1.235,2.2,2.66,5.281,2.86a.865.865,0,0,0,.73.418.883.883,0,0,0,0-1.766.868.868,0,0,0-.687.353,6.764,6.764,0,0,1-2.686-.687,11.752,11.752,0,0,1-1.1-3.385c1.467-.594,5.744-2.4,7.25-3.792a6.152,6.152,0,0,0,2.045,3.115c.014.171.022.343.022.514,0,1.676-2.219,5.416-3.074,6.715a.5.5,0,0,0-.077.344,5.292,5.292,0,0,0,1.675,2.649A3.2,3.2,0,0,1,16.019,24a3.522,3.522,0,0,1-3.475-2.8c.033-.008.063-.021.1-.028l-.015-.062c1.5-1.586,1.6-2.412,1.593-2.636a.5.5,0,0,0-.065-.228c-.122-.212-.278-.493-.45-.813a11.3,11.3,0,0,1-1.35-.424c.37.729.689,1.308.842,1.577a5.085,5.085,0,0,1-1.2,1.739,11.523,11.523,0,0,0-8.44,8.049.5.5,0,0,0,.091.43.5.5,0,0,0,.4.195h24a.5.5,0,0,0,.478-.647ZM16.057,4.019c3.785,0,5.718,3.322,6.1,6.164a3.038,3.038,0,0,0-.571-.142,5.553,5.553,0,0,0-11.012-.016,3.078,3.078,0,0,0-.485.091C10.456,7.339,12.171,4.019,16.057,4.019ZM4.7,28a10.536,10.536,0,0,1,6.881-6.51A4.481,4.481,0,0,0,15.992,25h.056a4.163,4.163,0,0,0,4.207-3.572A11.029,11.029,0,0,1,27.344,28Z" transform="translate(-247.539 -80)" fill="#0065ff"/>
      </g>
    </g>
    <g id="Mask_Group_104182" data-name="Mask Group 104182" transform="translate(-818 346)" clip-path="url(#clip-path-15)">
      <g id="Mask_Group_104181" data-name="Mask Group 104181" transform="translate(837.104 212)" clip-path="url(#clip-path-16)">
        <g id="Mask_Group_10042-3" data-name="Mask Group 10042" clip-path="url(#clip-path-16)">
          <g id="Group_40-2" data-name="Group 40" transform="translate(3.205)">
            <g id="Group_35-2" data-name="Group 35" transform="translate(5.137)">
              <path id="Path_34-2" data-name="Path 34" d="M176.246,3.464h-6.36a1.1,1.1,0,0,1-1.1-1.1V1.1a1.1,1.1,0,0,1,1.1-1.1h6.36a1.1,1.1,0,0,1,1.1,1.1V2.367A1.1,1.1,0,0,1,176.246,3.464ZM169.886.732a.361.361,0,0,0-.361.361V2.367a.361.361,0,0,0,.361.361h6.36a.361.361,0,0,0,.361-.361V1.1a.361.361,0,0,0-.361-.364Z" transform="translate(-168.79)" fill="#253858" stroke="#253858" stroke-width="0.3"/>
            </g>
            <g id="Group_39-2" data-name="Group 39" transform="translate(0 1.362)">
              <path id="Path_37-2" data-name="Path 37" d="M81.2,51.566H65.555a1.6,1.6,0,0,1-1.593-1.592V29.419a1.6,1.6,0,0,1,1.593-1.593h2.2a.368.368,0,1,1,0,.732h-2.2a.859.859,0,0,0-.858.858V49.974a.859.859,0,0,0,.858.858H81.192a.859.859,0,0,0,.858-.858V29.419a.859.859,0,0,0-.858-.858H79a.368.368,0,0,1,0-.732h2.2a1.6,1.6,0,0,1,1.593,1.593V49.974A1.6,1.6,0,0,1,81.2,51.567Z" transform="translate(-63.962 -27.824)" fill="#253858" stroke="#253858" stroke-width="0.3"/>
            </g>
          </g>
        </g>
      </g>
      <g id="Path_217769" data-name="Path 217769" transform="translate(845.261 219.192)" fill="#fff">
        <path d="M 9.921221733093262 19.34244155883789 C 4.726341724395752 19.34244155883789 0.5000017285346985 15.11610126495361 0.5000017285346985 9.921221733093262 C 0.5000017285346985 4.726341724395752 4.726341724395752 0.5000017285346985 9.921221733093262 0.5000017285346985 C 15.11610126495361 0.5000017285346985 19.34244155883789 4.726341724395752 19.34244155883789 9.921221733093262 C 19.34244155883789 15.11610126495361 15.11610126495361 19.34244155883789 9.921221733093262 19.34244155883789 Z" stroke="none"/>
        <path d="M 9.921221733093262 1.000001907348633 C 5.002041816711426 1.000001907348633 1.000001907348633 5.002041816711426 1.000001907348633 9.921221733093262 C 1.000001907348633 14.8404016494751 5.002041816711426 18.84244155883789 9.921221733093262 18.84244155883789 C 14.8404016494751 18.84244155883789 18.84244155883789 14.8404016494751 18.84244155883789 9.921221733093262 C 18.84244155883789 5.002041816711426 14.8404016494751 1.000001907348633 9.921221733093262 1.000001907348633 M 9.921221733093262 1.9073486328125e-06 C 15.40056228637695 1.9073486328125e-06 19.84244155883789 4.441882133483887 19.84244155883789 9.921221733093262 C 19.84244155883789 15.40056228637695 15.40056228637695 19.84244155883789 9.921221733093262 19.84244155883789 C 4.441882133483887 19.84244155883789 1.9073486328125e-06 15.40056228637695 1.9073486328125e-06 9.921221733093262 C 1.9073486328125e-06 4.441882133483887 4.441882133483887 1.9073486328125e-06 9.921221733093262 1.9073486328125e-06 Z" stroke="none" fill="#253858"/>
      </g>
      <g id="Icon_feather-refresh-cw" data-name="Icon feather-refresh-cw" transform="translate(848.155 220.314)">
        <path id="Path_217770" data-name="Path 217770" d="M28.506,6V9.006H25.5" transform="translate(-15.983 -0.997)" fill="none" stroke="#0065ff" stroke-linecap="round" stroke-linejoin="round" stroke-width="1"/>
        <path id="Path_217771" data-name="Path 217771" d="M1.5,24.006V21H4.506" transform="translate(0 -10.986)" fill="none" stroke="#0065ff" stroke-linecap="round" stroke-linejoin="round" stroke-width="1"/>
        <path id="Path_217772" data-name="Path 217772" d="M2.758,7.509A4.51,4.51,0,0,1,10.2,5.825L12.523,8.01m-11.023,2L3.825,12.2a4.51,4.51,0,0,0,7.441-1.684" transform="translate(0 0)" fill="none" stroke="#0065ff" stroke-linecap="round" stroke-linejoin="round" stroke-width="1"/>
      </g>
    </g>
    <g id="Mask_Group_10042-4" data-name="Mask Group 10042" transform="translate(-818 289)" clip-path="url(#clip-path-15)">
      <g id="Mask_Group_104177" data-name="Mask Group 104177" transform="translate(837.104 212)" clip-path="url(#clip-path-16)">
        <g id="Mask_Group_10042-5" data-name="Mask Group 10042" clip-path="url(#clip-path-16)">
          <g id="Group_40-3" data-name="Group 40" transform="translate(3.205)">
            <g id="Group_35-3" data-name="Group 35" transform="translate(5.137)">
              <path id="Path_34-3" data-name="Path 34" d="M176.246,3.464h-6.36a1.1,1.1,0,0,1-1.1-1.1V1.1a1.1,1.1,0,0,1,1.1-1.1h6.36a1.1,1.1,0,0,1,1.1,1.1V2.367A1.1,1.1,0,0,1,176.246,3.464ZM169.886.732a.361.361,0,0,0-.361.361V2.367a.361.361,0,0,0,.361.361h6.36a.361.361,0,0,0,.361-.361V1.1a.361.361,0,0,0-.361-.364Z" transform="translate(-168.79)" fill="#253858" stroke="#253858" stroke-width="0.3"/>
            </g>
            <g id="Group_39-3" data-name="Group 39" transform="translate(0 1.362)">
              <path id="Path_37-3" data-name="Path 37" d="M81.2,51.566H65.555a1.6,1.6,0,0,1-1.593-1.592V29.419a1.6,1.6,0,0,1,1.593-1.593h2.2a.368.368,0,1,1,0,.732h-2.2a.859.859,0,0,0-.858.858V49.974a.859.859,0,0,0,.858.858H81.192a.859.859,0,0,0,.858-.858V29.419a.859.859,0,0,0-.858-.858H79a.368.368,0,0,1,0-.732h2.2a1.6,1.6,0,0,1,1.593,1.593V49.974A1.6,1.6,0,0,1,81.2,51.567Z" transform="translate(-63.962 -27.824)" fill="#253858" stroke="#253858" stroke-width="0.3"/>
            </g>
          </g>
        </g>
      </g>
      <g id="Path_217750" data-name="Path 217750" transform="translate(845.551 219.483)" fill="#fff">
        <path d="M 9.775604248046875 19.05175971984863 C 4.66102409362793 19.05175971984863 0.5000042319297791 14.8906192779541 0.5000042319297791 9.77587890625 C 0.5000042319297791 4.661139011383057 4.66102409362793 0.4999988973140717 9.775604248046875 0.4999988973140717 C 14.89018440246582 0.4999988973140717 19.05120468139648 4.661139011383057 19.05120468139648 9.77587890625 C 19.05120468139648 14.8906192779541 14.89018440246582 19.05175971984863 9.775604248046875 19.05175971984863 Z" stroke="none"/>
        <path d="M 9.775604248046875 0.9999980926513672 C 4.936724662780762 0.9999980926513672 1.000003814697266 4.93683910369873 1.000003814697266 9.77587890625 C 1.000003814697266 14.61491870880127 4.936724662780762 18.55175971984863 9.775604248046875 18.55175971984863 C 14.6144847869873 18.55175971984863 18.55120468139648 14.61491870880127 18.55120468139648 9.77587890625 C 18.55120468139648 4.93683910369873 14.6144847869873 0.9999980926513672 9.775604248046875 0.9999980926513672 M 9.775604248046875 -1.9073486328125e-06 C 15.17452430725098 -1.9073486328125e-06 19.55120468139648 4.376809120178223 19.55120468139648 9.77587890625 C 19.55120468139648 15.17494869232178 15.17452430725098 19.55175971984863 9.775604248046875 19.55175971984863 C 4.376684188842773 19.55175971984863 3.814697265625e-06 15.17494869232178 3.814697265625e-06 9.77587890625 C 3.814697265625e-06 4.376809120178223 4.376684188842773 -1.9073486328125e-06 9.775604248046875 -1.9073486328125e-06 Z" stroke="none" fill="#253858"/>
      </g>
      <path id="Path_217751" data-name="Path 217751" d="M1.035-7.411a.55.55,0,0,1-.429-.153.506.506,0,0,1-.138-.348.481.481,0,0,1,.138-.341A.565.565,0,0,1,1.035-8.4H6.418a.55.55,0,0,1,.429.153.505.505,0,0,1,.138.348.481.481,0,0,1-.138.341.565.565,0,0,1-.429.146H5.632q-.509,0-.858-.014t-.422-.028V-7.4a1.838,1.838,0,0,1,.6.418,1.833,1.833,0,0,1,.436.738H6.418a.55.55,0,0,1,.429.153.505.505,0,0,1,.138.348.481.481,0,0,1-.138.341.565.565,0,0,1-.429.146h-.96A2.519,2.519,0,0,1,5.094-4.16a2.658,2.658,0,0,1-.706.745,3.2,3.2,0,0,1-.916.446,4.782,4.782,0,0,1-.982.195L5.778.248a.679.679,0,0,1,.233.5.617.617,0,0,1-.175.446.636.636,0,0,1-.48.181,1.023,1.023,0,0,1-.313-.049.832.832,0,0,1-.313-.2L.861-2.5a.946.946,0,0,1-.233-.285.665.665,0,0,1-.073-.3A.594.594,0,0,1,.73-3.519a.611.611,0,0,1,.451-.174H1.37a5.25,5.25,0,0,0,.895-.077,2.681,2.681,0,0,0,.8-.265,2.007,2.007,0,0,0,.6-.48,1.488,1.488,0,0,0,.32-.738H1.035a.55.55,0,0,1-.429-.153.506.506,0,0,1-.138-.348A.481.481,0,0,1,.606-6.1a.565.565,0,0,1,.429-.146h2.88q-.378-1.17-2.226-1.17Z" transform="translate(851.601 232.771)" fill="#0065ff"/>
    </g>
    <g id="Mask_Group_10040" data-name="Mask Group 10040" transform="translate(-819.5 876)" clip-path="url(#clip-path-21)">
      <g id="phone-call-2" data-name="phone-call" transform="translate(841.5 230)">
        <path id="Path_15213-2" data-name="Path 15213" d="M25.454,119.1l-4.817-4.817a1.887,1.887,0,0,0-2.4-.223l-3.074,2.1a.629.629,0,0,1-.8-.075l-1.017-1.017a.629.629,0,0,0-.889.889l1.017,1.017a1.887,1.887,0,0,0,2.4.223l3.074-2.1a.629.629,0,0,1,.8.074l4.817,4.817a.63.63,0,0,1,0,.889,7.931,7.931,0,0,1-11.2,0l-9.781-9.782a7.923,7.923,0,0,1,0-11.2.629.629,0,0,1,.889,0l4.817,4.817a.629.629,0,0,1,.075.8l-2.1,3.074a1.887,1.887,0,0,0,.223,2.4l5.074,5.074a.629.629,0,1,0,.889-.889l-5.074-5.074a.629.629,0,0,1-.074-.8l2.1-3.074a1.887,1.887,0,0,0-.223-2.4L5.358,99A1.889,1.889,0,0,0,2.69,99a9.191,9.191,0,0,0,0,12.983l9.781,9.781a9.19,9.19,0,0,0,12.982,0A1.889,1.889,0,0,0,25.454,119.1Z" transform="translate(-0.006 -98.447)" fill="#253858"/>
        <path id="Path_217780" data-name="Path 217780" d="M25.454,119.1l-4.817-4.817a1.887,1.887,0,0,0-2.4-.223l-3.074,2.1a.629.629,0,0,1-.8-.075l-1.017-1.017c-.245-.245-1.135.644-.889.889l1.017,1.017a1.887,1.887,0,0,0,2.4.223l3.074-2.1a.629.629,0,0,1,.8.074l4.817,4.817a.63.63,0,0,1,0,.889,7.931,7.931,0,0,1-11.2,0l-9.781-9.782a7.923,7.923,0,0,1,0-11.2.629.629,0,0,1,.889,0l4.817,4.817a.629.629,0,0,1,.075.8l-2.1,3.074a1.887,1.887,0,0,0,.223,2.4l5.074,5.074c.246.245,1.135-.644.889-.889l-5.074-5.074a.629.629,0,0,1-.074-.8l2.1-3.074a1.887,1.887,0,0,0-.223-2.4L5.358,99A1.889,1.889,0,0,0,2.69,99a9.191,9.191,0,0,0,0,12.983l9.781,9.781a9.19,9.19,0,0,0,12.982,0A1.889,1.889,0,0,0,25.454,119.1Z" transform="translate(-0.006 -98.448)" fill="#253858"/>
        <g id="Icon_feather-arrow-down-left" data-name="Icon feather-arrow-down-left" transform="translate(4.5 -8.635)">
          <path id="Path_217781" data-name="Path 217781" d="M19.635,10.5,10.5,19.635" transform="translate(0 0)" fill="none" stroke="#0065ff" stroke-linecap="round" stroke-linejoin="round" stroke-width="1.5"/>
          <path id="Path_217782" data-name="Path 217782" d="M19.635,19.635H10.5V10.5" transform="translate(0 0)" fill="none" stroke="#0065ff" stroke-linecap="round" stroke-linejoin="round" stroke-width="1.5"/>
        </g>
      </g>
    </g>
  </g>
</svg>
