<svg width="40" height="40" viewBox="0 0 40 40" fill="none" xmlns="http://www.w3.org/2000/svg">
<mask id="mask0_692_2" style="mask-type:alpha" maskUnits="userSpaceOnUse" x="0" y="0" width="40" height="40">
<rect width="40" height="40" fill="#D9D9D9"/>
</mask>
<g mask="url(#mask0_692_2)">
<path fill-rule="evenodd" clip-rule="evenodd" d="M28.8074 18.7837C27.6754 18.2177 26.0219 18.126 25.1161 18.5784L1.44404 30.4145C0.538259 30.8669 0.722687 31.6936 1.85378 32.2596L11.2296 36.9475C12.3616 37.5135 13.9542 37.8361 14.8591 37.3827L38.5312 25.5467C39.437 25.0942 39.3143 24.0367 38.1823 23.4707L28.8065 18.7828L28.8074 18.7837Z" fill="#E0DEFF"/>
<path fill-rule="evenodd" clip-rule="evenodd" d="M28.8384 18.722C27.6882 18.1469 26.0066 18.057 25.0853 18.5167L1.41324 30.3527C1.02349 30.5472 0.827249 30.8106 0.802719 31.0905C0.788183 31.2603 0.836334 31.4384 0.948989 31.6138C1.10889 31.8636 1.40233 32.1107 1.82297 32.3215L11.1988 37.0094C11.8856 37.3528 12.7405 37.6072 13.5118 37.6572C14.0342 37.6908 14.5185 37.6308 14.89 37.4446L38.5621 25.6085C39.0464 25.3659 39.2517 24.9598 39.189 24.541C39.1272 24.1322 38.8038 23.7043 38.2133 23.409L28.8375 18.7211L28.8384 18.722ZM28.7766 18.8456L38.1524 23.5335C38.693 23.8042 38.9973 24.1885 39.0536 24.5628C39.1082 24.9271 38.9228 25.276 38.5013 25.4868L14.8292 37.3228C14.4767 37.4991 14.017 37.5527 13.5218 37.5209C12.7678 37.4718 11.9329 37.2229 11.2615 36.8876L1.88566 32.1997C1.55678 32.0353 1.30967 31.8481 1.14886 31.6546C0.99714 31.4711 0.924459 31.2831 0.940812 31.1041C0.961708 30.8633 1.14068 30.6453 1.47592 30.4772L25.1471 18.6403C26.0374 18.1951 27.6637 18.2887 28.7766 18.8456Z" fill="#212C57"/>
<path fill-rule="evenodd" clip-rule="evenodd" d="M4.01699 29.7886L23.8652 19.865L36.22 26.0429L16.3718 35.9665L4.01699 29.7886Z" fill="#4D49B6"/>
<path fill-rule="evenodd" clip-rule="evenodd" d="M3.98605 29.7268C3.96243 29.7386 3.94789 29.7623 3.94789 29.7886C3.94789 29.815 3.96243 29.8386 3.98605 29.8504L16.3409 36.0282C16.3599 36.0382 16.3836 36.0382 16.4026 36.0282L36.2508 26.1046C36.2744 26.0928 36.289 26.0692 36.289 26.0428C36.289 26.0165 36.2744 25.9929 36.2508 25.9811L23.896 19.8032C23.8769 19.7932 23.8533 19.7932 23.8342 19.8032L3.98605 29.7268ZM4.17138 29.7886L16.3727 35.8892L36.0664 26.0419L23.8651 19.9413L4.17138 29.7886Z" fill="#212C57"/>
<path fill-rule="evenodd" clip-rule="evenodd" d="M39.1273 24.601V26.6515C39.1273 26.9323 38.9801 27.1739 38.5931 27.3674L14.921 39.2035C14.0152 39.6559 12.3617 39.5642 11.2297 38.9982L1.85392 34.3103C1.20616 33.9859 0.869099 33.5771 0.869099 33.201V31.1505C0.869099 31.5266 1.20616 31.9363 1.85392 32.2598L11.2297 36.9477C12.3617 37.5137 13.9543 37.8362 14.8592 37.3828L38.5313 25.5468C39.041 25.2924 39.1273 24.8808 39.1264 24.6001L39.1273 24.601Z" fill="#E0DEFF"/>
<path fill-rule="evenodd" clip-rule="evenodd" d="M0.799999 33.2027V33.2009V31.1504C0.799999 31.1168 0.824529 31.0877 0.857235 31.0823C0.877222 31.0786 0.898118 31.0841 0.913563 31.0977C0.929007 31.1104 0.938093 31.1304 0.938093 31.1504C0.938093 31.3239 1.01804 31.5038 1.17067 31.6791C1.33148 31.8636 1.57041 32.0407 1.88476 32.1979L11.2606 36.8858C11.932 37.221 12.7669 37.4709 13.5209 37.519C14.0161 37.5508 14.4758 37.4972 14.8283 37.321L38.5004 25.4849C38.9773 25.2469 39.0582 24.8626 39.0573 24.6C39.0573 24.5664 39.0818 24.5374 39.1145 24.5319C39.1345 24.5283 39.1554 24.5337 39.1709 24.5473C39.1863 24.5601 39.1954 24.5801 39.1954 24.6V26.6533C39.1954 26.9558 39.04 27.2193 38.623 27.4282L14.9509 39.2643C14.0306 39.7249 12.349 39.6349 11.1979 39.059L1.82207 34.3711C1.14523 34.0331 0.800908 33.597 0.799999 33.2027ZM39.0582 25.1606C38.9646 25.325 38.8111 25.484 38.5621 25.6085L14.8901 37.4445C14.5185 37.6308 14.0342 37.6907 13.5118 37.6571C12.7405 37.6072 11.8856 37.3528 11.1988 37.0094L1.82298 32.3215C1.39235 32.1061 1.09617 31.8518 0.938093 31.5937V33.2009C0.938093 33.3744 1.01804 33.5543 1.17067 33.7296C1.33148 33.9141 1.57041 34.0912 1.88476 34.2484L11.2606 38.9363C12.3735 39.4923 13.9997 39.5868 14.8901 39.1416L38.5621 27.3056C38.9183 27.1275 39.0582 26.9095 39.0582 26.6515V26.6496V25.1615V25.1606Z" fill="#212C57"/>
<path fill-rule="evenodd" clip-rule="evenodd" d="M4.36051 34.3928C4.28147 34.3538 4.21696 34.4037 4.21696 34.5055C4.21696 34.6072 4.28147 34.7217 4.36051 34.7608C4.43955 34.7998 4.50314 34.7499 4.50314 34.6481C4.50314 34.5464 4.43864 34.4319 4.36051 34.3928ZM3.89444 34.1593C3.8154 34.1203 3.7509 34.1702 3.7509 34.272C3.7509 34.3738 3.8154 34.4882 3.89444 34.5273C3.97348 34.5664 4.03799 34.5164 4.03799 34.4146C4.03799 34.3129 3.97348 34.1984 3.89444 34.1593ZM3.42838 33.9259C3.34934 33.8868 3.28483 33.9368 3.28483 34.0385C3.28483 34.1403 3.34934 34.2547 3.42838 34.2938C3.50742 34.3329 3.57102 34.2829 3.57102 34.1812C3.57102 34.0794 3.50651 33.9649 3.42838 33.9259ZM2.96231 33.6924C2.88327 33.6533 2.81968 33.7033 2.81968 33.805C2.81968 33.9068 2.88418 34.0213 2.96231 34.0603C3.04135 34.0994 3.10586 34.0494 3.10586 33.9477C3.10586 33.8459 3.04135 33.7314 2.96231 33.6924ZM2.49625 33.4589C2.41721 33.4198 2.35271 33.4698 2.35271 33.5715C2.35271 33.6733 2.41721 33.7878 2.49625 33.8268C2.57529 33.8659 2.63979 33.8159 2.63979 33.7142C2.63979 33.6124 2.57529 33.498 2.49625 33.4589ZM2.02746 33.2245C1.94842 33.1854 1.88391 33.2354 1.88391 33.3371C1.88391 33.4389 1.94842 33.5534 2.02746 33.5924C2.1065 33.6315 2.171 33.5815 2.171 33.4798C2.171 33.378 2.1065 33.2636 2.02746 33.2245Z" fill="#212C57"/>
<path fill-rule="evenodd" clip-rule="evenodd" d="M4.39128 34.3311C4.32314 34.2966 4.26136 34.3066 4.21685 34.342C4.17778 34.3729 4.14871 34.4283 4.14871 34.5056C4.14871 34.6318 4.23138 34.7736 4.3295 34.8226C4.39764 34.8572 4.45942 34.8472 4.50393 34.8117C4.543 34.7808 4.57207 34.7254 4.57207 34.6482C4.57207 34.5219 4.4894 34.3802 4.39128 34.3311ZM4.3295 34.4547C4.38855 34.4847 4.43489 34.5719 4.43489 34.6482C4.43489 34.6636 4.43307 34.6764 4.42853 34.6882C4.4258 34.6954 4.42308 34.7018 4.41672 34.7045C4.40945 34.7082 4.40036 34.7045 4.39128 34.6991C4.33223 34.6691 4.28589 34.5819 4.28589 34.5056C4.28589 34.4901 4.28771 34.4774 4.29225 34.4656C4.29498 34.4583 4.2977 34.452 4.30406 34.4492C4.31133 34.4456 4.32042 34.4492 4.3295 34.4547ZM3.92522 34.0986C3.85708 34.064 3.7953 34.074 3.75078 34.1095C3.71172 34.1403 3.68264 34.1958 3.68264 34.273C3.68264 34.3993 3.76532 34.541 3.86434 34.5901C3.93248 34.6246 3.99426 34.6146 4.03878 34.5792C4.07784 34.5483 4.10692 34.4928 4.10692 34.4156C4.10692 34.2893 4.02424 34.1476 3.92522 34.0986ZM3.86344 34.2221C3.92249 34.2521 3.96882 34.3393 3.96882 34.4156C3.96882 34.4311 3.96701 34.4438 3.96246 34.4556C3.95974 34.4629 3.95701 34.4692 3.95065 34.472C3.94339 34.4756 3.9343 34.472 3.92522 34.4665C3.86616 34.4365 3.81983 34.3493 3.81983 34.273C3.81983 34.2575 3.82165 34.2448 3.82619 34.233C3.82891 34.2257 3.83164 34.2194 3.838 34.2167C3.84527 34.213 3.85435 34.2167 3.86344 34.2221ZM3.45915 33.866C3.39101 33.8315 3.32923 33.8414 3.28472 33.8769C3.24565 33.9078 3.21658 33.9632 3.21658 34.0404C3.21658 34.1667 3.29925 34.3084 3.39737 34.3575C3.46551 34.392 3.52729 34.382 3.57181 34.3466C3.61087 34.3157 3.63994 34.2603 3.63994 34.183C3.63994 34.0568 3.55727 33.915 3.45915 33.866ZM3.39737 33.9895C3.45642 34.0195 3.50276 34.1067 3.50276 34.183C3.50276 34.1985 3.50094 34.2112 3.4964 34.223C3.49367 34.2303 3.49095 34.2366 3.48459 34.2394C3.47732 34.243 3.46824 34.2394 3.45915 34.2339C3.4001 34.2039 3.35376 34.1167 3.35376 34.0404C3.35376 34.025 3.35558 34.0122 3.36012 34.0004C3.36285 33.9932 3.36557 33.9868 3.37193 33.9841C3.3792 33.9804 3.38829 33.9841 3.39737 33.9895ZM2.99309 33.6334C2.92495 33.5989 2.86317 33.6089 2.81865 33.6443C2.77959 33.6752 2.75051 33.7306 2.75051 33.8078C2.75051 33.9341 2.83319 34.0758 2.93131 34.1249C2.99944 34.1594 3.06122 34.1494 3.10574 34.114C3.14481 34.0831 3.17388 34.0277 3.17388 33.9505C3.17388 33.8242 3.0912 33.6825 2.99309 33.6334ZM2.93131 33.757C2.99036 33.7869 3.03669 33.8742 3.03669 33.9505C3.03669 33.9659 3.03488 33.9786 3.03033 33.9904C3.02761 33.9977 3.02488 34.0041 3.01852 34.0068C3.01126 34.0104 3.00217 34.0068 2.99309 34.0013C2.93403 33.9714 2.8877 33.8841 2.8877 33.8078C2.8877 33.7924 2.88952 33.7797 2.89406 33.7679C2.89678 33.7606 2.89951 33.7542 2.90587 33.7515C2.91314 33.7479 2.92222 33.7515 2.93131 33.757ZM2.52702 33.4008C2.45888 33.3663 2.3971 33.3763 2.35259 33.4117C2.31352 33.4426 2.28445 33.498 2.28445 33.5753C2.28445 33.7015 2.36712 33.8433 2.46615 33.8923C2.53429 33.9268 2.59607 33.9169 2.64058 33.8814C2.67965 33.8505 2.70872 33.7951 2.70872 33.7179C2.70872 33.5916 2.62605 33.4499 2.52702 33.4008ZM2.46524 33.5244C2.5243 33.5544 2.57063 33.6416 2.57063 33.7179C2.57063 33.7333 2.56881 33.7461 2.56427 33.7579C2.56154 33.7651 2.55882 33.7715 2.55246 33.7742C2.54519 33.7779 2.53611 33.7742 2.52702 33.7688C2.46797 33.7388 2.42163 33.6516 2.42163 33.5753C2.42163 33.5598 2.42345 33.5471 2.42799 33.5353C2.43072 33.528 2.43344 33.5217 2.4398 33.5189C2.44707 33.5153 2.45616 33.5189 2.46524 33.5244ZM2.05823 33.1664C1.99009 33.1319 1.92831 33.1419 1.8838 33.1773C1.84473 33.2082 1.81566 33.2636 1.81566 33.3409C1.81566 33.4671 1.89833 33.6089 1.99736 33.6579C2.0655 33.6925 2.12728 33.6825 2.17179 33.647C2.21086 33.6161 2.23993 33.5607 2.23993 33.4835C2.23993 33.3572 2.15726 33.2155 2.05914 33.1664H2.05823ZM1.99645 33.29C2.0555 33.32 2.10184 33.4072 2.10184 33.4835C2.10184 33.4989 2.10002 33.5117 2.09548 33.5235C2.09275 33.5307 2.09003 33.5371 2.08367 33.5398C2.0764 33.5435 2.06732 33.5398 2.05823 33.5344C1.99918 33.5044 1.95284 33.4172 1.95284 33.3409C1.95284 33.3254 1.95466 33.3127 1.9592 33.3009C1.96193 33.2936 1.96465 33.2873 1.97101 33.2845C1.97828 33.2809 1.98737 33.2845 1.99645 33.29Z" fill="#4D49B6"/>
<path fill-rule="evenodd" clip-rule="evenodd" d="M10.2322 37.3292C10.1532 37.2901 10.0887 37.3401 10.0887 37.4419C10.0887 37.5436 10.1532 37.6581 10.2322 37.6972C10.3112 37.7362 10.3748 37.6863 10.3748 37.5845C10.3748 37.4827 10.3103 37.3683 10.2322 37.3292ZM9.76614 37.0957C9.6871 37.0567 9.6226 37.1066 9.6226 37.2084C9.6226 37.3101 9.6871 37.4246 9.76614 37.4637C9.84519 37.5027 9.90969 37.4528 9.90969 37.351C9.90969 37.2493 9.84519 37.1348 9.76614 37.0957ZM9.30008 36.8622C9.22104 36.8232 9.15654 36.8731 9.15654 36.9749C9.15654 37.0766 9.22104 37.1911 9.30008 37.2302C9.37912 37.2692 9.44272 37.2193 9.44272 37.1175C9.44272 37.0158 9.37821 36.9013 9.30008 36.8622ZM8.83401 36.6288C8.75497 36.5897 8.69047 36.6397 8.69047 36.7414C8.69047 36.8432 8.75497 36.9576 8.83401 36.9967C8.91306 37.0358 8.97756 36.9858 8.97756 36.884C8.97756 36.7823 8.91306 36.6678 8.83401 36.6288ZM8.36795 36.3953C8.28891 36.3562 8.22441 36.4062 8.22441 36.5079C8.22441 36.6097 8.28891 36.7241 8.36795 36.7632C8.44699 36.8023 8.51149 36.7523 8.51149 36.6506C8.51149 36.5488 8.44699 36.4343 8.36795 36.3953ZM7.89916 36.1609C7.82012 36.1218 7.75562 36.1718 7.75562 36.2735C7.75562 36.3753 7.82012 36.4897 7.89916 36.5288C7.9782 36.5679 8.0427 36.5179 8.0427 36.4162C8.0427 36.3144 7.9782 36.1999 7.89916 36.1609Z" fill="#212C57"/>
<path fill-rule="evenodd" clip-rule="evenodd" d="M10.263 37.2673C10.1948 37.2328 10.1331 37.2428 10.0885 37.2782C10.0495 37.3091 10.0204 37.3645 10.0204 37.4417C10.0204 37.568 10.1031 37.7097 10.2012 37.7588C10.2693 37.7933 10.3311 37.7833 10.3756 37.7479C10.4147 37.717 10.4438 37.6616 10.4438 37.5844C10.4438 37.4581 10.3611 37.3164 10.263 37.2673ZM10.2012 37.3909C10.2603 37.4208 10.3066 37.5081 10.3066 37.5844C10.3066 37.5998 10.3048 37.6125 10.3002 37.6243C10.2975 37.6316 10.2948 37.638 10.2884 37.6407C10.2812 37.6443 10.2721 37.6407 10.263 37.6352C10.2039 37.6053 10.1576 37.518 10.1576 37.4417C10.1576 37.4263 10.1594 37.4136 10.164 37.4018C10.1667 37.3945 10.1694 37.3881 10.1758 37.3854C10.183 37.3818 10.1921 37.3854 10.2012 37.3909ZM9.79692 37.0347C9.72878 37.0002 9.667 37.0102 9.62248 37.0456C9.58342 37.0765 9.55434 37.1319 9.55434 37.2092C9.55434 37.3354 9.63702 37.4772 9.73605 37.5262C9.80418 37.5607 9.86596 37.5508 9.91048 37.5153C9.94954 37.4844 9.97862 37.429 9.97862 37.3518C9.97862 37.2255 9.89594 37.0838 9.79692 37.0347ZM9.73514 37.1583C9.79419 37.1883 9.84052 37.2755 9.84052 37.3518C9.84052 37.3672 9.83871 37.38 9.83416 37.3918C9.83144 37.399 9.82871 37.4054 9.82235 37.4081C9.81509 37.4118 9.806 37.4081 9.79692 37.4027C9.73786 37.3727 9.69153 37.2855 9.69153 37.2092C9.69153 37.1937 9.69335 37.181 9.69789 37.1692C9.70061 37.1619 9.70334 37.1556 9.7097 37.1528C9.71697 37.1492 9.72605 37.1528 9.73514 37.1583ZM9.33085 36.8021C9.26271 36.7676 9.20093 36.7776 9.15642 36.813C9.11735 36.8439 9.08828 36.8994 9.08828 36.9766C9.08828 37.1029 9.17095 37.2446 9.26907 37.2936C9.33721 37.3282 9.39899 37.3182 9.44351 37.2827C9.48257 37.2519 9.51164 37.1964 9.51164 37.1192C9.51164 36.9929 9.42897 36.8512 9.33085 36.8021ZM9.26907 36.9257C9.32813 36.9557 9.37446 37.0429 9.37446 37.1192C9.37446 37.1347 9.37264 37.1474 9.3681 37.1592C9.36537 37.1665 9.36265 37.1728 9.35629 37.1755C9.34902 37.1792 9.33994 37.1755 9.33085 37.1701C9.2718 37.1401 9.22546 37.0529 9.22546 36.9766C9.22546 36.9611 9.22728 36.9484 9.23182 36.9366C9.23455 36.9293 9.23727 36.923 9.24363 36.9202C9.2509 36.9166 9.25999 36.9202 9.26907 36.9257ZM8.86479 36.5696C8.79665 36.535 8.73487 36.545 8.69035 36.5805C8.65129 36.6114 8.62221 36.6668 8.62221 36.744C8.62221 36.8703 8.70489 37.012 8.80301 37.0611C8.87115 37.0956 8.93292 37.0856 8.97744 37.0502C9.01651 37.0193 9.04558 36.9639 9.04558 36.8866C9.04558 36.7604 8.9629 36.6186 8.86479 36.5696ZM8.80301 36.6931C8.86206 36.7231 8.90839 36.8103 8.90839 36.8866C8.90839 36.9021 8.90658 36.9148 8.90203 36.9266C8.89931 36.9339 8.89658 36.9402 8.89022 36.943C8.88296 36.9466 8.87387 36.943 8.86479 36.9375C8.80573 36.9075 8.7594 36.8203 8.7594 36.744C8.7594 36.7286 8.76122 36.7158 8.76576 36.704C8.76848 36.6968 8.77121 36.6904 8.77757 36.6877C8.78484 36.684 8.79392 36.6877 8.80301 36.6931ZM8.39872 36.337C8.33058 36.3025 8.2688 36.3125 8.22429 36.3479C8.18522 36.3788 8.15615 36.4342 8.15615 36.5114C8.15615 36.6377 8.23882 36.7794 8.33694 36.8285C8.40508 36.863 8.46686 36.853 8.51138 36.8176C8.55044 36.7867 8.57951 36.7313 8.57951 36.6541C8.57951 36.5278 8.49684 36.386 8.39781 36.337H8.39872ZM8.33694 36.4605C8.396 36.4905 8.44233 36.5777 8.44233 36.6541C8.44233 36.6695 8.44051 36.6822 8.43597 36.694C8.43324 36.7013 8.43052 36.7077 8.42416 36.7104C8.41689 36.714 8.40781 36.7104 8.39872 36.7049C8.33967 36.675 8.29333 36.5877 8.29333 36.5114C8.29333 36.496 8.29515 36.4833 8.29969 36.4714C8.30242 36.4642 8.30514 36.4578 8.3115 36.4551C8.31877 36.4515 8.32786 36.4551 8.33694 36.4605ZM7.92993 36.1026C7.86179 36.0681 7.80001 36.0781 7.7555 36.1135C7.71643 36.1444 7.68736 36.1998 7.68736 36.277C7.68736 36.4033 7.77003 36.545 7.86906 36.5941C7.9372 36.6286 7.99898 36.6186 8.04349 36.5832C8.08256 36.5523 8.11163 36.4969 8.11163 36.4197C8.11163 36.2934 8.02896 36.1516 7.92993 36.1026ZM7.86815 36.2261C7.92721 36.2561 7.97354 36.3433 7.97354 36.4197C7.97354 36.4351 7.97172 36.4478 7.96718 36.4596C7.96445 36.4669 7.96173 36.4733 7.95537 36.476C7.9481 36.4796 7.93902 36.476 7.92993 36.4705C7.87088 36.4406 7.82454 36.3533 7.82454 36.277C7.82454 36.2616 7.82636 36.2489 7.8309 36.2371C7.83363 36.2298 7.83635 36.2234 7.84271 36.2207C7.84998 36.2171 7.85907 36.2207 7.86815 36.2261Z" fill="#4D49B6"/>
<path fill-rule="evenodd" clip-rule="evenodd" d="M6.95418 35.5913C6.95418 35.4795 6.87968 35.3541 6.78701 35.3114L5.43788 34.6882C5.34521 34.6455 5.27071 34.7018 5.27071 34.8136V35.2197C5.27071 35.3314 5.34521 35.4568 5.43788 35.4995L6.78701 36.1227C6.87968 36.1654 6.95418 36.1091 6.95418 35.9974V35.5913Z" fill="#4D49B6"/>
<path fill-rule="evenodd" clip-rule="evenodd" d="M7.02317 35.5911C7.02317 35.4539 6.9296 35.3004 6.81603 35.2486L5.4669 34.6254C5.39331 34.5918 5.32699 34.6018 5.27793 34.6381C5.23341 34.6717 5.20161 34.7317 5.20161 34.8144V35.2205C5.20161 35.3576 5.29519 35.5112 5.40875 35.563L6.75789 36.1862C6.83148 36.2198 6.8978 36.2098 6.94686 36.1735C6.99138 36.1399 7.02317 36.0799 7.02317 35.9972V35.5911ZM6.88508 35.5911V35.9972C6.88508 36.0272 6.87963 36.0508 6.86328 36.0626C6.85056 36.0717 6.8342 36.069 6.81513 36.0599L5.46599 35.4367C5.39513 35.404 5.3388 35.3059 5.3388 35.2195V34.8134C5.3388 34.7835 5.34425 34.7598 5.3606 34.748C5.37332 34.7389 5.38968 34.7417 5.40875 34.7508L6.75789 35.374C6.82875 35.4067 6.88508 35.5048 6.88508 35.5911Z" fill="#4D49B6"/>
<path fill-rule="evenodd" clip-rule="evenodd" d="M34.0088 28.3968C34.0088 28.2851 34.0833 28.1597 34.1759 28.117L36.7488 26.9287C36.8415 26.886 36.916 26.9423 36.916 27.054V27.4601C36.916 27.5719 36.8415 27.6973 36.7488 27.74L34.1759 28.9283C34.0833 28.971 34.0088 28.9147 34.0088 28.8029V28.3968Z" fill="#4D49B6"/>
<path fill-rule="evenodd" clip-rule="evenodd" d="M33.9397 28.3967V28.8028C33.9397 28.8854 33.9715 28.9454 34.016 28.979C34.0641 29.0154 34.1305 29.0254 34.205 28.9917L36.7779 27.8034C36.8914 27.7507 36.985 27.5981 36.985 27.4609V27.0548C36.985 26.9721 36.9532 26.9122 36.9087 26.8786C36.8605 26.8422 36.7942 26.8322 36.7197 26.8658L34.1468 28.0542C34.0333 28.1069 33.9397 28.2595 33.9397 28.3967ZM34.0778 28.3967C34.0778 28.3104 34.1332 28.2122 34.205 28.1795L36.7779 26.9912C36.7969 26.9821 36.8133 26.9794 36.826 26.9885C36.8424 27.0003 36.8478 27.0248 36.8478 27.0539V27.46C36.8478 27.5463 36.7915 27.6444 36.7206 27.6771L34.1477 28.8655C34.1286 28.8736 34.1123 28.8773 34.0996 28.8682C34.0832 28.8564 34.0778 28.8318 34.0778 28.8028V28.3967Z" fill="#4D49B6"/>
<path fill-rule="evenodd" clip-rule="evenodd" d="M30.61 30.0965C30.61 29.9848 30.6845 29.8594 30.7771 29.8167L33.35 28.6284C33.4427 28.5857 33.5172 28.642 33.5172 28.7538V29.1599C33.5172 29.2716 33.4427 29.397 33.35 29.4397L30.7771 30.628C30.6845 30.6707 30.61 30.6144 30.61 30.5026V30.0965Z" fill="#4D49B6"/>
<path fill-rule="evenodd" clip-rule="evenodd" d="M30.5419 30.0966V30.5027C30.5419 30.5854 30.5737 30.6453 30.6182 30.679C30.6664 30.7153 30.7327 30.7253 30.8072 30.6917L33.3801 29.5033C33.4937 29.4506 33.5872 29.298 33.5872 29.1608V28.7547C33.5872 28.6721 33.5554 28.6121 33.5109 28.5785C33.4628 28.5421 33.3965 28.5321 33.322 28.5658L30.7491 29.7541C30.6355 29.8068 30.5419 29.9594 30.5419 30.0966ZM30.68 30.0966C30.68 30.0103 30.7363 29.9122 30.8072 29.8795L33.3801 28.6911C33.3992 28.683 33.4155 28.6793 33.4283 28.6884C33.4446 28.7002 33.4501 28.7247 33.4501 28.7538V29.1599C33.4501 29.2462 33.3937 29.3444 33.3229 29.3771L30.75 30.5654C30.7309 30.5745 30.7145 30.5772 30.7018 30.5681C30.6855 30.5563 30.68 30.5318 30.68 30.5027V30.0966Z" fill="#4D49B6"/>
<path fill-rule="evenodd" clip-rule="evenodd" d="M7.9164 32.8647C8.66138 32.8647 9.26645 33.1672 9.26645 33.5397C9.26645 33.9122 8.66138 34.2147 7.9164 34.2147C7.17143 34.2147 6.56636 33.9122 6.56636 33.5397C6.56636 33.1672 7.17143 32.8647 7.9164 32.8647Z" fill="white"/>
<path fill-rule="evenodd" clip-rule="evenodd" d="M7.91635 32.7958C7.45301 32.7958 7.04237 32.9102 6.78798 33.0847C6.60174 33.2119 6.49726 33.3709 6.49726 33.5398C6.49726 33.7088 6.60174 33.8687 6.78798 33.995C7.04237 34.1685 7.45301 34.2839 7.91635 34.2839C8.37969 34.2839 8.79034 34.1694 9.04472 33.995C9.23096 33.8678 9.33544 33.7088 9.33544 33.5398C9.33544 33.3709 9.23096 33.211 9.04472 33.0847C8.79034 32.9111 8.37969 32.7958 7.91635 32.7958ZM7.91635 32.9339C8.34698 32.9339 8.73037 33.0365 8.9675 33.1982C9.10922 33.2945 9.19826 33.4108 9.19826 33.5398C9.19826 33.6688 9.10922 33.7851 8.9675 33.8814C8.73037 34.0432 8.34789 34.1458 7.91635 34.1458C7.48481 34.1458 7.10233 34.0432 6.86612 33.8814C6.72439 33.7851 6.63535 33.6688 6.63535 33.5398C6.63535 33.4108 6.72439 33.2945 6.86612 33.1982C7.10324 33.0365 7.48572 32.9339 7.91635 32.9339Z" fill="#333C63"/>
<path d="M21.742 27.2895L21.5606 27.5851L20.4399 27.0924L19.2976 27.0253L17.9666 27.1511L16.7682 27.5851L15.6369 28.1015L14.7625 28.7599L14.5481 28.9015L14.8789 28.1539L15.7114 27.3393L16.7467 26.8675L17.8785 26.4785L19.2541 26.2819L20.3649 26.4035L21.243 26.7773L21.742 27.2895Z" fill="#6A6AE5"/>
<path d="M20.5924 27.3393V28.025L20.161 28.1214L19.7495 27.8551L19.1414 27.7555L17.2164 28.0543L16.1848 28.7599L15.8702 29.0509L16.1208 29.627L16.4909 29.7801V30.4914L15.7082 30.1717L15.3413 29.8194V29.1217L15.7916 28.4506L16.416 27.8813L17.2594 27.4179L18.2324 27.1721L19.4952 27.0924L20.5924 27.3393Z" fill="#6A6AE5"/>
<path d="M13.6034 27.7765V28.4507L14.1104 28.2237L16.2356 26.9121L17.4371 26.5677L19.4365 26.24L21.0516 26.3113L22.4822 26.8675L23.2507 27.1936L22.8591 26.4178L21.0516 25.6996L19.252 25.6L17.6504 25.7992L16.6534 26.0807L15.7648 26.3894L14.3562 27.2078L13.6034 27.7765Z" fill="#6A6AE5"/>
<path d="M18.636 29.2055V29.8865L19.3673 29.5458L19.8721 29.0509V28.404L19.0454 28.1015V28.7841L19.3034 28.88L18.636 29.2055Z" fill="#6A6AE5"/>
<path d="M18.5255 27.855V28.5365L17.3444 28.9171L16.653 29.6641V28.947L16.9172 28.7997L17.3177 28.341C17.3177 28.341 17.595 28.0956 17.627 28.0852C17.6589 28.0742 18.2319 27.8985 18.2319 27.8985L18.525 27.8556L18.5255 27.855Z" fill="#6A6AE5"/>
<path d="M20.2517 30.0546V30.7089L21.1513 30.2386L22.0052 29.2342L22.4534 28.6025V27.9378L22.1478 28.0605L21.7934 28.9475L21.3043 29.6164L20.8614 29.867L20.2517 30.0546Z" fill="#6A6AE5"/>
<path d="M20.1274 29.4843V30.1631L19.5109 30.3351L19.3044 30.5626C19.3044 30.5626 18.9626 30.4986 18.9736 30.4735C18.9841 30.4488 19.2514 29.9115 19.2514 29.9115L19.9161 29.5058L20.1269 29.4837L20.1274 29.4843Z" fill="#6A6AE5"/>
<path d="M16.8375 25.2926V26.025L18.081 25.6585L19.7674 25.475L21.5891 25.5998L23.1298 26.0805L24.1971 26.8674L24.4959 26.5104L23.0763 25.399L20.3975 24.803L17.4409 25.0588L16.8375 25.2926Z" fill="#6A6AE5"/>
<path d="M26.4271 27.0414V27.7229L26.0827 27.6558L25.2539 26.0805L23.9727 25.399L21.5587 24.7228L21.2132 24.8098V24.1482L21.8737 24.1692L22.8519 24.2829L24.325 24.7956L25.3782 25.5998L26.0188 26.6577L26.4271 27.0414Z" fill="#6A6AE5"/>
<path d="M24.2766 28.5529V29.2344L25.1227 28.1828V27.5852L24.6735 27.7807L24.2766 28.5529Z" fill="#6A6AE5"/>
<path d="M17.7265 29.6107V30.2487L17.2238 30.7687L16.4055 31.2211L15.4021 31.2615L14.4983 30.6445L14.0999 30.0967L14.0145 29.9682V29.4608L14.4176 29.6909L15.0461 30.3991L16.0925 30.6482L16.7184 30.3242L17.7265 29.6107Z" fill="#6A6AE5"/>
<path d="M12.7999 29.9845V30.665L14.3029 31.6814L14.7354 31.8471V31.1813L14.3747 31.1672L12.7999 29.9845Z" fill="#6A6AE5"/>
<path d="M18.6744 30.4809V31.1325L19.3443 31.609L20.7314 31.4507L21.7348 30.9008L22.9305 29.7978L23.8123 28.4243V27.7198L23.4925 28.1827L22.9662 29.0293L22.4823 29.6646L21.664 30.3031L20.8101 30.7372L19.8722 30.9506L19.2521 30.8012L18.6744 30.4809Z" fill="#6A6AE5"/>
<path d="M14.7322 31.1798C14.5362 31.0645 14.3784 30.9303 14.2599 30.7777C14.1037 30.5764 14.0203 30.3484 14.0114 30.0988C13.9978 29.7099 14.1682 29.2863 14.5042 28.8727C14.8077 28.4989 15.2423 28.143 15.7613 27.8421C16.4365 27.451 17.2354 27.16 18.0721 27.0012C18.5019 26.9194 18.9307 26.8749 19.3465 26.868C20.2696 26.8534 21.0586 27.0232 21.6289 27.3582C23.0066 28.1686 22.6155 29.7036 20.7577 30.7803C20.6161 30.8621 20.4164 30.8789 20.3116 30.817C20.2067 30.7552 20.2361 30.6388 20.3776 30.5565C21.9529 29.6438 22.2847 28.3416 21.1162 27.6549C20.6329 27.3708 19.964 27.2271 19.1813 27.2392C18.8285 27.2444 18.4647 27.2827 18.0999 27.3519C17.3911 27.4866 16.7138 27.733 16.1408 28.0649C15.6984 28.3212 15.3278 28.6252 15.0688 28.944C14.7826 29.2963 14.6374 29.6569 14.6489 29.9861C14.6562 30.1942 14.7254 30.384 14.8549 30.5507C14.9797 30.7111 15.1584 30.8485 15.3875 30.958C15.7388 31.1268 16.1099 31.1593 16.782 30.7698C17.0226 30.6304 17.1206 30.4752 17.0813 30.2949C17.0546 30.1712 16.9707 30.0789 16.9445 30.0517C16.4349 29.7371 16.5901 29.1542 17.2973 28.7442C17.5589 28.5927 17.8687 28.48 18.1926 28.4192C18.3688 28.3862 18.5171 28.4381 18.5245 28.5351C18.5318 28.6326 18.3945 28.738 18.2183 28.771C18.0228 28.8077 17.8351 28.8758 17.6773 28.9676C17.2443 29.2181 17.1536 29.5762 17.4745 29.7649L17.4886 29.7733L17.4996 29.7833C17.7387 29.9956 17.9756 30.5214 17.1615 30.9932C16.3091 31.487 15.5495 31.5808 14.9047 31.271C14.8439 31.2416 14.7862 31.2112 14.7312 31.1787L14.7322 31.1798Z" fill="#6A6AE5"/>
<path d="M18.6947 29.9562C18.69 29.9536 18.6858 29.9505 18.6816 29.9473C18.5873 29.8797 18.6308 29.7623 18.7797 29.6852C19.0486 29.5453 19.2179 29.3544 19.2326 29.1741C19.2415 29.0624 19.1922 28.9634 19.0895 28.8874C18.9972 28.8187 19.0439 28.7013 19.1938 28.6247C19.3437 28.5487 19.5403 28.5419 19.6326 28.6106C19.803 28.7369 19.8847 28.901 19.8695 29.085C19.8454 29.3822 19.5655 29.6978 19.1215 29.9295C18.9794 30.0034 18.7928 30.0139 18.6942 29.9562H18.6947Z" fill="#6A6AE5"/>
<path d="M15.9159 30.6701C15.4362 30.3881 15.2475 29.9761 15.3843 29.51C15.5206 29.0445 15.9652 28.5884 16.6346 28.2257C17.8718 27.5562 19.5786 27.4157 20.5207 27.9054C20.6313 27.963 20.6114 28.0789 20.4751 28.1638C20.3382 28.2487 20.1375 28.2702 20.0263 28.2126C19.2903 27.8299 17.9572 27.94 16.9905 28.4626C16.4669 28.7462 16.1198 29.1027 16.0129 29.4665C15.9059 29.8303 16.0538 30.1522 16.4286 30.3729C16.5334 30.4348 16.5035 30.5511 16.3625 30.6334C16.221 30.7157 16.0213 30.732 15.9159 30.6701Z" fill="#6A6AE5"/>
<path d="M13.6664 28.5487C13.5883 28.5026 13.5804 28.4213 13.658 28.3442C14.0098 27.9935 14.4475 27.6654 14.9586 27.3692C16.1717 26.6662 17.6599 26.218 19.1503 26.1068C20.6401 25.9957 21.9376 26.2358 22.8047 26.7852C23.6408 27.3141 23.9726 28.0664 23.7388 28.9036C23.5055 29.7408 22.7313 30.5753 21.5591 31.2537C21.4055 31.3423 21.2451 31.4288 21.0821 31.5095C20.6999 31.6993 20.2464 31.8088 19.8381 31.8099C19.8108 31.8099 19.783 31.8104 19.7547 31.8109C19.5131 31.8156 19.1477 31.823 18.8798 31.5677C18.4898 31.196 18.7257 30.8091 18.992 30.5507C19.2667 30.2844 19.6294 30.102 19.6452 30.0941C19.7967 30.0186 19.9927 30.0144 20.0829 30.0836C20.1731 30.1533 20.1233 30.2708 19.9723 30.3462C19.9707 30.3468 19.7002 30.4846 19.5068 30.677C19.2688 30.914 19.2504 31.1221 19.4512 31.314C19.5896 31.4455 19.7128 31.4434 19.9167 31.4392C19.9503 31.4387 19.9838 31.4377 20.0168 31.4377C20.2564 31.4372 20.5264 31.3706 20.7576 31.2563C20.9022 31.1845 21.0443 31.1079 21.1806 31.0293C23.3331 29.7832 23.8175 28.046 22.2831 27.0751C21.5161 26.5891 20.3675 26.3763 19.0491 26.4743C17.7302 26.5724 16.4128 26.9692 15.3397 27.5915C14.8873 27.8536 14.4999 28.144 14.1885 28.4543C14.09 28.5524 13.8918 28.6069 13.7456 28.5759C13.7146 28.5697 13.6884 28.5597 13.6669 28.5471L13.6664 28.5487Z" fill="#6A6AE5"/>
<path d="M16.8956 26.0407C16.8668 26.0239 16.8463 26.0013 16.838 25.9741C16.8081 25.8823 16.925 25.7707 17.0985 25.7251C18.3304 25.4037 19.5975 25.2664 20.7628 25.3277C21.9617 25.3911 23.0018 25.6637 23.7719 26.1167C25.0106 26.8453 25.4232 27.9588 24.9031 29.1713C24.8591 29.2741 24.6851 29.36 24.5147 29.3637C24.3443 29.3674 24.2416 29.2872 24.2851 29.1844C24.7569 28.0846 24.3831 27.0744 23.2592 26.4139C21.8537 25.5872 19.534 25.4509 17.206 26.0585C17.0833 26.0905 16.9648 26.081 16.8956 26.0401V26.0407Z" fill="#6A6AE5"/>
<path d="M13.9947 31.9603C13.9847 31.9545 13.9748 31.9482 13.9648 31.9425C13.4028 31.6054 13.0133 31.1907 12.8078 30.709C12.7696 30.6193 12.8776 30.5061 13.05 30.4563C13.222 30.4065 13.3924 30.4385 13.4306 30.5286C13.6172 30.9653 13.97 31.3412 14.4801 31.6473C14.5399 31.683 14.6017 31.7176 14.6646 31.7511C14.7758 31.8088 14.7538 31.9252 14.6164 32.0096C14.4796 32.094 14.2783 32.1155 14.1677 32.0567C14.109 32.0258 14.0508 31.9933 13.9942 31.9603H13.9947Z" fill="#6A6AE5"/>
<path d="M25.852 27.9337C25.8158 27.9122 25.7933 27.8828 25.7901 27.8472C25.7141 27.0315 25.2046 26.3243 24.3165 25.8022C23.5585 25.356 22.5499 25.0662 21.3998 24.9629C21.2394 24.9487 21.1691 24.8544 21.242 24.7527C21.3154 24.651 21.5046 24.5802 21.665 24.5949C22.9127 24.7071 24.0072 25.0216 24.8292 25.5055C25.7922 26.0716 26.3448 26.8391 26.4271 27.724C26.436 27.8209 26.3007 27.9268 26.1246 27.9609C26.014 27.9824 25.9133 27.9704 25.852 27.9342V27.9337Z" fill="#6A6AE5"/>
<path d="M14.7322 30.4983C14.5362 30.3829 14.3784 30.2482 14.2599 30.0962C14.1037 29.8949 14.0203 29.6663 14.0114 29.4173C13.9978 29.0283 14.1682 28.6042 14.5042 28.1906C14.8077 27.8174 15.2423 27.4609 15.7613 27.16C16.4365 26.7689 17.2354 26.478 18.0721 26.3192C18.5019 26.2374 18.9307 26.1928 19.3465 26.1865C20.2696 26.1718 21.0586 26.3417 21.6289 26.6767C23.0066 27.4866 22.6155 29.022 20.7577 30.0983C20.6161 30.1801 20.4164 30.1968 20.3116 30.135C20.2067 30.0731 20.2361 29.9567 20.3776 29.8744C21.9529 28.9618 22.2847 27.6601 21.1162 26.9729C20.6329 26.6887 19.964 26.5451 19.1813 26.5571C18.8285 26.5629 18.4647 26.6007 18.0999 26.6699C17.3911 26.8041 16.7138 27.051 16.1408 27.3828C15.6984 27.6391 15.3278 27.9432 15.0688 28.2619C14.7826 28.6142 14.6374 28.9749 14.6489 29.3041C14.6562 29.5117 14.7254 29.702 14.8549 29.8687C14.9797 30.0291 15.1584 30.1659 15.3875 30.276C15.7388 30.4448 16.1099 30.4773 16.782 30.0878C17.0226 29.9483 17.1206 29.7932 17.0813 29.6128C17.0546 29.4891 16.9707 29.3963 16.9445 29.3696C16.4349 29.0551 16.5901 28.4721 17.2973 28.0622C17.5589 27.9107 17.8687 27.798 18.1926 27.7372C18.3688 27.7041 18.5171 27.756 18.5245 27.8536C18.5318 27.9505 18.3945 28.0564 18.2183 28.0895C18.0228 28.1261 17.8351 28.1943 17.6773 28.286C17.2443 28.5366 17.1536 28.8947 17.4745 29.0834L17.4886 29.0918L17.4996 29.1017C17.7387 29.314 17.9756 29.8398 17.1615 30.3116C16.3091 30.806 15.5495 30.8993 14.9047 30.5895C14.8439 30.5601 14.7862 30.5297 14.7312 30.4972L14.7322 30.4983Z" fill="white"/>
<path d="M18.6947 29.2748C18.69 29.2722 18.6858 29.2696 18.6816 29.2664C18.5873 29.1988 18.6308 29.0814 18.7797 29.0043C19.0486 28.8643 19.2179 28.673 19.2326 28.4932C19.2415 28.3815 19.1922 28.2824 19.0895 28.2064C18.9972 28.1378 19.0439 28.0203 19.1938 27.9438C19.3437 27.8673 19.5403 27.861 19.6326 27.9296C19.803 28.056 19.8847 28.2201 19.8695 28.4041C19.8454 28.7013 19.5655 29.0169 19.1215 29.2486C18.9794 29.3225 18.7928 29.333 18.6942 29.2753L18.6947 29.2748Z" fill="white"/>
<path d="M15.9159 29.9882C15.4362 29.7061 15.2475 29.2941 15.3843 28.8281C15.5206 28.3626 15.9652 27.9065 16.6346 27.5437C17.8718 26.8743 19.5786 26.7338 20.5207 27.2234C20.6313 27.2811 20.6114 27.3969 20.4751 27.4819C20.3382 27.5668 20.1375 27.5883 20.0263 27.5306C19.2903 27.1479 17.9572 27.258 16.9905 27.7807C16.4669 28.0638 16.1198 28.4202 16.0129 28.784C15.9059 29.1484 16.0538 29.4702 16.4286 29.6904C16.5334 29.7523 16.5035 29.8687 16.3625 29.9504C16.221 30.0327 16.0213 30.049 15.9159 29.9871V29.9882Z" fill="white"/>
<path d="M13.6664 27.8667C13.5883 27.8206 13.5804 27.7398 13.658 27.6622C14.0098 27.3115 14.4475 26.9834 14.9586 26.6872C16.1717 25.9842 17.6599 25.5365 19.1503 25.4249C20.6401 25.3137 21.9376 25.5543 22.8047 26.1032C23.6408 26.6321 23.9726 27.3849 23.7388 28.2221C23.5055 29.0588 22.7313 29.8939 21.5591 30.5722C21.4055 30.6608 21.2451 30.7468 21.0821 30.828C20.6999 31.0178 20.2464 31.1274 19.8381 31.1284C19.8108 31.1284 19.783 31.1289 19.7547 31.1295C19.5131 31.1342 19.1477 31.1415 18.8798 30.8862C18.4898 30.5145 18.7257 30.1277 18.992 29.8692C19.2667 29.6029 19.6294 29.4205 19.6452 29.4126C19.7967 29.3371 19.9927 29.3324 20.0829 29.4021C20.1731 29.4719 20.1233 29.5893 19.9723 29.6648C19.9707 29.6653 19.7002 29.8032 19.5068 29.9956C19.2688 30.2325 19.2504 30.4406 19.4512 30.6325C19.5896 30.7641 19.7128 30.762 19.9167 30.7578C19.9503 30.7573 19.9838 30.7562 20.0168 30.7562C20.2564 30.7557 20.5264 30.6891 20.7576 30.5743C20.9022 30.5025 21.0443 30.4265 21.1806 30.3473C23.3331 29.1012 23.8175 27.364 22.2831 26.3931C21.5161 25.9071 20.3675 25.6943 19.0491 25.7923C17.7302 25.8904 16.4128 26.2872 15.3397 26.9095C14.8873 27.1716 14.4999 27.462 14.1885 27.7723C14.09 27.8704 13.8918 27.9249 13.7456 27.894C13.7146 27.8877 13.6884 27.8777 13.6669 27.8651L13.6664 27.8667Z" fill="white"/>
<path d="M16.8956 25.3592C16.8668 25.3424 16.8463 25.3199 16.838 25.2926C16.8081 25.2004 16.925 25.0892 17.0985 25.0436C18.3304 24.7223 19.5975 24.5849 20.7628 24.6468C21.9617 24.7102 23.0018 24.9828 23.7719 25.4358C25.0106 26.1644 25.4232 27.2779 24.9031 28.4904C24.8591 28.5926 24.6851 28.6791 24.5147 28.6828C24.3443 28.6865 24.2416 28.6063 24.2851 28.5035C24.7569 27.4037 24.3831 26.394 23.2592 25.733C21.8537 24.9063 19.534 24.77 17.206 25.3776C17.0833 25.4095 16.9648 25.4001 16.8956 25.3592Z" fill="white"/>
<path d="M13.9947 31.2788C13.9847 31.273 13.9748 31.2672 13.9648 31.2609C13.4028 30.9239 13.0133 30.5092 12.8078 30.0274C12.7696 29.9378 12.8776 29.8246 13.05 29.7748C13.222 29.725 13.3924 29.7569 13.4306 29.8471C13.6172 30.2838 13.97 30.6602 14.4801 30.9658C14.5399 31.0014 14.6017 31.0366 14.6646 31.0696C14.7758 31.1273 14.7538 31.2436 14.6164 31.328C14.4796 31.4124 14.2783 31.4339 14.1677 31.3757C14.109 31.3448 14.0508 31.3123 13.9942 31.2793L13.9947 31.2788Z" fill="white"/>
<path d="M25.852 27.2517C25.8158 27.2302 25.7933 27.2008 25.7901 27.1652C25.7141 26.3495 25.2046 25.6423 24.3165 25.1202C23.5585 24.6746 22.5499 24.3842 21.3998 24.2809C21.2394 24.2662 21.1691 24.1724 21.242 24.0707C21.3154 23.969 21.5046 23.8982 21.665 23.9124C22.9127 24.0246 24.0072 24.3391 24.8292 24.823C25.7922 25.3891 26.3448 26.1566 26.4271 27.0415C26.436 27.1384 26.3007 27.2449 26.1246 27.2784C26.014 27.2999 25.9133 27.2879 25.852 27.2517Z" fill="white"/>
<path d="M21.742 26.578L21.5606 26.8742L20.4399 26.3809L19.2976 26.3143L17.9666 26.4396L16.7682 26.8742L15.6369 27.3906L14.7625 28.0485L14.5481 28.19L14.8789 27.443L15.7114 26.6284L16.7467 26.156L17.8785 25.7671L19.2541 25.5705L20.3649 25.6926L21.243 26.0659L21.742 26.578Z" fill="#6A6AE5"/>
<path d="M20.5924 26.6284V27.3141L20.161 27.4105L19.7495 27.1437L19.1414 27.0446L17.2164 27.3434L16.1848 28.0485L15.8702 28.3394L16.1208 28.9161L16.4909 29.0692V29.7805L15.7082 29.4602L15.3413 29.1085V28.4107L15.7916 27.7392L16.416 27.1704L17.2594 26.7065L18.2324 26.4611L19.4952 26.3809L20.5924 26.6284Z" fill="#6A6AE5"/>
<path d="M13.6034 27.0655V27.7391L14.1104 27.5122L16.2356 26.2011L17.4371 25.8561L19.4365 25.529L21.0516 25.6003L22.4822 26.156L23.2507 26.4826L22.8591 25.7067L21.0516 24.988L19.252 24.8889L17.6504 25.0882L16.6534 25.3697L15.7648 25.6784L14.3562 26.4967L13.6034 27.0655Z" fill="#6A6AE5"/>
<path d="M18.636 28.494V29.1749L19.3673 28.8347L19.8721 28.3393V27.6924L19.0454 27.3905V28.0725L19.3034 28.1684L18.636 28.494Z" fill="#6A6AE5"/>
<path d="M18.5255 27.1436V27.8256L17.3444 28.2062L16.653 28.9532V28.2361L16.9172 28.0888L17.3177 27.6301C17.3177 27.6301 17.595 27.3847 17.627 27.3737C17.6589 27.3632 18.2319 27.1871 18.2319 27.1871L18.525 27.1441L18.5255 27.1436Z" fill="#6A6AE5"/>
<path d="M20.2517 29.3438V29.9975L21.1513 29.5278L22.0052 28.5229L22.4534 27.8912V27.227L22.1478 27.3497L21.7934 28.2361L21.3043 28.905L20.8614 29.1561L20.2517 29.3438Z" fill="#6A6AE5"/>
<path d="M20.1274 28.773V29.4519L19.5109 29.6239L19.3044 29.8514C19.3044 29.8514 18.9626 29.7874 18.9736 29.7622C18.9841 29.7371 19.2514 29.2003 19.2514 29.2003L19.9161 28.7945L20.1269 28.7725L20.1274 28.773Z" fill="#6A6AE5"/>
<path d="M16.8375 24.5819V25.3137L18.081 24.9478L19.7674 24.7638L21.5891 24.8891L23.1298 25.3698L24.1971 26.1561L24.4959 25.7991L23.0763 24.6883L20.3975 24.0918L17.4409 24.3481L16.8375 24.5819Z" fill="#6A6AE5"/>
<path d="M26.4271 26.3306V27.0121L26.0827 26.945L25.2539 25.3697L23.9727 24.6882L21.5587 24.0114L21.2132 24.0984V23.4374L21.8737 23.4584L22.8519 23.5721L24.325 24.0843L25.3782 24.889L26.0188 25.9463L26.4271 26.3306Z" fill="#6A6AE5"/>
<path d="M24.2766 27.8415V28.523L25.1227 27.4714V26.8743L24.6735 27.0693L24.2766 27.8415Z" fill="#6A6AE5"/>
<path d="M17.7265 28.9V29.538L17.2238 30.058L16.4055 30.5104L15.4021 30.5503L14.4983 29.9338L14.0999 29.386L14.0145 29.2575V28.7495L14.4176 28.9802L15.0461 29.6884L16.0925 29.9374L16.7184 29.6135L17.7265 28.9Z" fill="#6A6AE5"/>
<path d="M12.7999 29.2737V29.9541L14.3029 30.9706L14.7354 31.1363V30.4705L14.3747 30.4564L12.7999 29.2737Z" fill="#6A6AE5"/>
<path d="M18.6744 29.7695V30.4211L19.3443 30.8976L20.7314 30.7393L21.7348 30.1899L22.9305 29.0865L23.8123 27.7135V27.009L23.4925 27.4713L22.9662 28.3185L22.4823 28.9533L21.664 29.5918L20.8101 30.0259L19.8722 30.2392L19.2521 30.0898L18.6744 29.7695Z" fill="#6A6AE5"/>
<path d="M14.7322 30.4689C14.5362 30.3535 14.3784 30.2188 14.2599 30.0668C14.1037 29.8655 14.0203 29.6369 14.0114 29.3884C13.9978 28.9995 14.1682 28.5759 14.5042 28.1623C14.8077 27.789 15.2423 27.4326 15.7613 27.1317C16.4365 26.7401 17.2354 26.4497 18.0721 26.2903C18.5019 26.2085 18.9307 26.164 19.3465 26.1577C20.2696 26.143 21.0586 26.3128 21.6289 26.6478C23.0066 27.4583 22.6155 28.9932 20.7577 30.0699C20.6161 30.1517 20.4164 30.1685 20.3116 30.1066C20.2067 30.0448 20.2361 29.9284 20.3776 29.8461C21.9529 28.9329 22.2847 27.6318 21.1162 26.9445C20.6329 26.6599 19.964 26.5162 19.1813 26.5288C18.8285 26.5346 18.4647 26.5723 18.0999 26.6415C17.3911 26.7762 16.7138 27.0226 16.1408 27.3545C15.6984 27.6108 15.3278 27.9149 15.0688 28.2336C14.7826 28.5859 14.6374 28.946 14.6489 29.2757C14.6562 29.4833 14.7254 29.6736 14.8549 29.8403C14.9797 30.0007 15.1584 30.1381 15.3875 30.2477C15.7388 30.4165 16.1099 30.4484 16.782 30.0595C17.0226 29.92 17.1206 29.7648 17.0813 29.5845C17.0546 29.4608 16.9707 29.368 16.9445 29.3413C16.4349 29.0267 16.5901 28.4438 17.2973 28.0339C17.5589 27.8824 17.8687 27.7702 18.1926 27.7094C18.3688 27.6763 18.5171 27.7282 18.5245 27.8252C18.5318 27.9222 18.3945 28.0281 18.2183 28.0611C18.0228 28.0978 17.8351 28.166 17.6773 28.2577C17.2443 28.5088 17.1536 28.8663 17.4745 29.055L17.4886 29.0634L17.4996 29.0734C17.7387 29.2857 17.9756 29.8115 17.1615 30.2833C16.3091 30.7776 15.5495 30.871 14.9047 30.5611C14.8439 30.5323 14.7862 30.5014 14.7312 30.4689H14.7322Z" fill="#6A6AE5"/>
<path d="M18.6947 29.2454C18.69 29.2428 18.6858 29.2402 18.6816 29.237C18.5873 29.1694 18.6308 29.052 18.7797 28.9749C19.0486 28.8349 19.2179 28.6436 19.2326 28.4638C19.2415 28.3526 19.1922 28.253 19.0895 28.1765C18.9972 28.1078 19.0439 27.9904 19.1938 27.9139C19.3437 27.8373 19.5403 27.831 19.6326 27.8997C19.803 28.0261 19.8847 28.1901 19.8695 28.3741C19.8454 28.6719 19.5655 28.9875 19.1215 29.2187C18.9794 29.2926 18.7928 29.3031 18.6942 29.2454H18.6947Z" fill="#6A6AE5"/>
<path d="M15.9159 29.9588C15.4362 29.6768 15.2475 29.2647 15.3843 28.7992C15.5206 28.3337 15.9652 27.8776 16.6346 27.5149C17.8718 26.8454 19.5786 26.7049 20.5207 27.1946C20.6313 27.2522 20.6114 27.3681 20.4751 27.453C20.3382 27.5379 20.1375 27.5594 20.0263 27.5018C19.2903 27.1191 17.9572 27.2292 16.9905 27.7518C16.4669 28.0354 16.1198 28.3919 16.0129 28.7557C15.9059 29.1195 16.0538 29.4419 16.4286 29.6621C16.5334 29.7239 16.5035 29.8403 16.3625 29.9226C16.221 30.0044 16.0213 30.0212 15.9159 29.9593V29.9588Z" fill="#6A6AE5"/>
<path d="M13.6664 27.8373C13.5883 27.7917 13.5804 27.7104 13.658 27.6334C14.0098 27.2827 14.4475 26.9545 14.9586 26.6583C16.1717 25.9553 17.6599 25.5071 19.1503 25.396C20.6401 25.2849 21.9376 25.5255 22.8047 26.0749C23.6408 26.6043 23.9726 27.3566 23.7388 28.1938C23.5055 29.0304 22.7313 29.865 21.5591 30.5439C21.4055 30.633 21.2451 30.719 21.0821 30.7997C20.6999 30.9895 20.2464 31.099 19.8381 31.1006C19.8108 31.1006 19.783 31.1011 19.7547 31.1016C19.5131 31.1064 19.1477 31.1137 18.8798 30.8584C18.4898 30.4867 18.7257 30.0999 18.992 29.8414C19.2667 29.5751 19.6294 29.3927 19.6452 29.3848C19.7967 29.3093 19.9927 29.3046 20.0829 29.3743C20.1731 29.4435 20.1233 29.5615 19.9723 29.637C19.9707 29.638 19.7002 29.7754 19.5068 29.9683C19.2688 30.2047 19.2504 30.4133 19.4512 30.6047C19.5896 30.7363 19.7128 30.7342 19.9167 30.73C19.9503 30.7294 19.9838 30.7284 20.0168 30.7284C20.2564 30.7274 20.5264 30.6613 20.7576 30.5465C20.9022 30.4747 21.0443 30.3981 21.1806 30.3195C23.3331 29.0734 23.8175 27.3361 22.2831 26.3653C21.5161 25.8793 20.3675 25.6665 19.0491 25.7645C17.7302 25.8631 16.4128 26.2594 15.3397 26.8811C14.8873 27.1438 14.4999 27.4337 14.1885 27.744C14.09 27.842 13.8918 27.8965 13.7456 27.8656C13.7146 27.8593 13.6884 27.8494 13.6669 27.8368L13.6664 27.8373Z" fill="#6A6AE5"/>
<path d="M16.8956 25.3299C16.8668 25.3126 16.8463 25.2906 16.838 25.2634C16.8081 25.1711 16.925 25.06 17.0985 25.0144C18.3304 24.693 19.5975 24.5557 20.7628 24.6175C21.9617 24.681 23.0018 24.9535 23.7719 25.4065C25.0106 26.1351 25.4232 27.2486 24.9031 28.4611C24.8591 28.5639 24.6851 28.6498 24.5147 28.6535C24.3443 28.6572 24.2416 28.577 24.2851 28.4748C24.7569 27.3744 24.3831 26.3648 23.2592 25.7042C21.8537 24.8775 19.534 24.7412 17.206 25.3488C17.0833 25.3808 16.9648 25.3714 16.8956 25.331V25.3299Z" fill="#6A6AE5"/>
<path d="M13.9947 31.2494C13.9847 31.2436 13.9748 31.2378 13.9648 31.2315C13.4028 30.8945 13.0133 30.4798 12.8078 29.998C12.7696 29.9084 12.8776 29.7952 13.05 29.7454C13.222 29.6956 13.3924 29.7281 13.4306 29.8177C13.6172 30.2544 13.97 30.6303 14.4801 30.9359C14.5399 30.9721 14.6017 31.0067 14.6646 31.0397C14.7758 31.0973 14.7538 31.2137 14.6164 31.2981C14.4796 31.3825 14.2783 31.404 14.1677 31.3453C14.109 31.3144 14.0508 31.2819 13.9942 31.2488L13.9947 31.2494Z" fill="#6A6AE5"/>
<path d="M25.852 27.2224C25.8158 27.2014 25.7933 27.1715 25.7901 27.1359C25.7141 26.3202 25.2046 25.613 24.3165 25.0909C23.5585 24.6453 22.5499 24.3549 21.3998 24.2516C21.2394 24.2375 21.1691 24.1431 21.242 24.0414C21.3154 23.9397 21.5046 23.8689 21.665 23.8831C22.9127 23.9953 24.0072 24.3098 24.8292 24.7937C25.7922 25.3598 26.3448 26.1273 26.4271 27.0122C26.436 27.1086 26.3007 27.2151 26.1246 27.2491C26.014 27.2706 25.9133 27.2586 25.852 27.2224Z" fill="#6A6AE5"/>
<path d="M14.7322 29.7869C14.5362 29.6716 14.3784 29.5369 14.2599 29.3848C14.1037 29.1841 14.0203 28.9555 14.0114 28.7065C13.9978 28.3175 14.1682 27.8939 14.5042 27.4803C14.8077 27.1071 15.2423 26.7506 15.7613 26.4497C16.4365 26.0586 17.2354 25.7677 18.0721 25.6089C18.5019 25.5271 18.9307 25.4825 19.3465 25.4757C20.2696 25.461 21.0586 25.6309 21.6289 25.9659C23.0066 26.7763 22.6155 28.3107 20.7577 29.388C20.6161 29.4698 20.4164 29.4865 20.3116 29.4247C20.2067 29.3628 20.2361 29.2464 20.3776 29.1641C21.9529 28.2509 22.2847 26.9498 21.1162 26.2626C20.6329 25.9784 19.964 25.8343 19.1813 25.8469C18.8285 25.8521 18.4647 25.8904 18.0999 25.9596C17.3911 26.0943 16.7138 26.3407 16.1408 26.6725C15.6984 26.9289 15.3278 27.2329 15.0688 27.5516C14.7826 27.9039 14.6374 28.2641 14.6489 28.5933C14.6562 28.8009 14.7254 28.9911 14.8549 29.1579C14.9797 29.3188 15.1584 29.4556 15.3875 29.5652C15.7388 29.734 16.1099 29.766 16.782 29.377C17.0226 29.2375 17.1206 29.0824 17.0813 28.902C17.0546 28.7783 16.9707 28.6855 16.9445 28.6588C16.4349 28.3443 16.5901 27.7613 17.2973 27.3514C17.5589 27.1999 17.8687 27.0872 18.1926 27.0264C18.3688 26.9933 18.5171 27.0452 18.5245 27.1422C18.5318 27.2397 18.3945 27.3451 18.2183 27.3781C18.0228 27.4148 17.8351 27.483 17.6773 27.5747C17.2443 27.8253 17.1536 28.1828 17.4745 28.372L17.4886 28.3804L17.4996 28.3904C17.7387 28.6027 17.9756 29.1285 17.1615 29.6003C16.3091 30.0941 15.5495 30.1874 14.9047 29.8781C14.8439 29.8488 14.7862 29.8178 14.7312 29.7859L14.7322 29.7869Z" fill="white"/>
<path d="M18.6947 28.5632C18.69 28.5606 18.6858 28.5575 18.6816 28.5543C18.5873 28.4867 18.6308 28.3693 18.7797 28.2922C19.0486 28.1523 19.2179 27.9614 19.2326 27.7811C19.2415 27.6694 19.1922 27.5704 19.0895 27.4944C18.9972 27.4257 19.0439 27.3083 19.1938 27.2317C19.3437 27.1552 19.5403 27.1489 19.6326 27.2176C19.803 27.3439 19.8847 27.508 19.8695 27.692C19.8454 27.9897 19.5655 28.3053 19.1215 28.5365C18.9794 28.6104 18.7928 28.6209 18.6942 28.5632H18.6947Z" fill="white"/>
<path d="M15.9159 29.2773C15.4362 28.9952 15.2475 28.5832 15.3843 28.1177C15.5206 27.6522 15.9652 27.1956 16.6346 26.8333C17.8718 26.1639 19.5786 26.0234 20.5207 26.513C20.6313 26.5707 20.6114 26.6865 20.4751 26.7715C20.3382 26.8564 20.1375 26.8779 20.0263 26.8202C19.2903 26.4375 17.9572 26.5476 16.9905 27.0703C16.4669 27.3539 16.1198 27.7104 16.0129 28.0742C15.9059 28.4385 16.0538 28.7604 16.4286 28.9806C16.5334 29.0424 16.5035 29.1588 16.3625 29.2411C16.221 29.3229 16.0213 29.3396 15.9159 29.2778V29.2773Z" fill="white"/>
<path d="M13.6664 27.1558C13.5883 27.1097 13.5804 27.0284 13.658 26.9514C14.0098 26.6007 14.4475 26.2725 14.9586 25.9763C16.1717 25.2733 17.6599 24.8251 19.1503 24.7145C20.6401 24.6034 21.9376 24.8435 22.8047 25.3928C23.6408 25.9223 23.9726 26.6746 23.7388 27.5118C23.5055 28.3484 22.7313 29.1835 21.5591 29.8618C21.4055 29.951 21.2451 30.0369 21.0821 30.1177C20.6999 30.3074 20.2464 30.417 19.8381 30.4186C19.8108 30.4186 19.783 30.4191 19.7547 30.4196C19.5131 30.4243 19.1477 30.4317 18.8798 30.1764C18.4898 29.8047 18.7257 29.4178 18.992 29.1594C19.2667 28.8931 19.6294 28.7107 19.6452 28.7028C19.7967 28.6273 19.9927 28.6226 20.0829 28.6923C20.1731 28.762 20.1233 28.8795 19.9723 28.9549C19.9707 28.956 19.7002 29.0933 19.5068 29.2863C19.2688 29.5232 19.2504 29.7313 19.4512 29.9227C19.5896 30.0548 19.7128 30.0521 19.9167 30.0479C19.9503 30.0474 19.9838 30.0464 20.0168 30.0464C20.2564 30.0459 20.5264 29.9793 20.7576 29.8645C20.9022 29.7927 21.0443 29.7161 21.1806 29.6375C23.3331 28.3914 23.8175 26.6541 22.2831 25.6833C21.5161 25.1978 20.3675 24.9845 19.0491 25.0825C17.7302 25.1811 16.4128 25.5774 15.3397 26.1991C14.8873 26.4617 14.4999 26.7516 14.1885 27.062C14.09 27.16 13.8918 27.2145 13.7456 27.1836C13.7146 27.1773 13.6884 27.1673 13.6669 27.1548L13.6664 27.1558Z" fill="white"/>
<path d="M16.8956 24.648C16.8668 24.6312 16.8463 24.6087 16.838 24.5814C16.8081 24.4891 16.925 24.378 17.0985 24.3324C18.3304 24.0111 19.5975 23.8737 20.7628 23.9356C21.9617 23.999 23.0018 24.2716 23.7719 24.7245C25.0106 25.4532 25.4232 26.5666 24.9031 27.7792C24.8591 27.8819 24.6851 27.9679 24.5147 27.9716C24.3443 27.9752 24.2416 27.895 24.2851 27.7923C24.7569 26.6925 24.3831 25.6823 23.2592 25.0218C21.8537 24.1951 19.534 24.0588 17.206 24.6663C17.0833 24.6983 16.9648 24.6889 16.8956 24.648Z" fill="white"/>
<path d="M13.9947 30.5674C13.9847 30.5617 13.9748 30.5554 13.9648 30.5496C13.4028 30.2125 13.0133 29.7973 12.8078 29.3161C12.7696 29.2265 12.8776 29.1132 13.05 29.0634C13.222 29.0136 13.3924 29.0461 13.4306 29.1358C13.6172 29.5724 13.97 29.9488 14.4801 30.2545C14.5399 30.2901 14.6017 30.3247 14.6646 30.3583C14.7758 30.4159 14.7538 30.5323 14.6164 30.6167C14.4796 30.7011 14.2783 30.7226 14.1677 30.6639C14.109 30.6329 14.0508 30.6004 13.9942 30.5674H13.9947Z" fill="white"/>
<path d="M25.852 26.5409C25.8158 26.5194 25.7933 26.49 25.7901 26.4544C25.7141 25.6387 25.2046 24.9315 24.3165 24.4094C23.5585 23.9633 22.5499 23.6734 21.3998 23.5701C21.2394 23.556 21.1691 23.4616 21.242 23.3599C21.3154 23.2582 21.5046 23.1874 21.665 23.2021C22.9127 23.3143 24.0072 23.6288 24.8292 24.1122C25.7922 24.6788 26.3448 25.4458 26.4271 26.3307C26.436 26.4277 26.3007 26.5335 26.1246 26.5676C26.014 26.5891 25.9133 26.5765 25.852 26.5409Z" fill="white"/>
<path d="M10.4 13.0376C10.4 15.484 10.7052 22.263 13.9667 24.8752L15.5808 26.2801L15.726 25.76C16.5194 25.9635 17.4316 25.9806 18.4776 25.7382C18.5257 25.7268 18.5737 25.7165 18.6228 25.7062C21.2453 23.3525 23.2298 20.3859 24.7262 17.3382C26.8776 12.9508 28.0197 8.40208 28.6038 5.28008L28.6633 5.22636L31.2 3.09206V3.08634L29.1674 1.32129C24.2655 3.21438 21.5939 1.93288 20.5914 1.20811L20.5856 1.2024C20.333 1.01492 20.1832 0.869736 20.1352 0.816007L20.1192 0.800003C20.0118 1.00349 17.5665 5.85853 12.4966 10.4118C11.8484 10.9971 11.1499 11.5755 10.416 12.1391C10.416 12.1391 10.4 12.4718 10.4 13.0353V13.0376Z" fill="#1E1273"/>
<path d="M10.4159 12.1414L12.4484 13.911L13.7677 14.1419L18.1769 14.9147L18.5953 14.3191L20.8747 11.068L21.8076 4.86283L22.1505 2.56735L20.5901 1.2104L20.5844 1.20469L20.134 0.818296L20.118 0.802292C20.0105 1.00578 17.5653 5.86082 12.4953 10.4141C11.8471 10.9994 11.1487 11.5778 10.4147 12.1414H10.4159Z" fill="#322C8D"/>
<path d="M15.5808 26.2799C16.772 27.4494 18.4079 28.029 20.6496 27.4814C23.455 24.9607 25.5253 21.7484 27.0537 18.487C30.5346 11.0472 31.1782 3.35597 31.1999 3.09304V3.08733C24.7308 5.5863 22.1506 2.56718 22.1506 2.56718C22.1506 2.56718 19.6779 7.59827 14.4319 12.2647C13.8101 12.8283 13.1493 13.3759 12.4474 13.912C12.4474 13.912 12.0187 22.7738 15.5797 26.2811L15.5808 26.2799Z" fill="url(#paint0_linear_692_2)"/>
<path d="M22.0444 4.4135C22.0444 4.4135 24.245 6.98906 29.7619 4.85819C29.7619 4.85819 28.7056 18.5202 20.7674 25.6524C13.1185 27.5147 13.7724 14.0847 13.7724 14.0847C19.4082 9.77953 22.0444 4.41235 22.0444 4.41235V4.4135Z" fill="#FFAD00"/>
<path d="M20.4918 15.4748C20.3043 15.3982 20.1877 15.2085 20.1877 14.925C20.1877 14.3614 20.6449 13.64 21.2085 13.3142C21.7721 12.9884 22.2294 13.1816 22.2294 13.7452C22.2294 14.0756 22.0728 14.4585 21.8293 14.7855C21.8041 14.8186 21.7938 14.8598 21.8007 14.9009L22.1985 17.2902C22.2088 17.3542 22.1791 17.4182 22.1231 17.4514L20.4815 18.4265C20.3683 18.4939 20.2265 18.4002 20.2448 18.2699L20.6072 15.6474C20.6187 15.5697 20.5638 15.5057 20.4906 15.476L20.4918 15.4748Z" fill="#FF7700"/>
<path d="M21.4282 17.5908C21.4842 17.5577 21.5139 17.4937 21.5037 17.4296L21.1058 15.0404C21.099 14.9993 21.1093 14.9592 21.1344 14.925C21.3768 14.598 21.5345 14.215 21.5345 13.8858C21.5345 13.584 21.4008 13.3931 21.1939 13.3257C21.1996 13.3222 21.2041 13.3177 21.2099 13.3142C21.7734 12.9884 22.2307 13.1816 22.2307 13.7452C22.2307 14.0756 22.0741 14.4585 21.8306 14.7855C21.8054 14.8186 21.7952 14.8598 21.802 14.9009L22.1998 17.2902C22.2101 17.3542 22.1804 17.4182 22.1244 17.4514L20.4828 18.4265C20.3765 18.4905 20.2496 18.4093 20.2496 18.2916L21.4282 17.592V17.5908Z" fill="#BA5700"/>
</g>
<defs>
<linearGradient id="paint0_linear_692_2" x1="31.1999" y1="15.1283" x2="12.4325" y2="15.1283" gradientUnits="userSpaceOnUse">
<stop stop-color="#6A6AE5"/>
<stop offset="1" stop-color="#322C8D"/>
</linearGradient>
</defs>
</svg>
